<svg width="1440" height="96" viewBox="0 0 1440 96" fill="none" xmlns="http://www.w3.org/2000/svg">
<path fill-rule="evenodd" clip-rule="evenodd" d="M0 8.94801C32 15.5223 481 76.1611 730 76.1611C979 76.1611 1440 0.222168 1440 0.222168V96.2222H0C0 96.2222 0 19.4771 0 8.94801Z" fill="#1B78D4"/>
<path fill-rule="evenodd" clip-rule="evenodd" d="M0 32.9979C151 44.2444 481 82.2957 730 82.2957C979 82.2957 1440 25.8223 1440 25.8223V96.2223H0C0 96.2223 0 43.4947 0 32.9979Z" fill="#5099DE"/>
<path fill-rule="evenodd" clip-rule="evenodd" d="M0 61.6692C149.749 72.7655 529 87.6862 742 87.6862C955 87.6862 1440 56.2222 1440 56.2222V96.2222H0C0 96.2222 0 72.1122 0 61.6692Z" fill="#1B78D4"/>
</svg>
