<svg width="597" height="785" viewBox="0 0 597 785" fill="none" xmlns="http://www.w3.org/2000/svg">
<g opacity="0.6">
<path fill-rule="evenodd" clip-rule="evenodd" d="M465.732 544.599C438.476 512.865 443.271 439.549 531.211 388.093C619.152 336.636 557.889 221.276 619.24 214.946C680.591 208.615 633.058 391.96 602.522 447.076C571.986 502.193 492.988 576.334 465.732 544.599Z" stroke="#D6E6F3"/>
<path fill-rule="evenodd" clip-rule="evenodd" d="M502.735 498.765C484.976 478.113 488.138 430.373 545.513 396.833C602.888 363.292 562.991 288.203 603.004 284.056C643.018 279.909 611.93 399.31 591.989 435.21C572.049 471.11 520.495 519.417 502.735 498.765Z" stroke="#D6E6F3"/>
<path fill-rule="evenodd" clip-rule="evenodd" d="M534.839 440.916C527.051 431.789 534.789 421.04 559.821 406.317C584.852 391.595 580.079 361.246 597.561 359.465C615.042 357.683 585.941 400.662 577.272 416.469C568.603 432.276 542.627 450.043 534.839 440.916Z" stroke="#D6E6F3"/>
<path fill-rule="evenodd" clip-rule="evenodd" d="M423.873 390.336C514.742 379.347 577.266 226.063 521.162 129.874C465.059 33.6851 291.381 120.077 280.104 205.685C268.828 291.294 333.005 401.325 423.873 390.336Z" stroke="#D6E6F3"/>
<path fill-rule="evenodd" clip-rule="evenodd" d="M423.648 351.73C491.524 343.459 538.345 229.059 496.52 157.349C454.696 85.6392 324.911 150.228 316.42 214.1C307.929 277.973 355.772 360.002 423.648 351.73Z" stroke="#D6E6F3"/>
<path fill-rule="evenodd" clip-rule="evenodd" d="M421.685 314.713C467.781 309.077 499.614 231.414 471.234 182.755C442.855 134.096 354.698 177.977 348.912 221.333C343.125 264.688 375.588 320.35 421.685 314.713Z" stroke="#D6E6F3"/>
<path fill-rule="evenodd" clip-rule="evenodd" d="M421.844 272.26C442.299 269.909 456.146 235.213 443.357 213.291C430.567 191.369 391.573 210.706 389.166 230.12C386.759 249.535 401.389 274.612 421.844 272.26Z" stroke="#D6E6F3"/>
<path fill-rule="evenodd" clip-rule="evenodd" d="M407.723 585.549C353.099 660.447 233.633 697.888 163.825 611.475C83.0223 511.453 85.6678 300.717 190.033 278.539C258.904 263.904 290.895 382.368 334.021 399.451C414.79 431.444 462.347 510.65 407.723 585.549Z" stroke="#D6E6F3"/>
<path fill-rule="evenodd" clip-rule="evenodd" d="M373.67 559.391C330.833 618.074 237.2 647.447 182.531 579.797C119.253 501.493 121.412 336.444 203.206 319.031C257.182 307.541 282.203 400.309 315.99 413.67C379.271 438.694 416.506 500.708 373.67 559.391Z" stroke="#D6E6F3"/>
<path fill-rule="evenodd" clip-rule="evenodd" d="M337.17 532.585C306.77 574.032 240.515 594.921 201.999 547.346C157.418 492.278 159.271 375.938 217.132 363.503C255.314 355.297 272.82 420.636 296.68 429.986C341.369 447.499 367.571 491.137 337.17 532.585Z" stroke="#D6E6F3"/>
<path fill-rule="evenodd" clip-rule="evenodd" d="M292.214 500.765C276.764 521.68 243.238 532.328 223.876 508.477C201.464 480.869 202.647 422.339 231.912 415.961C251.224 411.752 259.932 444.584 271.97 449.237C294.516 457.953 307.664 479.85 292.214 500.765Z" stroke="#D6E6F3"/>
</g>
</svg>
