<?xml version="1.0" encoding="utf-8"?>
<svg xmlns="http://www.w3.org/2000/svg" width="57" height="57" fill="none" viewBox="0 0 57 57">
    <path fill="#1B78D4" d="M56.888 20.495c-.088-.608-.348-1.114-.728-1.463 1.938-6.363.165-10.345-1.703-12.574-2.773-3.311-7.123-4.552-10.605-4.394L43.612 0l-.653.101C21.147 3.362 10.156 25.174 5.901 36.343c0 .006-.006.012-.013.038-.183.474-.348.924-.5 1.36l-.69-.202c-.298-.088-.665.102-.772.4C1.684 44.326.222 50.891.026 55.507L0 56.14l3.856.165.025-.633c.196-4.496 1.532-10.549 3.679-16.62a.69.69 0 0 0-.05-.5c-.178-.317-.59-.368-.906-.457.088-.246.177-.493.272-.753l1.823.582-.038.19a4.497 4.497 0 0 0 4.464 5.129c.969 0 1.906-.31 2.691-.9 1.982-1.487 2.38-4.31.893-6.299a4.462 4.462 0 0 0-2.963-1.748 4.452 4.452 0 0 0-2.698.463c1.336-3.577 3.54-8.282 6.623-12.967a.635.635 0 0 0 .855-.14.634.634 0 0 0-.12-.886l-.032-.025c2.868-4.166 6.433-8.237 10.706-11.422l.045.063a.633.633 0 0 0 .886.14.629.629 0 0 0 .14-.88l-.045-.064C33.81 6.015 38.02 4.141 42.75 3.444c.063.317.36.545.684.507a.63.63 0 0 0 .55-.627c3.135-.127 7.029.994 9.504 3.945 2.355 2.81 2.862 6.704 1.5 11.282a2.446 2.446 0 0 0-1.424.361c-.274.162-.527.38-.763.624l4.099 1.762a3.647 3.647 0 0 0-.012-.803zM9.252 38.67a.646.646 0 1 1 1.292 0 .646.646 0 0 1-1.292 0zm2.03 2.696a.646.646 0 1 1-.914-.914.646.646 0 0 1 .914.914zm1.782 1.116a.646.646 0 1 1 0-1.293.646.646 0 0 1 0 1.293zm3.811-3.812a.646.646 0 1 1-1.293 0 .646.646 0 0 1 1.293 0zm-2.03-2.696a.646.646 0 1 1 .914.914.646.646 0 0 1-.914-.914zm0 4.477a.646.646 0 1 1 .914.914.646.646 0 0 1-.914-.914zm-1.781-5.593a.646.646 0 1 1 0 1.293.646.646 0 0 1 0-1.293zm0 2.612a1.2 1.2 0 1 1 0 2.401 1.2 1.2 0 0 1 0-2.401zm-1.782-1.496a.646.646 0 1 1-.913.915.646.646 0 0 1 .913-.915zm-2.24.735l-1.71-.551c1.703-4.375 4.4-10.219 8.32-15.892l.924.697c-3.698 5.622-6.199 11.409-7.535 15.746zm8.243-16.797l-.905-.684c3.077-4.274 6.863-8.39 11.447-11.625l.468.64c-4.381 3.222-8.047 7.363-11.01 11.669zM29.327 7.509l-.45-.614c3.958-2.609 8.472-4.571 13.626-5.439l.089.728c-4.958.728-9.377 2.666-13.265 5.325zm22.725 13.084l4.554 1.956c-.043.11-.079.22-.13.327-.633 1.316-2.595 2.412-3.342 2.798.202.361.221.81.012 1.197-.196.38-.563.601-.956.652-.854 1.817-1.456 3.235-1.608 4.768-.044.43.057.93.393 1.31.202.234.607.41.842.413.36.006.563-.198.728-.394-.215-.221-.234-.481-.044-.734l1.867-2.387-.126 1.924c-.057.97-.538 2.82-2.412 2.858-.607.013-1.368-.344-1.805-.844-.627-.71-.773-1.646-.703-2.317.171-1.716.83-3.261 1.703-5.11a1.238 1.238 0 0 1-.088-1.31c.202-.38.563-.608.962-.66-.184-.854-.538-3.013.076-4.31.023-.049.053-.09.077-.137z"/>
    <mask id="a" width="57" height="57" x="0" y="0" maskUnits="userSpaceOnUse">
        <path fill="#1B78D4" d="M56.888 20.495c-.088-.608-.348-1.114-.728-1.463 1.938-6.363.165-10.345-1.703-12.574-2.773-3.311-7.123-4.552-10.605-4.394L43.612 0l-.653.101C21.147 3.362 10.156 25.174 5.901 36.343c0 .006-.006.012-.013.038-.183.474-.348.924-.5 1.36l-.69-.202c-.298-.088-.665.102-.772.4C1.684 44.326.222 50.891.026 55.507L0 56.14l3.856.165.025-.633c.196-4.496 1.532-10.549 3.679-16.62a.69.69 0 0 0-.05-.5c-.178-.317-.59-.368-.906-.457.088-.246.177-.493.272-.753l1.823.582-.038.19a4.497 4.497 0 0 0 4.464 5.129c.969 0 1.906-.31 2.691-.9 1.982-1.487 2.38-4.31.893-6.299a4.462 4.462 0 0 0-2.963-1.748 4.452 4.452 0 0 0-2.698.463c1.336-3.577 3.54-8.282 6.623-12.967a.635.635 0 0 0 .855-.14.634.634 0 0 0-.12-.886l-.032-.025c2.868-4.166 6.433-8.237 10.706-11.422l.045.063a.633.633 0 0 0 .886.14.629.629 0 0 0 .14-.88l-.045-.064C33.81 6.015 38.02 4.141 42.75 3.444c.063.317.36.545.684.507a.63.63 0 0 0 .55-.627c3.135-.127 7.029.994 9.504 3.945 2.355 2.81 2.862 6.704 1.5 11.282a2.446 2.446 0 0 0-1.424.361c-.274.162-.527.38-.763.624l4.099 1.762a3.647 3.647 0 0 0-.012-.803zM9.252 38.67a.646.646 0 1 1 1.292 0 .646.646 0 0 1-1.292 0zm2.03 2.696a.646.646 0 1 1-.914-.914.646.646 0 0 1 .914.914zm1.782 1.116a.646.646 0 1 1 0-1.293.646.646 0 0 1 0 1.293zm3.811-3.812a.646.646 0 1 1-1.293 0 .646.646 0 0 1 1.293 0zm-2.03-2.696a.646.646 0 1 1 .914.914.646.646 0 0 1-.914-.914zm0 4.477a.646.646 0 1 1 .914.914.646.646 0 0 1-.914-.914zm-1.781-5.593a.646.646 0 1 1 0 1.293.646.646 0 0 1 0-1.293zm0 2.612a1.2 1.2 0 1 1 0 2.401 1.2 1.2 0 0 1 0-2.401zm-1.782-1.496a.646.646 0 1 1-.913.915.646.646 0 0 1 .913-.915zm-2.24.735l-1.71-.551c1.703-4.375 4.4-10.219 8.32-15.892l.924.697c-3.698 5.622-6.199 11.409-7.535 15.746zm8.243-16.797l-.905-.684c3.077-4.274 6.863-8.39 11.447-11.625l.468.64c-4.381 3.222-8.047 7.363-11.01 11.669zM29.327 7.509l-.45-.614c3.958-2.609 8.472-4.571 13.626-5.439l.089.728c-4.958.728-9.377 2.666-13.265 5.325zm22.725 13.084l4.554 1.956c-.043.11-.079.22-.13.327-.633 1.316-2.595 2.412-3.342 2.798.202.361.221.81.012 1.197-.196.38-.563.601-.956.652-.854 1.817-1.456 3.235-1.608 4.768-.044.43.057.93.393 1.31.202.234.607.41.842.413.36.006.563-.198.728-.394-.215-.221-.234-.481-.044-.734l1.867-2.387-.126 1.924c-.057.97-.538 2.82-2.412 2.858-.607.013-1.368-.344-1.805-.844-.627-.71-.773-1.646-.703-2.317.171-1.716.83-3.261 1.703-5.11a1.238 1.238 0 0 1-.088-1.31c.202-.38.563-.608.962-.66-.184-.854-.538-3.013.076-4.31.023-.049.053-.09.077-.137z"/>
    </mask>
    <g mask="url(#a)">
        <path fill="#FF782C" d="M59.516 23.11l-8.864-3.799-5.066 14.562 7.915 3.8 6.015-14.563z"/>
    </g>
</svg>
