<?xml version="1.0" encoding="utf-8"?>
<svg width="96" height="96" viewBox="0 0 96 96" fill="none" xmlns="http://www.w3.org/2000/svg">
<path d="M77.6833 67.7429H1.31667C0.967465 67.7429 0.632566 67.8782 0.385643 68.1191C0.13872 68.36 0 68.6867 0 69.0273C0 76.1809 2.91312 83.0415 8.0985 88.0999C13.2839 93.1582 20.3168 96 27.65 96H51.35C58.6832 96 65.7161 93.1582 70.9015 88.0999C76.0869 83.0415 79 76.1809 79 69.0273C79 68.6867 78.8613 68.36 78.6144 68.1191C78.3674 67.8782 78.0325 67.7429 77.6833 67.7429ZM51.35 93.4312H27.65C21.2371 93.4398 15.0657 91.0458 10.4103 86.7434C5.75479 82.441 2.97085 76.5589 2.63333 70.3117H76.3667C76.0292 76.5589 73.2452 82.441 68.5898 86.7434C63.9343 91.0458 57.7629 93.4398 51.35 93.4312Z" fill="#1B78D4"/>
<path d="M67.15 36.6473C67.0848 35.6103 66.6988 34.617 66.0429 33.7984C65.3871 32.9798 64.4923 32.3743 63.4765 32.062L64.9775 30.5978C66.2225 29.4077 66.9739 27.8116 67.0881 26.1149C67.2022 24.4182 66.6711 22.74 65.5963 21.4014C64.9828 20.6686 64.2177 20.0701 63.351 19.6452C62.4844 19.2203 61.5356 18.9784 60.5667 18.9353C59.5959 18.8777 58.6238 19.0232 57.7154 19.3621C56.807 19.701 55.9835 20.2256 55.3 20.9005L53.6937 22.5317C53.2913 21.3937 52.492 20.4296 51.4353 19.8078C50.3786 19.186 49.1317 18.9459 47.912 19.1294C46.6924 19.3129 45.5776 19.9084 44.7621 20.8119C43.9466 21.7154 43.4822 22.8696 43.45 24.073V26.0381C42.5631 25.5534 41.5559 25.3178 40.5402 25.3574C39.1643 25.4589 37.8804 26.0705 36.9524 27.0666C36.0243 28.0627 35.5225 29.3676 35.55 30.7134V32.4602C34.7322 31.9984 33.8022 31.7597 32.8573 31.7692C31.9124 31.7787 30.9876 32.0359 30.1797 32.514C29.3719 32.9921 28.7107 33.6734 28.2656 34.4865C27.8205 35.2996 27.6079 36.2146 27.65 37.1354V55.6566L20.1318 62.9777L22.0015 64.8016L29.5065 57.4676H51.35C52.274 57.4667 53.1816 57.2286 53.9814 56.7773C54.7813 56.326 55.4454 55.6774 55.907 54.8965C56.3686 54.1157 56.6115 53.2301 56.6113 52.3287C56.611 51.4273 56.3677 50.5418 55.9057 49.7612H57.7095C59.0899 49.7911 60.4294 49.3027 61.4512 48.3967C62.473 47.4908 63.0991 46.2366 63.2 44.8932C63.2559 43.8976 63.0036 42.9086 62.4758 42.0547C63.8167 41.9089 65.049 41.2667 65.9187 40.2606C66.7884 39.2545 67.2291 37.9612 67.15 36.6473ZM63.8057 38.6896C63.5578 38.9432 63.2595 39.1446 62.9289 39.2816C62.5983 39.4185 62.2425 39.488 61.8833 39.4859H57.9333C57.5841 39.4859 57.2492 39.6212 57.0023 39.8621C56.7554 40.103 56.6167 40.4296 56.6167 40.7703C56.6167 41.1109 56.7554 41.4376 57.0023 41.6785C57.2492 41.9194 57.5841 42.0547 57.9333 42.0547C58.2917 42.0542 58.6464 42.125 58.9757 42.2628C59.305 42.4007 59.602 42.6026 59.8485 42.8563C60.095 43.11 60.2859 43.4102 60.4094 43.7383C60.5328 44.0665 60.5864 44.4158 60.5667 44.7648C60.4879 45.4447 60.1508 46.0711 59.6219 46.5204C59.093 46.9698 58.4107 47.2095 57.7095 47.1923H51.35C51.0008 47.1923 50.6659 47.3277 50.419 47.5685C50.172 47.8094 50.0333 48.1361 50.0333 48.4767C50.0333 48.8174 50.172 49.1441 50.419 49.385C50.6659 49.6258 51.0008 49.7612 51.35 49.7612C52.0484 49.7612 52.7182 50.0318 53.212 50.5135C53.7059 50.9953 53.9833 51.6487 53.9833 52.33C53.9833 53.0113 53.7059 53.6647 53.212 54.1464C52.7182 54.6282 52.0484 54.8988 51.35 54.8988H32.1398L34.7732 52.33H43.45V49.7612H37.4065L42.6732 44.6235H50.0333V42.0547H45.3065L50.5732 36.9171H56.6167V34.3482H53.2065L58.8682 28.8381L56.9985 27.0143L51.35 32.5372V29.2106H48.7167V35.1061L43.45 40.2437V35.6327H40.8167V42.8125L35.55 47.9501V42.0547H32.9167V50.519L30.2833 53.0878V37.1354C30.2657 36.4514 30.5115 35.7858 30.9721 35.2699C31.4328 34.754 32.0749 34.4251 32.7718 34.3482C33.131 34.3291 33.4903 34.3818 33.8277 34.5033C34.1651 34.6248 34.4734 34.8125 34.7337 35.0547C34.992 35.2949 35.1976 35.5839 35.3379 35.9041C35.4783 36.2242 35.5504 36.5689 35.55 36.9171C35.55 37.2577 35.6887 37.5844 35.9356 37.8253C36.1826 38.0662 36.5175 38.2015 36.8667 38.2015C37.2159 38.2015 37.5508 38.0662 37.7977 37.8253C38.0446 37.5844 38.1833 37.2577 38.1833 36.9171V30.7134C38.1657 30.0294 38.4115 29.3638 38.8721 28.8479C39.3328 28.3319 39.9749 28.0031 40.6718 27.9262C41.031 27.907 41.3903 27.9598 41.7277 28.0813C42.0651 28.2028 42.3734 28.3904 42.6337 28.6326C42.892 28.8729 43.0976 29.1619 43.2379 29.482C43.3783 29.8022 43.4504 30.1468 43.45 30.495C43.45 30.8357 43.5887 31.1624 43.8356 31.4032C44.0826 31.6441 44.4175 31.7794 44.7667 31.7794C45.1159 31.7794 45.4508 31.6441 45.6977 31.4032C45.9446 31.1624 46.0833 30.8357 46.0833 30.495V24.073C46.0829 23.7248 46.1551 23.3801 46.2954 23.06C46.4357 22.7398 46.6413 22.4508 46.8997 22.2106C47.1599 21.9684 47.4682 21.7808 47.8056 21.6593C48.143 21.5378 48.5024 21.485 48.8615 21.5042C49.5584 21.581 50.2005 21.9099 50.6612 22.4258C51.1219 22.9418 51.3676 23.6073 51.35 24.2913V25.3574C51.3513 25.611 51.4295 25.8585 51.5748 26.0688C51.7201 26.2791 51.9259 26.4427 52.1663 26.539C52.4061 26.6374 52.6704 26.6643 52.9258 26.6163C53.1812 26.5683 53.4163 26.4475 53.6015 26.2693L57.2223 22.7886C57.6361 22.3638 58.1376 22.0296 58.6937 21.8082C59.2499 21.5867 59.8479 21.4831 60.4482 21.5042C61.0468 21.5332 61.6326 21.6842 62.1677 21.9474C62.7029 22.2107 63.1757 22.5803 63.5555 23.0326C64.2149 23.8802 64.5322 24.9344 64.4473 25.9952C64.3623 27.056 63.881 28.0494 63.0947 28.7868L59.6318 32.1519C59.4491 32.3325 59.3254 32.5619 59.2762 32.8111C59.227 33.0602 59.2545 33.318 59.3553 33.5519C59.4541 33.7865 59.6218 33.9873 59.8374 34.129C60.053 34.2707 60.3067 34.347 60.5667 34.3482H61.6595C62.3607 34.3311 63.043 34.5708 63.5719 35.0202C64.1008 35.4695 64.4379 36.0959 64.5167 36.7758C64.5363 37.1261 64.4822 37.4767 64.3577 37.8058C64.2331 38.1349 64.0408 38.4357 63.7925 38.6896H63.8057Z" fill="#1B78D4"/>
<path d="M29.5 35.5022C29.3333 41.6509 29 54.048 29 54.4468V55.9424H34H51.5L55 53.4497V49.9599L52 47.9658H56.5L61 45.9716L62 42.9803L59.5 39.4906C60.6667 39.6567 63.2 39.8894 64 39.4906C64.8 39.0917 65.3333 37.3302 65.5 36.4993L65 33.5081L63 31.0153L65.5 26.0299C65.9 25.2323 65.3333 23.0387 65 22.0416L62 19.5489H58.5L52 23.5372V21.5431L50.5 19.5489H46.5C46 20.7122 45 23.2381 45 24.0358C45 24.8334 44.3333 27.027 44 28.0241L42 26.0299H38.5L37.5 30.0183L36.5 34.5051L34 32.511H32L29.5 35.5022Z" fill="#1B78D4"/>
<path d="M15.4313 40.7704C17.1773 40.7704 18.8518 40.0938 20.0864 38.8894C21.321 37.685 22.0146 36.0516 22.0146 34.3483V33.7061L23.1601 32.8584C24.396 31.9509 25.23 30.6173 25.4918 29.1301C25.7537 27.6429 25.4236 26.1143 24.569 24.8565C24.111 24.1888 23.5185 23.619 22.8276 23.1817C22.1367 22.7445 21.3617 22.449 20.55 22.3132C19.7383 22.1775 18.9068 22.2042 18.106 22.3919C17.3052 22.5797 16.552 22.9244 15.8921 23.4051L15.4313 23.7519L14.9573 23.4051C14.321 22.9396 13.5969 22.6009 12.8264 22.4083C12.056 22.2157 11.2541 22.1731 10.4667 22.2828C8.87657 22.5044 7.44176 23.3332 6.47796 24.5868C5.51416 25.8404 5.10033 27.4161 5.3275 28.9673C5.55467 30.5185 6.40423 31.9182 7.68929 32.8584L8.84796 33.7061V34.3483C8.84796 36.0516 9.54156 37.685 10.7762 38.8894C12.0108 40.0938 13.6853 40.7704 15.4313 40.7704Z" fill="#FF782C"/>
<path d="M30.3157 20.2198H30.2512C29.5418 20.2198 28.9668 20.7948 28.9668 21.5042C28.9668 22.2135 29.5418 22.7886 30.2512 22.7886H30.3157C31.0251 22.7886 31.6001 22.2135 31.6001 21.5042C31.6001 20.7948 31.0251 20.2198 30.3157 20.2198Z" fill="#FF782C"/>
<path d="M38.2156 61.3209H38.1511C37.4418 61.3209 36.8667 61.8959 36.8667 62.6053C36.8667 63.3146 37.4418 63.8897 38.1511 63.8897H38.2156C38.925 63.8897 39.5 63.3146 39.5 62.6053C39.5 61.8959 38.925 61.3209 38.2156 61.3209Z" fill="#FF782C"/>
<path d="M71.1001 34.3482V36.917C72.4969 36.917 73.8365 36.3757 74.8242 35.4122C75.8119 34.4487 76.3668 33.142 76.3668 31.7794C76.3668 30.4168 75.8119 29.11 74.8242 28.1465C73.8365 27.183 72.4969 26.6417 71.1001 26.6417V29.2105C71.7985 29.2105 72.4683 29.4812 72.9621 29.9629C73.456 30.4447 73.7334 31.0981 73.7334 31.7794C73.7334 32.4607 73.456 33.1141 72.9621 33.5958C72.4683 34.0776 71.7985 34.3482 71.1001 34.3482Z" fill="#FF782C"/>
<path d="M3.98218 38.2015H3.91775C3.20837 38.2015 2.6333 38.7765 2.6333 39.4859C2.6333 40.1953 3.20837 40.7704 3.91775 40.7704H3.98218C4.69156 40.7704 5.26663 40.1953 5.26663 39.4859C5.26663 38.7765 4.69156 38.2015 3.98218 38.2015Z" fill="#FF782C"/>
<path d="M1.34891 33.0639H1.28442C0.575054 33.0639 0 33.6389 0 34.3483C0 35.0577 0.575055 35.6327 1.28442 35.6327H1.34891C2.05828 35.6327 2.63333 35.0577 2.63333 34.3483C2.63333 33.6389 2.05828 33.0639 1.34891 33.0639Z" fill="#1B78D4"/>
<path d="M51.3502 60.0364C49.9534 60.0364 48.6138 60.5777 47.6261 61.5412C46.6384 62.5047 46.0835 63.8115 46.0835 65.1741H48.7168C48.7168 64.4928 48.9943 63.8394 49.4881 63.3576C49.982 62.8759 50.6518 62.6052 51.3502 62.6052C52.0486 62.6052 52.7184 62.8759 53.2122 63.3576C53.7061 63.8394 53.9835 64.4928 53.9835 65.1741H56.6168C56.6168 63.8115 56.062 62.5047 55.0743 61.5412C54.0866 60.5777 52.747 60.0364 51.3502 60.0364Z" fill="#1B78D4"/>
<path d="M5.26667 58.752H6.58333V62.6052C6.58333 62.9459 6.72205 63.2726 6.96898 63.5134C7.2159 63.7543 7.5508 63.8896 7.9 63.8896H13.1667C13.5159 63.8896 13.8508 63.7543 14.0977 63.5134C14.3446 63.2726 14.4833 62.9459 14.4833 62.6052V58.752H15.8C17.1968 58.752 18.5364 58.2107 19.5241 57.2472C20.5118 56.2837 21.0667 54.977 21.0667 53.6144C21.0667 52.2518 20.5118 50.945 19.5241 49.9815C18.5364 49.018 17.1968 48.4767 15.8 48.4767H15.6288C15.3343 47.3773 14.6743 46.4041 13.7523 45.7096C12.8303 45.015 11.6983 44.6383 10.5333 44.6383C9.36841 44.6383 8.23636 45.015 7.31435 45.7096C6.39234 46.4041 5.73241 47.3773 5.43783 48.4767H5.26667C3.86986 48.4767 2.53026 49.018 1.54257 49.9815C0.554879 50.945 0 52.2518 0 53.6144C0 54.977 0.554879 56.2837 1.54257 57.2472C2.53026 58.2107 3.86986 58.752 5.26667 58.752ZM11.85 61.3208H9.21667V58.752H11.85V61.3208Z" fill="#FF782C"/>
<path d="M70 47.2125C68.22 47.2125 66.4799 47.7274 64.9999 48.6921C63.5198 49.6568 62.3663 51.028 61.6851 52.6323C61.0039 54.2365 60.8257 56.0018 61.1729 57.7048C61.5202 59.4079 62.3774 60.9723 63.636 62.2001C64.8947 63.4279 66.4984 64.2641 68.2442 64.6029C69.99 64.9416 71.7996 64.7678 73.4442 64.1033C75.0887 63.4388 76.4943 62.3135 77.4832 60.8697C78.4722 59.4259 79 57.7285 79 55.992C79 53.6636 78.0518 51.4305 76.364 49.784C74.6761 48.1375 72.387 47.2125 70 47.2125Z" fill="#1B78D4"/>
<path d="M76.5 69.403H2L1 71.8958L8 86.3535L23 94.8287L58.5 93.8316L71 86.3535L78 72.8928L76.5 69.403Z" fill="#1B78D4"/>
<mask id="mask0" mask-type="alpha" maskUnits="userSpaceOnUse" x="22" y="17" width="48" height="47">
<path d="M69.0182 35.6718C68.9529 34.6348 68.5669 33.6415 67.9111 32.8229C67.2553 32.0042 66.3604 31.3988 65.3447 31.0865L66.8457 29.6223C68.0906 28.4322 68.8421 26.8361 68.9562 25.1394C69.0704 23.4427 68.5393 21.7645 67.4645 20.4259C66.8509 19.693 66.0859 19.0946 65.2192 18.6697C64.3526 18.2448 63.4038 18.0029 62.4348 17.9598C61.4641 17.9021 60.4919 18.0476 59.5836 18.3866C58.6752 18.7255 57.8516 19.25 57.1682 19.925L55.5618 21.5562C55.1594 20.4181 54.3601 19.4541 53.3035 18.8323C52.2468 18.2105 50.9998 17.9704 49.7802 18.1539C48.5606 18.3374 47.4457 18.9329 46.6302 19.8364C45.8147 20.7399 45.3504 21.894 45.3182 23.0975V25.0626C44.4313 24.5779 43.4241 24.3423 42.4083 24.3819C41.0324 24.4834 39.7486 25.095 38.8205 26.0911C37.8925 27.0872 37.3907 28.3921 37.4182 29.7379V31.4847C36.6004 31.0229 35.6703 30.7842 34.7255 30.7937C33.7806 30.8031 32.8558 31.0604 32.0479 31.5385C31.24 32.0166 30.5789 32.6979 30.1338 33.511C29.6887 34.3241 29.4761 35.2391 29.5182 36.1599V54.6811L22 62.0023L23.8697 63.8261L31.3747 56.4921H53.2182C54.1422 56.4912 55.0497 56.2532 55.8496 55.8018C56.6495 55.3506 57.3136 54.7019 57.7752 53.921C58.2368 53.1402 58.4797 52.2546 58.4794 51.3532C58.4792 50.4518 58.2358 49.5663 57.7738 48.7857H59.5777C60.9581 48.8156 62.2976 48.3272 63.3194 47.4212C64.3412 46.5153 64.9672 45.2611 65.0682 43.9178C65.1241 42.9221 64.8718 41.9331 64.344 41.0792C65.6848 40.9334 66.9172 40.2912 67.7869 39.2851C68.6566 38.279 69.0973 36.9857 69.0182 35.6718ZM65.6738 37.7141C65.426 37.9677 65.1276 38.1691 64.7971 38.3061C64.4665 38.443 64.1106 38.5126 63.7515 38.5104H59.8015C59.4523 38.5104 59.1174 38.6457 58.8705 38.8866C58.6235 39.1275 58.4848 39.4542 58.4848 39.7948C58.4848 40.1354 58.6235 40.4621 58.8705 40.703C59.1174 40.9439 59.4523 41.0792 59.8015 41.0792C60.1598 41.0787 60.5145 41.1495 60.8438 41.2873C61.1732 41.4252 61.4702 41.6271 61.7167 41.8808C61.9632 42.1346 62.154 42.4347 62.2775 42.7628C62.401 43.091 62.4545 43.4403 62.4348 43.7893C62.356 44.4692 62.0189 45.0956 61.49 45.5449C60.9611 45.9943 60.2788 46.234 59.5777 46.2169H53.2182C52.869 46.2169 52.5341 46.3522 52.2871 46.593C52.0402 46.8339 51.9015 47.1606 51.9015 47.5013C51.9015 47.8419 52.0402 48.1686 52.2871 48.4095C52.5341 48.6504 52.869 48.7857 53.2182 48.7857C53.9166 48.7857 54.5864 49.0563 55.0802 49.5381C55.5741 50.0198 55.8515 50.6732 55.8515 51.3545C55.8515 52.0358 55.5741 52.6892 55.0802 53.1709C54.5864 53.6527 53.9166 53.9233 53.2182 53.9233H34.008L36.6413 51.3545H45.3182V48.7857H39.2747L44.5413 43.648H51.9015V41.0792H47.1747L52.4413 35.9416H58.4848V33.3727H55.0747L60.7363 27.8626L58.8667 26.0388L53.2182 31.5617V28.2351H50.5848V34.1305L45.3182 39.2682V34.6572H42.6848V41.837L37.4182 46.9747V41.0792H34.7848V49.5435L32.1515 52.1123V36.1599C32.1339 35.4759 32.3796 34.8103 32.8403 34.2944C33.3009 33.7785 33.9431 33.4496 34.64 33.3727C34.9991 33.3536 35.3585 33.4063 35.6959 33.5278C36.0333 33.6493 36.3416 33.837 36.6018 34.0792C36.8602 34.3194 37.0658 34.6084 37.2061 34.9286C37.3464 35.2487 37.4186 35.5934 37.4182 35.9416C37.4182 36.2822 37.5569 36.6089 37.8038 36.8498C38.0507 37.0907 38.3856 37.226 38.7348 37.226C39.084 37.226 39.4189 37.0907 39.6659 36.8498C39.9128 36.6089 40.0515 36.2822 40.0515 35.9416V29.7379C40.0339 29.0539 40.2796 28.3883 40.7403 27.8723C41.2009 27.3564 41.8431 27.0276 42.54 26.9507C42.8991 26.9315 43.2585 26.9843 43.5959 27.1058C43.9333 27.2273 44.2416 27.4149 44.5018 27.6571C44.7602 27.8974 44.9658 28.1864 45.1061 28.5065C45.2464 28.8267 45.3186 29.1713 45.3182 29.5195C45.3182 29.8602 45.4569 30.1869 45.7038 30.4277C45.9507 30.6686 46.2856 30.8039 46.6348 30.8039C46.984 30.8039 47.3189 30.6686 47.5659 30.4277C47.8128 30.1869 47.9515 29.8602 47.9515 29.5195V23.0975C47.9511 22.7493 48.0232 22.4046 48.1635 22.0845C48.3039 21.7643 48.5095 21.4753 48.7678 21.2351C49.028 20.9929 49.3364 20.8052 49.6738 20.6837C50.0112 20.5622 50.3705 20.5095 50.7297 20.5286C51.4266 20.6055 52.0687 20.9344 52.5294 21.4503C52.99 21.9662 53.2358 22.6318 53.2182 23.3158V24.3819C53.2195 24.6354 53.2977 24.883 53.4429 25.0933C53.5882 25.3035 53.794 25.4672 54.0345 25.5635C54.2743 25.6619 54.5385 25.6888 54.794 25.6408C55.0494 25.5928 55.2845 25.472 55.4697 25.2938L59.0905 21.813C59.5042 21.3883 60.0058 21.0541 60.5619 20.8327C61.118 20.6112 61.716 20.5076 62.3163 20.5286C62.915 20.5577 63.5007 20.7086 64.0359 20.9719C64.5711 21.2351 65.0438 21.6048 65.4237 22.0571C66.083 22.9047 66.4004 23.9589 66.3154 25.0197C66.2305 26.0805 65.7491 27.0739 64.9628 27.8112L61.5 31.1764C61.3173 31.357 61.1935 31.5864 61.1443 31.8355C61.0951 32.0847 61.1227 32.3425 61.2235 32.5764C61.3223 32.811 61.49 33.0118 61.7056 33.1535C61.9211 33.2952 62.1749 33.3715 62.4348 33.3727H63.5277C64.2288 33.3556 64.9111 33.5953 65.44 34.0447C65.9689 34.494 66.306 35.1204 66.3848 35.8003C66.4045 36.1506 66.3504 36.5012 66.2258 36.8303C66.1013 37.1594 65.9089 37.4602 65.6607 37.7141H65.6738Z" fill="#1B78D4"/>
</mask>
<g mask="url(#mask0)">
<path d="M34 53.4497L33 51.9541V43.9774L34 40.4876L36.5 38.992H39.5L40.5 36.4993L41 33.0095L44.5 33.5081L48.5 31.0153L49.5 27.027L51 26.5285H54.5L57 24.5343L59.5 25.0328L62 26.5285L58.5 30.0183C58.6667 31.5139 59.1 34.7046 59.5 35.5022C59.9 36.2999 58 36.4993 57 36.4993C56.5 37.3302 55.5 39.0917 55.5 39.4906C55.5 39.8894 58.5 42.9803 58.5 43.9774L47 47.4672C47.1667 48.7967 47.5 51.5553 47.5 51.9541C47.5 52.3529 40.8333 52.1203 37.5 51.9541L34 53.4497Z" fill="white"/>
</g>
<path d="M6 80.371H15V84.3535C15 85.458 14.1046 86.3535 13 86.3535H8C6.89543 86.3535 6 85.458 6 84.3535V80.371Z" fill="#1B78D4"/>
</svg>
