<?xml version="1.0" encoding="utf-8"?>
<svg xmlns="http://www.w3.org/2000/svg" width="51" height="46" fill="none" viewBox="0 0 51 46">
    <path fill="#1B78D4" d="M49.596 3.774c0-.54-.135-.944-.54-1.213l-.808-.809C47.035.674 45.553 0 43.935 0c-1.617 0-3.234.674-4.447 1.887l-.674.674c-.54.539-1.078.808-1.752.808-.674 0-1.348-.27-1.752-.674l-.54-.539C33.559 1.078 32.076.404 30.459.404c-1.617 0-3.234.674-4.447 1.887l-.404.404c-.54.54-1.079.809-1.753.809-.673 0-1.347-.27-1.752-.674l-.27-.27C20.62 1.483 19.138.81 17.52.81c-1.617 0-3.234.673-4.447 1.886-.54.54-1.078.809-1.752.809-.674 0-1.348-.27-1.752-.674-1.213-1.078-2.696-1.752-4.313-1.752-1.617 0-3.234.674-4.447 1.887l-.27.27C.27 3.638 0 4.042 0 4.446L.135 21.43c0 6.603 2.695 12.803 7.412 17.385 4.717 4.582 10.917 7.143 17.52 7.143h.27c6.604 0 12.803-2.696 17.52-7.413C47.574 33.828 50 27.494 50 20.89l-.404-17.116zM15.768 7.817c.404-.405.944-.674 1.483-.674 1.213 0 2.156.943 2.156 2.156 0 .54-.27 1.078-.674 1.483-.404.404-.943.674-1.482.674a2.129 2.129 0 0 1-2.157-2.157c0-.539.27-1.078.674-1.482zm-5.121 10.647c-1.752 0-3.1-1.348-3.1-3.1 0-.809.27-1.617.944-2.157.539-.539 1.347-.943 2.156-.943 1.752 0 3.1 1.348 3.1 3.1s-1.348 3.1-3.1 3.1z"/>
    <circle cx="18.908" cy="28.303" r="6.103" fill="#fff"/>
    <path fill="#FF782C" fill-rule="evenodd" d="M10.432 28.026c2.491-4.706 6.782-7.336 11.488-7.336 3.184-2.076 7.751-2.768 7.751-2.768-1.107 1.107-2.076 2.353-2.768 3.599 2.215.83 4.43 2.353 6.229 4.567 2.214-3.598 3.737-4.152 7.75-4.152-.968 2.768-.83 4.845-4.013 6.09 3.183 1.246 3.045 3.322 4.014 6.09-4.014 0-5.537-.553-7.751-4.152-1.938 2.353-4.153 3.876-6.506 4.706.692 1.384 1.8 2.768 3.045 4.014 0 0-5.398-.692-8.72-3.322-4.152-.415-8.166-2.907-10.52-7.336zm7.336 5.398c1.938-.968 3.183-2.906 3.183-5.12 0-2.215-1.245-4.153-3.183-5.122 1.384 1.246 2.214 3.045 2.214 5.121 0 2.076-.83 3.876-2.214 5.121zm-2.076-8.304c.83 0 1.384.553 1.384 1.245 0 .692-.554 1.385-1.384 1.385-.693 0-1.246-.693-1.246-1.385a1.24 1.24 0 0 1 1.246-1.245z" clip-rule="evenodd"/>
</svg>
