<?xml version="1.0" encoding="utf-8"?>
<svg xmlns="http://www.w3.org/2000/svg" width="96" height="90" fill="none" viewBox="0 0 96 90">
    <mask id="a" width="96" height="96" x="0" y="-3" maskUnits="userSpaceOnUse">
        <path fill="#C4C4C4" d="M0-3h96v96H0z"/>
    </mask>
    <g mask="url(#a)">
        <path fill="#1B78D4" d="M36.393 59.391c3.19.221 7.075.38 11.742.404V47.6H34.984c.08 4.73.605 8.608 1.409 11.791zM50.703 45.032h13.151c-.08-4.73-.605-8.607-1.409-11.79-3.19-.221-7.075-.38-11.74-.404v12.194h-.002zM37.13 30.614c3.065-.192 6.713-.323 11.005-.345V18.875c-2.497.527-7.96 2.708-11.004 11.739zM50.702 18.893V30.27c4.275.022 7.91.152 10.966.342-3.056-8.926-8.494-11.16-10.966-11.719zM65.162 59.179c6.539-.592 9.375-1.41 9.787-1.539a27.804 27.804 0 0 0 2.367-10.04H66.423c-.073 4.534-.535 8.357-1.26 11.579zM64.468 30.815c4.25.35 7.12.806 8.923 1.167-3.494-5.829-9.05-10.28-15.663-12.337 2.52 2.143 5.06 5.595 6.74 11.17zM66.423 45.032h10.893a27.816 27.816 0 0 0-2.365-10.038c-.428-.131-3.295-.943-9.787-1.535.726 3.221 1.186 7.042 1.259 11.573zM34.983 45.032h13.152V32.838c-4.685.024-8.576.181-11.766.401-.792 3.184-1.307 7.062-1.386 11.794zM32.415 47.6H21.521a27.805 27.805 0 0 0 2.367 10.04c.416.125 3.282.94 9.787 1.533-.726-3.22-1.187-7.041-1.26-11.573zM48.135 73.739V62.363c-4.275-.022-7.91-.151-10.966-.342 3.057 8.926 8.495 11.16 10.966 11.718zM34.37 61.818c-4.25-.35-7.121-.806-8.923-1.167 3.493 5.828 9.05 10.28 15.662 12.337-2.52-2.144-5.06-5.595-6.74-11.17zM57.728 72.988c6.613-2.057 12.17-6.508 15.663-12.337-1.8.36-4.673.815-8.923 1.167-1.68 5.575-4.22 9.027-6.74 11.17zM33.676 33.454c-6.538.591-9.374 1.41-9.788 1.538a27.787 27.787 0 0 0-2.367 10.04h10.894c.073-4.533.535-8.356 1.261-11.578zM50.702 62.364v11.395c2.493-.525 7.959-2.704 11.004-11.74-3.063.192-6.711.323-11.004.345zM41.109 19.644c-6.613 2.058-12.169 6.509-15.662 12.337 1.8-.36 4.672-.815 8.922-1.166 1.68-5.576 4.221-9.027 6.74-11.171zM63.855 47.6H50.702v12.195c4.686-.025 8.577-.181 11.766-.401.792-3.184 1.308-7.062 1.387-11.794z"/>
        <path fill="#FF782C" d="M80.884 39.23l9.132 12.077L100 39.905l-5.372-.19C94.604 22.767 83.69 7.36 67.255 1.972A39.525 39.525 0 0 0 54.932 0c-6.155 0-12.249 1.484-17.757 4.224l5.14 6.048c7.007-2.97 15.02-3.523 22.569-1.048C78.075 13.55 86.873 25.86 87.009 39.446l-6.125-.216zM15.116 50.027L5.984 37.95-4 49.352l5.372.19C1.396 66.49 12.31 81.898 28.745 87.285a39.525 39.525 0 0 0 12.323 1.972c6.155 0 12.249-1.484 17.757-4.224l-5.14-6.048c-7.007 2.97-15.02 3.522-22.569 1.048C17.925 75.707 9.127 63.396 8.991 49.811l6.125.216z"/>
    </g>
</svg>
