<?xml version="1.0" encoding="utf-8"?>
<svg width="62" height="62" viewBox="0 0 62 62" fill="none" xmlns="http://www.w3.org/2000/svg">
<path d="M21.6677 39.8549C23.9298 40.0118 26.6856 40.124 29.9954 40.1415V31.4925H20.6683C20.7255 34.8475 21.0979 37.5972 21.6677 39.8549Z" fill="#1B78D4"/>
<path d="M31.8169 29.6716H41.1435C41.0859 26.317 40.714 23.5673 40.1441 21.3096C37.8821 21.1527 35.1267 21.0406 31.8173 21.023V29.6716H31.8169Z" fill="#1B78D4"/>
<path d="M22.1912 19.4459C24.364 19.3101 26.9515 19.2173 29.9953 19.2015V11.1209C28.2243 11.4946 24.3504 13.0413 22.1912 19.4459Z" fill="#1B78D4"/>
<path d="M31.816 11.1333V19.2016C34.8479 19.2174 37.4261 19.3093 39.5932 19.4443C37.4257 13.114 33.5689 11.529 31.816 11.1333Z" fill="#1B78D4"/>
<path d="M42.0712 39.7045C46.7083 39.2846 48.7193 38.7043 49.0122 38.6133C49.9856 36.4198 50.5765 34.0188 50.6908 31.4925H42.965C42.9136 34.7082 42.586 37.4191 42.0712 39.7045Z" fill="#1B78D4"/>
<path d="M41.5787 19.5884C44.5921 19.8372 46.6287 20.16 47.9068 20.4163C45.4293 16.2826 41.4885 13.1258 36.7991 11.6665C38.5859 13.1869 40.3867 15.6345 41.5787 19.5884Z" fill="#1B78D4"/>
<path d="M42.965 29.6716H50.6908C50.5765 27.1457 49.9856 24.7447 49.013 22.5521C48.7097 22.4593 46.6762 21.8833 42.0721 21.4639C42.5869 23.7479 42.9136 26.458 42.965 29.6716Z" fill="#1B78D4"/>
<path d="M20.6679 29.6716H29.9954V21.023C26.6728 21.0406 23.913 21.1518 21.651 21.3079C21.0895 23.5656 20.7241 26.3161 20.6679 29.6716Z" fill="#1B78D4"/>
<path d="M18.8467 31.4925H11.121C11.2353 34.0188 11.8257 36.4189 12.7992 38.6128C13.0942 38.7016 15.1272 39.2802 19.7401 39.7006C19.2253 37.4161 18.8986 34.7064 18.8467 31.4925Z" fill="#1B78D4"/>
<path d="M29.9953 50.0303V41.9625C26.9638 41.9471 24.3856 41.8552 22.2181 41.7198C24.3861 48.0501 28.2428 49.6351 29.9953 50.0303Z" fill="#1B78D4"/>
<path d="M20.2327 41.576C17.2192 41.3276 15.1827 41.004 13.905 40.7481C16.3825 44.8814 20.3228 48.0386 25.0123 49.4979C23.2259 47.9771 21.4246 45.5299 20.2327 41.576Z" fill="#1B78D4"/>
<path d="M36.7991 49.4977C41.4885 48.0389 45.4293 44.8821 47.9068 40.7483C46.63 41.0038 44.593 41.326 41.5787 41.5758C40.3867 45.5297 38.5854 47.9777 36.7991 49.4977Z" fill="#1B78D4"/>
<path d="M19.741 21.46C15.1043 21.8794 13.0928 22.4602 12.7996 22.5512C11.8257 24.7443 11.2353 27.1453 11.121 29.6716H18.8467C18.8986 26.4563 19.2257 23.7454 19.741 21.46Z" fill="#1B78D4"/>
<path d="M31.816 41.9632V50.0447C33.5839 49.6723 37.4604 48.1273 39.62 41.7188C37.4476 41.8551 34.8602 41.9479 31.816 41.9632Z" fill="#1B78D4"/>
<path d="M25.0123 11.6663C20.3228 13.1255 16.3825 16.2823 13.905 20.416C15.1822 20.1602 17.2188 19.8379 20.2327 19.5886C21.4246 15.6347 23.2263 13.1866 25.0123 11.6663Z" fill="#1B78D4"/>
<path d="M41.1439 31.4925H31.816V40.1415C35.139 40.124 37.8983 40.0127 40.1604 39.8566C40.7223 37.599 41.0876 34.8484 41.1439 31.4925Z" fill="#1B78D4"/>
<path d="M7.50668 31.3336H7.11629L7.02161 31.7124C6.65783 33.1675 5.33232 34.2339 3.79169 34.1154L3.77254 34.1139H3.75334C1.94429 34.1139 0.5 32.6696 0.5 30.8605C0.5 29.0515 1.94429 27.6072 3.75334 27.6072C5.32653 27.6072 6.65911 28.6977 7.02161 30.1477L7.11629 30.5265H7.50668H11.038V31.3336H7.50668ZM1.44618 30.9996C1.44618 32.3878 2.50411 33.4457 3.89235 33.4457C5.11831 33.4457 6.33853 32.4105 6.33853 30.9996C6.33853 29.6113 5.2806 28.5534 3.89235 28.5534C2.50411 28.5534 1.44618 29.6113 1.44618 30.9996Z" fill="white" stroke="#FF782C"/>
<path d="M54.354 30.5265H54.7443L54.839 30.1477C55.2015 28.6977 56.5341 27.6072 58.1073 27.6072C59.9163 27.6072 61.4996 29.1905 61.4996 30.9996C61.4996 32.8086 60.0553 34.2529 58.2463 34.2529C56.6731 34.2529 55.3405 33.1624 54.978 31.7124L54.8833 31.3336H54.493H50.8226V30.5265H54.354ZM55.6611 30.9996C55.6611 32.3878 56.719 33.4457 58.1073 33.4457C59.4205 33.4457 60.7181 32.4453 60.5533 30.9687C60.5377 29.5957 59.4852 28.5534 58.1073 28.5534C56.719 28.5534 55.6611 29.6113 55.6611 30.9996Z" fill="white" stroke="#FF782C"/>
<path d="M30.5267 7.50668V7.11629L30.148 7.02161C28.6929 6.65783 27.6265 5.33232 27.745 3.79169L27.7464 3.77254V3.75334C27.7464 1.94429 29.1907 0.5 30.9998 0.5C32.8088 0.5 34.2531 1.94429 34.2531 3.75334C34.2531 5.32653 33.1626 6.65911 31.7126 7.02161L31.3339 7.11629V7.50668V11.038H30.5267V7.50668ZM33.446 3.75334C33.446 2.3651 32.388 1.30716 30.9998 1.30716C29.5888 1.30716 28.5536 2.52738 28.5536 3.75334C28.5536 5.14158 29.6115 6.19952 30.9998 6.19952C32.388 6.19952 33.446 5.14158 33.446 3.75334Z" fill="white" stroke="#FF782C"/>
<path d="M31.3339 54.4933V54.8837L31.7126 54.9784C33.1776 55.3446 34.2348 56.5389 34.1154 58.211L34.1141 58.2288V58.2467C34.1141 60.0557 32.6698 61.5 30.8608 61.5C29.0517 61.5 27.6074 60.0557 27.6074 58.2467C27.6074 56.6735 28.698 55.3409 30.148 54.9784L30.5267 54.8837V54.4933V50.962H31.3339V54.4933ZM28.5536 58.2467C28.5536 59.6349 29.6116 60.6928 30.9998 60.6928C32.4107 60.6928 33.446 59.4726 33.446 58.2467C33.446 56.8584 32.388 55.8005 30.9998 55.8005C29.6116 55.8005 28.5536 56.8584 28.5536 58.2467Z" fill="white" stroke="#FF782C"/>
<path d="M12.8647 12.8647C16.1532 9.57627 20.2029 7.30285 24.6491 6.16693L24.8396 6.99249C20.492 8.03919 16.5545 10.263 13.4087 13.4087C10.263 16.5545 8.03916 20.492 6.99246 24.8396L6.1669 24.6491C7.30282 20.203 9.57624 16.1532 12.8647 12.8647Z" fill="white" stroke="#1B78D4"/>
<path d="M24.8405 55.0033L24.6491 55.8328C20.2029 54.6968 16.1532 52.4234 12.8647 49.1349C9.57624 45.8465 7.30282 41.7967 6.1669 37.3506L6.99247 37.1601C8.03854 41.5041 10.2666 45.4418 13.5554 48.4596C16.6899 51.5916 20.6175 53.9444 24.8405 55.0033Z" fill="white" stroke="#1B78D4"/>
<path d="M38.56 55.5381L38.2998 54.6923C46.5524 52.2061 52.9213 45.5673 55.0022 37.2976L55.8362 37.49C53.6966 46.0903 47.0456 52.8845 38.56 55.5381Z" fill="white" stroke="#1B78D4"/>
<path d="M37.1592 6.99643L37.3506 6.16693C41.7967 7.30285 45.8465 9.57627 49.135 12.8647C52.4234 16.1532 54.6968 20.203 55.8328 24.6491L55.0072 24.8396C53.9611 20.4956 51.7331 16.5579 48.4443 13.5401C45.3097 10.4081 41.3821 8.0553 37.1592 6.99643Z" fill="white" stroke="#1B78D4"/>
</svg>
