<?xml version="1.0" encoding="utf-8"?>
<svg width="105" height="96" viewBox="0 0 105 96" fill="none" xmlns="http://www.w3.org/2000/svg">
<mask id="mask0" mask-type="alpha" maskUnits="userSpaceOnUse" x="0" y="0" width="105" height="96">
<rect width="105" height="96" fill="#C4C4C4"/>
</mask>
<g mask="url(#mask0)">
<path d="M41.3927 63.0603C44.5823 63.2766 48.4681 63.4312 53.135 63.4554V51.5331H39.9835C40.0641 56.1579 40.5892 59.9482 41.3927 63.0603Z" fill="#1B78D4"/>
<path d="M55.7034 49.0234H68.8543C68.7731 44.3992 68.2486 40.6089 67.4452 37.4969C64.2556 37.2805 60.3704 37.126 55.7041 37.1017V49.0234H55.7034Z" fill="#1B78D4"/>
<path d="M42.1309 34.9279C45.1947 34.7407 48.843 34.6128 53.1349 34.591V23.4523C50.6378 23.9674 45.1754 26.0995 42.1309 34.9279Z" fill="#1B78D4"/>
<path d="M55.7022 23.4698V34.5915C59.9773 34.6134 63.6127 34.74 66.6684 34.9261C63.6121 26.2001 58.1739 24.0153 55.7022 23.4698Z" fill="#1B78D4"/>
<path d="M70.1624 62.853C76.701 62.2742 79.5366 61.4742 79.9495 61.3488C81.322 58.3252 82.1553 55.0155 82.3164 51.5331H71.4228C71.3502 55.9658 70.8884 59.7027 70.1624 62.853Z" fill="#1B78D4"/>
<path d="M69.468 35.1242C73.7171 35.4672 76.5887 35.9121 78.3908 36.2654C74.8974 30.5673 69.3409 26.2158 62.7285 24.2043C65.248 26.3001 67.7873 29.674 69.468 35.1242Z" fill="#1B78D4"/>
<path d="M71.4227 49.0236H82.3164C82.1552 45.5418 81.322 42.2321 79.9507 39.2097C79.5229 39.0819 76.6557 38.2879 70.1636 37.7097C70.8896 40.8582 71.3502 44.5939 71.4227 49.0236Z" fill="#1B78D4"/>
<path d="M39.9829 49.0234H53.135V37.1017C48.4501 37.126 44.5587 37.2793 41.3691 37.4944C40.5774 40.6065 40.0623 44.398 39.9829 49.0234Z" fill="#1B78D4"/>
<path d="M37.4151 51.5331H26.5214C26.6826 55.0155 27.5152 58.324 28.8877 61.3482C29.3037 61.4706 32.1703 62.2682 38.6748 62.8476C37.9488 59.6985 37.4882 55.9634 37.4151 51.5331Z" fill="#1B78D4"/>
<path d="M53.1349 77.0868V65.9657C48.8604 65.9445 45.2251 65.8178 42.1687 65.6312C45.2257 74.3571 50.6638 76.5419 53.1349 77.0868Z" fill="#1B78D4"/>
<path d="M39.3692 65.4329C35.1201 65.0905 32.2486 64.6445 30.447 64.2917C33.9404 69.9893 39.4963 74.3413 46.1087 76.3528C43.5898 74.2565 41.0499 70.8832 39.3692 65.4329Z" fill="#1B78D4"/>
<path d="M62.7285 76.3528C69.3409 74.3419 74.8974 69.9904 78.3908 64.2923C76.5905 64.6444 73.7183 65.0887 69.468 65.4329C67.7873 70.8832 65.2474 74.2577 62.7285 76.3528Z" fill="#1B78D4"/>
<path d="M38.676 37.7043C32.1381 38.2824 29.3018 39.083 28.8883 39.2085C27.5152 42.2315 26.6826 45.5411 26.5214 49.0235H37.4151C37.4882 44.5914 37.9495 40.8545 38.676 37.7043Z" fill="#1B78D4"/>
<path d="M55.7022 65.9663V77.1062C58.195 76.5929 63.661 74.4632 66.7062 65.6294C63.6431 65.8172 59.9947 65.9451 55.7022 65.9663Z" fill="#1B78D4"/>
<path d="M46.1087 24.2038C39.4963 26.2153 33.9404 30.5667 30.447 36.2648C32.2479 35.9121 35.1195 35.4679 39.3692 35.1242C41.0499 29.674 43.5904 26.2995 46.1087 24.2038Z" fill="#1B78D4"/>
<path d="M68.8549 51.5331H55.7022V63.4554C60.3877 63.4312 64.2785 63.2779 67.4681 63.0627C68.2604 59.9506 68.7756 56.1591 68.8549 51.5331Z" fill="#1B78D4"/>
<path d="M85.8843 43.351L95.0164 55.1573L105 44.0107L99.6277 43.8253C99.6037 27.2568 88.6902 12.1944 72.2553 6.92811C68.1917 5.62565 64.0345 5 59.9318 5C53.777 5 47.683 6.45063 42.1748 9.12938L47.3158 15.0421C54.3219 12.1389 62.3342 11.5982 69.8838 14.017C83.0751 18.2462 91.8729 30.2817 92.009 43.562L85.8843 43.351Z" fill="#FF782C"/>
<path d="M20.1157 53.9059L10.9836 42.0996L1 53.2462L6.37235 53.4316C6.3963 70.0001 17.3098 85.0625 33.7447 90.3288C37.8083 91.6312 41.9655 92.2569 46.0682 92.2569C52.223 92.2569 58.317 90.8063 63.8252 88.1275L58.6842 82.2148C51.6781 85.118 43.6658 85.6587 36.1162 83.2399C22.9249 79.0106 14.1271 66.9752 13.991 53.6949L20.1157 53.9059Z" fill="#FF782C"/>
</g>
</svg>
