<?xml version="1.0" encoding="utf-8"?>
<svg xmlns="http://www.w3.org/2000/svg" width="90" height="96" fill="none" viewBox="0 0 90 96">
    <path fill="#1B78D4" d="M22.43 0C10.102 0 0 10.102 0 22.43s10.102 22.43 22.43 22.43 22.43-10.102 22.43-22.43S34.929 0 22.43 0zm12.842 12.157l-3.425 3.424-2.397-2.397 3.596-3.596c.684.857 1.54 1.713 2.226 2.569zm-8.733 1.027s0-.171 0 0c0-.171 0-.171 0 0l.685-.856 5.48 5.479v.171l-.686.685-5.479-5.479zm3.253 4.452l-3.766 3.767-.172.17-2.397-2.396 3.938-3.938 2.397 2.397zM22.43 5.993c3.596 0 7.02 1.198 9.76 3.253l-3.425 3.424-.856-.856c-.342-.342-1.027-.342-1.37 0l-.685.685c-.342.343-.342 1.027 0 1.37l.856.856-3.938 3.938-9.588-9.76c2.568-1.883 5.822-2.91 9.246-2.91zm-.514 19.519c-.342.171-.685.342-1.198.342-.514 0-.856.343-1.199.514l-2.74 2.74c-.17.17-.684.17-.855 0-.172-.172-.172-.685 0-.857l2.74-2.74c.341-.342.513-.684.684-1.198 0-.342.171-.856.342-1.198l2.226 2.397zm.514 13.355c-2.226 0-4.28-.342-6.164-1.198.685-.172 1.37-.856 1.712-1.541 0-.172 0-.514-.171-.514s-.514 0-.514.171c-.342.685-.856 1.028-1.712 1.028-1.37 0-2.226-1.541-1.54-2.569l1.54-2.568 1.37 2.568c.171.171.342.343.685.171.171-.17.342-.342.171-.513l-1.541-2.74c-.171-.342-.342-.514-.685-.514-.171 0-.514.172-.685.514l-1.712 2.91c-.342.686-.514 1.37-.171 2.056-4.28-2.911-7.02-7.877-7.02-13.527 0-3.767 1.198-7.191 3.253-9.76l9.76 9.76c-.343.514-.514 1.027-.685 1.712 0 .343-.172.514-.343.685l-2.74 2.74c-.513.513-.684 1.54 0 2.054.514.685 1.542.685 2.227 0l2.739-2.74c.171-.17.514-.342.685-.342.514 0 1.198-.342 1.712-.684l9.589 9.588a16.305 16.305 0 0 1-9.76 3.253zm13.698-7.191l-9.589-9.588s.171 0 .171-.172l3.767-3.767.856.857c.343.342 1.028.342 1.37 0l.685-.685c.343-.343.343-1.028 0-1.37l-.856-.856 3.424-3.425c1.884 2.74 3.082 5.993 3.082 9.589-.17 3.595-1.198 6.849-2.91 9.417zM22.43 51.14C10.102 51.14 0 61.242 0 73.57S10.102 96 22.43 96s22.43-10.102 22.43-22.43c.171-12.328-9.931-22.43-22.43-22.43zm0 38.867c-9.075 0-16.437-7.362-16.437-16.437 0-3.596 1.198-7.02 3.253-9.76l8.561 8.561v11.301c0 2.74 2.226 4.794 4.794 4.794 2.74 0 4.794-2.226 4.794-4.794v-1.37l4.795 4.794c-2.74 1.713-5.993 2.911-9.76 2.911zm-3.253-6.506v-9.589l6.849 6.85V83.5a3.434 3.434 0 0 1-3.425 3.424h-.685c-1.54-.513-2.74-1.883-2.74-3.424zm16.95-.685l-8.56-8.732v-12.67h.342c.685 0 1.027-.514 1.027-1.028v-.342c0-.685-.513-1.028-1.027-1.028H17.636c-.685 0-1.028.514-1.028 1.028v.342c0 .685.514 1.027 1.028 1.027h.171v3.082l-4.452-4.451c2.569-1.884 5.822-2.911 9.246-2.911 9.075 0 16.437 7.362 16.437 16.437 0 3.425-1.198 6.678-2.91 9.246zM73.625 33.045h-7.02c-.685 0-1.37.685-1.37 1.37 0 .856.685 1.37 1.37 1.37h7.02c.685 0 1.37-.685 1.37-1.37s-.685-1.37-1.37-1.37z"/>
    <path fill="#FF782C" d="M63.865 47.77a8.78 8.78 0 0 0-5.821-2.225h-1.712c-.343 0-.685.342-.685.685v1.883c0 2.055.685 3.938 2.054 5.48 1.541 1.882 4.11 2.91 6.678 2.91h1.37l-2.911-2.91c-.342-.343-.342-.686 0-1.028.343-.343.685-.343 1.027 0l3.082 3.082c.514-2.397-.17-4.966-1.883-7.02-.514-.172-.856-.514-1.199-.856z"/>
    <path fill="#1B78D4" d="M67.29 22.43c-12.328 0-22.43 10.102-22.43 22.43s10.102 22.43 22.43 22.43 22.43-10.102 22.43-22.43-10.102-22.43-22.43-22.43zm0 38.867c-9.075 0-16.438-7.362-16.438-16.437 0-3.596 1.2-7.02 3.254-9.76l10.958 10.958c-.171 0-.343.172-.514.172.685.513 1.199 1.027 1.712 1.54 1.028 1.2 1.713 2.74 2.055 4.281.514-.685.856-1.198 1.027-2.055l1.028 1.028c-.343.685-.685 1.198-1.028 1.712l-.856 1.199c0 .513 0 1.198-.17 1.712l-.343 1.027h7.533l1.37 1.37c-2.568 2.055-5.993 3.253-9.588 3.253zm13.526-7.191L78.59 51.88c0-.171-.17-.343-.342-.685l-2.91-6.506c-1.37-1.199-3.083-1.37-4.624-.685l-1.027-1.028h.171c1.541-.856 3.082-.856 4.623-.342l-.856-1.883v-3.425h-7.02v2.74l-8.561-8.733c2.568-1.883 5.821-2.91 9.246-2.91 9.074 0 16.437 7.362 16.437 16.437 0 3.424-1.027 6.678-2.91 9.246z"/>
    <mask id="a" width="45" height="45" x="0" y="51" maskUnits="userSpaceOnUse">
        <path fill="#1B78D4" d="M22.43 51.14C10.102 51.14 0 61.242 0 73.57S10.102 96 22.43 96s22.43-10.102 22.43-22.43c.171-12.328-9.931-22.43-22.43-22.43zm0 38.867c-9.075 0-16.437-7.362-16.437-16.437 0-3.596 1.198-7.02 3.253-9.76l8.561 8.561v11.301c0 2.74 2.226 4.794 4.794 4.794 2.74 0 4.794-2.226 4.794-4.794v-1.37l4.795 4.794c-2.74 1.713-5.993 2.911-9.76 2.911zm-3.253-6.506v-9.589l6.849 6.85V83.5a3.434 3.434 0 0 1-3.425 3.424h-.685c-1.54-.513-2.74-1.883-2.74-3.424zm16.95-.685l-8.56-8.732v-12.67h.342c.685 0 1.027-.514 1.027-1.028v-.342c0-.685-.513-1.028-1.027-1.028H17.636c-.685 0-1.028.514-1.028 1.028v.342c0 .685.514 1.027 1.028 1.027h.171v3.082l-4.452-4.451c2.569-1.884 5.822-2.911 9.246-2.911 9.075 0 16.437 7.362 16.437 16.437 0 3.425-1.198 6.678-2.91 9.246z"/>
    </mask>
    <g fill="#FF782C" mask="url(#a)">
        <path d="M28.556 83.44L17.79 72.223l-3.14 8.524 1.345 6.729 8.075 1.346 4.486-2.243v-3.14zM29.902 76.71L17.79 64.598l-2.243-4.486 2.691-1.794 10.318.448c.748.599 2.243 1.885 2.243 2.243 0 .449 1.794 5.383 1.794 5.832 0 .359-1.794 6.73-2.691 9.87z"/>
    </g>
    <mask id="b" width="45" height="45" x="0" y="0" maskUnits="userSpaceOnUse">
        <path fill="#1B78D4" d="M22.43 0C10.102 0 0 10.102 0 22.43s10.102 22.43 22.43 22.43 22.43-10.102 22.43-22.43S34.929 0 22.43 0zm12.842 12.157l-3.425 3.424-2.397-2.397 3.596-3.596c.684.857 1.54 1.713 2.226 2.569zm-8.733 1.027s0-.171 0 0c0-.171 0-.171 0 0l.685-.856 5.48 5.479v.171l-.686.685-5.479-5.479zm3.253 4.452l-3.766 3.767-.172.17-2.397-2.396 3.938-3.938 2.397 2.397zM22.43 5.993c3.596 0 7.02 1.198 9.76 3.253l-3.425 3.424-.856-.856c-.342-.342-1.027-.342-1.37 0l-.685.685c-.342.343-.342 1.027 0 1.37l.856.856-3.938 3.938-9.588-9.76c2.568-1.883 5.822-2.91 9.246-2.91zm-.514 19.519c-.342.171-.685.342-1.198.342-.514 0-.856.343-1.199.514l-2.74 2.74c-.17.17-.684.17-.855 0-.172-.172-.172-.685 0-.857l2.74-2.74c.341-.342.513-.684.684-1.198 0-.342.171-.856.342-1.198l2.226 2.397zm.514 13.355c-2.226 0-4.28-.342-6.164-1.198.685-.172 1.37-.856 1.712-1.541 0-.172 0-.514-.171-.514s-.514 0-.514.171c-.342.685-.856 1.028-1.712 1.028-1.37 0-2.226-1.541-1.54-2.569l1.54-2.568 1.37 2.568c.171.171.342.343.685.171.171-.17.342-.342.171-.513l-1.541-2.74c-.171-.342-.342-.514-.685-.514-.171 0-.514.172-.685.514l-1.712 2.91c-.342.686-.514 1.37-.171 2.056-4.28-2.911-7.02-7.877-7.02-13.527 0-3.767 1.198-7.191 3.253-9.76l9.76 9.76c-.343.514-.514 1.027-.685 1.712 0 .343-.172.514-.343.685l-2.74 2.74c-.513.513-.684 1.54 0 2.054.514.685 1.542.685 2.227 0l2.739-2.74c.171-.17.514-.342.685-.342.514 0 1.198-.342 1.712-.684l9.589 9.588a16.305 16.305 0 0 1-9.76 3.253zm13.698-7.191l-9.589-9.588s.171 0 .171-.172l3.767-3.767.856.857c.343.342 1.028.342 1.37 0l.685-.685c.343-.343.343-1.028 0-1.37l-.856-.856 3.424-3.425c1.884 2.74 3.082 5.993 3.082 9.589-.17 3.595-1.198 6.849-2.91 9.417z"/>
    </mask>
    <g fill="#FF782C" mask="url(#b)">
        <path d="M28.262 23.776l-6.28-5.832 3.14-7.178c1.345-1.346 4.575-3.589 6.729-1.794 2.153 1.794 3.887 3.738 4.486 4.486l-.45 3.14-7.625 7.178zM22.43 26.019l-4.038-4.038-5.383 4.935c-.897 2.392-2.243 7.536-.448 8.972 1.794 1.435 3.14 1.794 3.588 1.794 1.795-.598 5.384-1.884 5.384-2.243s.598-6.43.897-9.42z"/>
    </g>
    <mask id="c" width="46" height="46" x="44" y="22" maskUnits="userSpaceOnUse">
        <path fill="#1B78D4" d="M73.625 33.046h-7.02c-.685 0-1.37.685-1.37 1.37 0 .856.685 1.37 1.37 1.37h7.02c.685 0 1.37-.686 1.37-1.37 0-.685-.685-1.37-1.37-1.37z"/>
        <path fill="#FF782C" d="M63.865 47.77a8.78 8.78 0 0 0-5.821-2.225h-1.712c-.343 0-.685.342-.685.685v1.883c0 2.055.685 3.938 2.054 5.48 1.541 1.882 4.11 2.91 6.678 2.91h1.37l-2.911-2.91c-.342-.343-.342-.686 0-1.028.343-.343.685-.343 1.027 0l3.082 3.082c.514-2.397-.17-4.966-1.883-7.02-.514-.172-.856-.514-1.199-.856z"/>
        <path fill="#1B78D4" d="M67.29 22.43c-12.328 0-22.43 10.102-22.43 22.43s10.102 22.43 22.43 22.43 22.43-10.102 22.43-22.43-10.102-22.43-22.43-22.43zm0 38.867c-9.075 0-16.438-7.362-16.438-16.437 0-3.596 1.2-7.02 3.254-9.76l10.958 10.958c-.171 0-.343.172-.514.172.685.513 1.199 1.027 1.712 1.54 1.028 1.2 1.713 2.74 2.055 4.281.514-.685.856-1.198 1.027-2.055l1.028 1.028c-.343.685-.685 1.198-1.028 1.712l-.856 1.199c0 .513 0 1.198-.17 1.712l-.343 1.027h7.533l1.37 1.37c-2.568 2.055-5.993 3.253-9.588 3.253zm13.526-7.191L78.59 51.88c0-.171-.17-.343-.342-.685l-2.91-6.506c-1.37-1.199-3.083-1.37-4.624-.685l-1.027-1.028h.171c1.541-.856 3.082-.856 4.623-.342l-.856-1.883v-3.425h-7.02v2.74l-8.561-8.733c2.568-1.883 5.821-2.91 9.246-2.91 9.074 0 16.437 7.362 16.437 16.437 0 3.424-1.027 6.678-2.91 9.246z"/>
    </mask>
    <g fill="#FF782C" mask="url(#c)">
        <path d="M63.005 43.963l13.674 13.906h-9.42l.448-6.729-4.702-7.177zM64.119 37.682L79.37 52.486l-1.346-7.178-.448-5.831-3.14-6.73-6.281-.896-4.486.448.449 5.383z"/>
    </g>
</svg>
