<?xml version="1.0" encoding="utf-8"?>
<svg xmlns="http://www.w3.org/2000/svg" width="58" height="47" fill="none" viewBox="0 0 58 47">
    <path fill="#FF782C" d="M17.729 4.513c.215 0 .537.107.645.322.967 1.934 1.074 3.868.43 5.91-.43 1.397-1.29 2.579-2.042 3.868 1.504 0 3.008.215 4.405.645 2.042.644 3.439 1.934 4.406 3.868.215.322 0 .752-.323.86-.107 0-.215.107-.322.107-.215 0-.537-.108-.645-.323-1.826-3.545-5.265-3.653-8.596-3.76-.752 1.182-1.611 2.256-2.041 3.438l3.976-2.041c.107 0 .215-.108.322-.108.215 0 .537.108.645.322.215.323 0 .753-.323.86L13.11 21.06C13 21.597 13 22.242 13 22.779l8.381-4.19c.108 0 .215-.108.323-.108.215 0 .537.107.644.322.215.323 0 .752-.322.86l-8.703 4.405c.107.215.215.538.322.86.215.322 0 .752-.322.86-.108 0-.215.107-.323.107-.215 0-.537-.107-.644-.322-.967-1.934-1.075-3.869-.43-5.91.645-1.72 1.719-3.331 2.793-4.943.86-1.29 1.72-2.471 2.364-3.76L12.894 13c-.108 0-.215.108-.322.108-.215 0-.538-.108-.645-.323-.215-.322 0-.752.322-.86l5.373-2.686a4.627 4.627 0 0 0 0-1.719l-8.381 4.19c-.108 0-.215.108-.323.108-.215 0-.537-.107-.644-.322-.215-.322 0-.752.322-.86l8.703-4.405c-.107-.215-.215-.537-.322-.752-.215-.323 0-.752.322-.86.215-.107.323-.107.43-.107zm-11.82 5.91c.216 0 .538.107.645.322 1.397 2.793 3.761 3.438 5.91 3.653.322 0 .645.322.645.752 0 .322-.323.645-.645.645h-.107c-2.364-.215-5.265-.967-6.985-4.406-.214-.322 0-.752.323-.86 0-.107.107-.107.215-.107zm11.82-6.985c-.322 0-.537.108-.752.215-.43.215-.752.537-.86.967a1.83 1.83 0 0 0 0 1.075L8.381 9.563c-.322.215-.645.43-.752.86 0 0 0-.108-.108-.108-.322-.645-.86-.967-1.611-.967-.323 0-.538.107-.752.215-.86.43-1.182 1.504-.753 2.364 1.934 3.868 5.48 4.727 7.844 4.942-.537.86-.86 1.612-1.182 2.579-.752 2.364-.645 4.513.537 6.77.323.644.86.966 1.612.966.323 0 .537-.107.752-.215.43-.215.752-.537.86-.967.107-.43.107-.752 0-1.181l7.736-3.869c.323-.215.645-.43.752-.86 0 0 .108.108.108.216.322.644.86.967 1.611.967.323 0 .538-.108.753-.215.43-.215.752-.537.86-.967.107-.43.107-.967-.108-1.29-1.075-2.149-2.794-3.653-5.05-4.405-.967-.322-1.934-.43-2.901-.537.43-.752.86-1.612 1.181-2.579.753-2.364.645-4.513-.537-6.77-.215-.751-.86-1.074-1.504-1.074zm-7.844 9.348l1.075-.537a1.49 1.49 0 0 0 0 .967c-.323-.215-.645-.322-1.075-.43zm3.868 1.29l.538-.323c-.108.215-.215.323-.323.537v.108c-.107-.215-.107-.322-.215-.322zm5.91 4.298a1.492 1.492 0 0 0 0-.967c.43.107.86.214 1.182.43l-1.182.537z"/>
    <path fill="#1B78D4" d="M15.365 0C6.877 0 0 6.877 0 15.365 0 23.854 6.877 30.73 15.365 30.73c8.489 0 15.365-6.876 15.365-15.365C30.838 6.877 23.854 0 15.365 0zm0 3.76c2.472 0 4.835.753 6.77 2.15L6.016 22.027c-1.29-1.934-2.149-4.19-2.149-6.77 0-6.231 5.158-11.496 11.497-11.496zm0 23.102c-2.471 0-4.835-.752-6.77-2.149L24.714 8.596c1.397 1.934 2.15 4.19 2.15 6.77.107 6.339-5.158 11.496-11.498 11.496z"/>
    <g fill="#FF782C" opacity=".8">
        <path d="M46.691 39.173a.406.406 0 0 1-.377-.377c0-.189.188-.377.377-.377s.377.188.377.377a.406.406 0 0 1-.377.377zM39.903 37.004a.406.406 0 0 1-.377-.377c0-.189.188-.377.377-.377.188 0 .377.188.377.377a.406.406 0 0 1-.377.377zM38.866 26.822c-.472-.471-1.226-.754-1.886-.754-.754 0-1.414.283-1.886.754-.47.471-.754 1.226-.754 1.886 0 .754.283 1.414.754 1.885l4.243 4.243 3.866-3.866-4.337-4.148zM49.708 24.37c-.471-.47-1.226-.754-1.886-.754-.754 0-1.414.283-1.885.755l-4.243 4.242 3.866 3.866 4.242-4.243c.472-.471.755-1.226.755-1.886 0-.66-.378-1.508-.849-1.98zM43.957 34.27c-.66 0-1.226-.566-1.226-1.226s.566-1.225 1.226-1.225 1.225.566 1.225 1.226-.565 1.225-1.225 1.225zM42.071 34.176c-.565 0-1.037.471-1.037 1.037s.472 1.131 1.037 1.131c.566 0 1.037-.47 1.037-1.13 0-.566-.471-1.038-1.037-1.038zM44.805 35.779c-.565 0-1.037.47-1.037 1.037 0 .565.472 1.037 1.037 1.037.566 0 1.038-.472 1.038-1.037 0-.566-.472-1.038-1.038-1.038zM42.071 37.099c-.565 0-1.037.471-1.037 1.037s.472 1.037 1.037 1.037c.566 0 1.037-.471 1.037-1.037s-.471-1.037-1.037-1.037z"/>
    </g>
    <path fill="#1B78D4" d="M42.636 15.887c-8.333 0-15.084 6.963-15.084 15.557C27.552 40.038 34.303 47 42.636 47c8.334 0 15.085-6.962 15.085-15.556.105-8.594-6.751-15.557-15.085-15.557zm0 3.808c2.426 0 4.747.761 6.646 2.175L33.459 38.189c-1.266-1.958-2.11-4.242-2.11-6.853 0-6.31 5.064-11.64 11.287-11.64zm0 23.389c-2.426 0-4.746-.762-6.645-2.176L51.814 24.59c1.37 1.958 2.11 4.243 2.11 6.854.105 6.418-4.959 11.64-11.288 11.64z"/>
</svg>
