<?xml version="1.0" encoding="utf-8"?>
<svg width="72" height="72" viewBox="0 0 72 72" fill="none" xmlns="http://www.w3.org/2000/svg">
<path d="M13.349 37.7586V50.3395C13.349 50.7799 13.5251 51.2023 13.8387 51.5137C14.1522 51.8251 14.5775 52 15.021 52C15.4644 52 15.8897 51.8251 16.2033 51.5137C16.5169 51.2023 16.693 50.7799 16.693 50.3395V39.2696H27.6559V50.3395C27.6559 50.7799 27.8321 51.2023 28.1457 51.5137C28.4592 51.8251 28.8845 52 29.328 52C29.7714 52 30.1967 51.8251 30.5103 51.5137C30.8238 51.2023 31 50.7799 31 50.3395V37.6091C31 37.1688 30.8238 36.7464 30.5103 36.435C30.1967 36.1236 29.7714 35.9487 29.328 35.9487H16.3809L13.3211 21.3862C13.2839 21.1658 13.2023 20.9551 13.0812 20.7667C12.96 20.5783 12.8018 20.4162 12.6161 20.29C12.4303 20.1638 12.2208 20.0762 12.0002 20.0323C11.7795 19.9884 11.5521 19.9893 11.3318 20.0347C11.1114 20.0802 10.9026 20.1694 10.7178 20.297C10.533 20.4245 10.376 20.5878 10.2563 20.7771C10.1365 20.9663 10.0565 21.1776 10.021 21.3983C9.98544 21.619 9.99514 21.8446 10.0495 22.0615L13.349 37.7586Z" fill="#1B78D4"/>
<path d="M60.6694 20.026C60.2441 19.9484 59.806 20.0462 59.4513 20.298C59.0966 20.5498 58.8543 20.9349 58.7775 21.3689L56.2277 35.9076H43.631C43.1984 35.9076 42.7836 36.0829 42.4777 36.3951C42.1718 36.7073 42 37.1308 42 37.5723V50.3353C42 50.7768 42.1718 51.2002 42.4777 51.5124C42.7836 51.8246 43.1984 52 43.631 52C44.0636 52 44.4784 51.8246 44.7843 51.5124C45.0901 51.2002 45.262 50.7768 45.262 50.3353V39.237H55.9613V50.3353C55.9613 50.7768 56.1331 51.2002 56.439 51.5124C56.7449 51.8246 57.1597 52 57.5923 52C58.0248 52 58.4397 51.8246 58.7456 51.5124C59.0514 51.2002 59.2233 50.7768 59.2233 50.3353V37.7166L61.9742 21.9571C62.0505 21.5246 61.9561 21.0788 61.7117 20.7171C61.4672 20.3553 61.0926 20.1069 60.6694 20.026Z" fill="#1B78D4"/>
<path d="M47.3389 29.3491C47.7794 29.3491 48.2019 29.1727 48.5135 28.8586C48.825 28.5446 49 28.1187 49 27.6745C49 27.2304 48.825 26.8045 48.5135 26.4905C48.2019 26.1764 47.7794 26 47.3389 26H25.6611C25.2206 26 24.7981 26.1764 24.4865 26.4905C24.175 26.8045 24 27.2304 24 27.6745C24 28.1187 24.175 28.5446 24.4865 28.8586C24.7981 29.1727 25.2206 29.3491 25.6611 29.3491H34.8416V50.3255C34.8416 50.7696 35.0167 51.1955 35.3282 51.5095C35.6397 51.8236 36.0622 52 36.5028 52C36.9433 52 37.3658 51.8236 37.6774 51.5095C37.9889 51.1955 38.1639 50.7696 38.1639 50.3255V29.3491H47.3389Z" fill="#FF782C"/>
</svg>
