<?xml version="1.0" encoding="utf-8"?>
<svg width="72" height="72" viewBox="0 0 72 72" fill="none" xmlns="http://www.w3.org/2000/svg">
<path fill-rule="evenodd" clip-rule="evenodd" d="M50.9546 13.0013C50.7316 13.0235 50.5156 13.1124 50.3416 13.2537C47.9296 15.1568 45.1974 17.0998 43.203 19.6352C41.3202 22.0287 40.1697 25.0637 40.8055 28.7928L36.6053 32.5964L29.3044 26.0887C29.7267 24.668 29.8686 23.0906 29.6469 21.564C29.3845 19.7571 28.5729 17.9749 26.997 16.7869C24.1165 14.6136 21.3765 13.4559 18.939 13.1816C18.5581 13.1387 18.1875 13.1076 17.8213 13.1095C15.8438 13.1194 14.1058 13.7743 12.882 15.0023C11.4316 16.4577 10.7885 18.6344 11.0613 21.0773C11.334 23.5202 12.4842 26.2826 14.6486 29.1713C15.8346 30.7511 17.6225 31.5569 19.4257 31.8213C20.9472 32.0443 22.4989 31.8992 23.9144 31.4788L30.0976 38.4732L19.1553 48.3879C17.893 49.5302 17.3274 51.0002 17.3887 52.3718C17.45 53.7434 18.0711 54.9795 18.9931 55.905C19.9149 56.8305 21.1559 57.4661 22.5263 57.5274C23.8963 57.5888 25.3724 57.01 26.5103 55.7428L36.0104 45.1611L45.835 56.2836C47.0029 57.6038 48.6039 58.1337 50.0532 57.9781C51.5024 57.8225 52.8119 57.0819 53.8208 56.0673C54.8299 55.0526 55.5605 53.7324 55.7137 52.2816C55.8668 50.831 55.3342 49.251 54.0191 48.0814L42.5721 37.8963L46.0333 34.0386C49.7499 34.6749 52.7882 33.5117 55.1728 31.623C57.7 29.6213 59.6216 26.8688 61.5182 24.4483C61.7833 24.1182 61.8443 23.6367 61.6699 23.2509C61.4956 22.8651 61.094 22.5928 60.671 22.5735C60.2996 22.5549 59.9237 22.729 59.6976 23.0242C57.7525 25.5064 55.886 28.1131 53.7307 29.8203C51.5753 31.5275 49.2573 32.4025 45.871 31.641C45.4704 31.5506 45.0257 31.6941 44.7534 32.0015L40.8415 36.364L38.3538 34.1287L42.8425 30.0546C43.1377 29.7818 43.273 29.3472 43.185 28.955C42.4254 25.5541 43.3041 23.2225 45.0057 21.0593C46.7074 18.8961 49.3102 17.0262 51.7838 15.0744C52.1692 14.7824 52.3356 14.2324 52.1768 13.7757C52.0179 13.3191 51.5461 12.9911 51.0627 13.0013C51.0269 12.9996 50.9906 12.9996 50.9546 13.0013ZM17.8394 15.4169C18.1111 15.4172 18.3893 15.4375 18.6866 15.4709C20.5895 15.6851 22.9778 16.6403 25.6089 18.6256C26.6055 19.3767 27.178 20.5279 27.3756 21.8885C27.5732 23.249 27.3629 24.7783 26.8888 26.0166C26.7191 26.4515 26.8467 26.9856 27.1952 27.2965C35.9714 35.1224 43.2197 41.5457 52.4868 49.7939C53.3 50.5171 53.4914 51.2408 53.4062 52.0473C53.321 52.8537 52.8687 53.7527 52.1804 54.4449C51.492 55.137 50.6002 55.6028 49.8009 55.6887C49.0017 55.7745 48.2896 55.5695 47.5656 54.7513C40.1832 46.3961 31.8863 37.0111 25.1402 29.3876C24.8336 29.0332 24.2987 28.8976 23.8603 29.0631C22.6272 29.5359 21.1051 29.7485 19.7502 29.5499C18.3957 29.3513 17.2395 28.7844 16.4874 27.7832C14.5105 25.1446 13.564 22.7364 13.3507 20.8249C13.1372 18.9131 13.6316 17.5366 14.5224 16.6427C15.2741 15.8885 16.3721 15.4152 17.8394 15.4169ZM31.6299 40.2037L34.4781 43.4305L24.7977 54.2105C24.0552 55.0378 23.3402 55.2516 22.6345 55.22C21.9288 55.1883 21.1919 54.8431 20.6335 54.2826C20.0751 53.722 19.728 52.976 19.6961 52.2636C19.6644 51.5511 19.8828 50.8449 20.7056 50.1004L31.6299 40.2037Z" fill="#1B78D4"/>
<path fill-rule="evenodd" clip-rule="evenodd" d="M54.5991 16.6119C54.2994 16.6213 54.0152 16.7469 53.8066 16.9622L45.979 24.8168C45.8702 24.9237 45.7837 25.0511 45.7244 25.1917C45.6651 25.3322 45.6343 25.4831 45.6338 25.6357C45.6332 25.7882 45.6629 25.9393 45.7212 26.0803C45.7794 26.2213 45.8651 26.3493 45.9731 26.457C46.0811 26.5647 46.2095 26.6499 46.3507 26.7076C46.4918 26.7654 46.6431 26.7946 46.7956 26.7935C46.9482 26.7925 47.099 26.7611 47.2393 26.7014C47.3797 26.6417 47.5068 26.5547 47.6133 26.4455L55.4409 18.5909C55.6073 18.4285 55.7208 18.2197 55.7664 17.9918C55.8121 17.7638 55.7879 17.5274 55.6969 17.3135C55.6059 17.0995 55.4524 16.9181 55.2565 16.7929C55.0606 16.6677 54.8314 16.6046 54.5991 16.6119Z" fill="#FF782C"/>
<path fill-rule="evenodd" clip-rule="evenodd" d="M56.9637 19.0255C56.664 19.0349 56.3798 19.1606 56.1712 19.3759L48.3434 27.2305C48.234 27.3373 48.147 27.4647 48.0873 27.6054C48.0275 27.7462 47.9964 27.8973 47.9956 28.0502C47.9948 28.203 48.0244 28.3545 48.0827 28.4958C48.1409 28.6371 48.2267 28.7655 48.335 28.8733C48.4432 28.9812 48.5719 29.0665 48.7134 29.1243C48.8549 29.182 49.0065 29.2111 49.1593 29.2098C49.3122 29.2084 49.4632 29.1767 49.6037 29.1165C49.7442 29.0563 49.8714 28.9688 49.9777 28.8591L57.8055 21.0044C57.9719 20.8421 58.0854 20.6333 58.131 20.4053C58.1767 20.1774 58.1525 19.9409 58.0615 19.727C57.9705 19.5131 57.817 19.3316 57.6211 19.2064C57.4252 19.0813 57.196 19.0182 56.9637 19.0255Z" fill="#FF782C"/>
</svg>
