<?xml version="1.0" encoding="utf-8"?>
<svg xmlns="http://www.w3.org/2000/svg" width="82" height="78" fill="none" viewBox="0 0 82 78">
    <path fill="#FF782C" d="M74 23.27C68.136 19.064 61.25 19 60.75 19H47.325c-6.68 5.197-5.389 13.076-4.305 16.578l-5.795 8.44c-.236.52-.409 1.271.136 1.997l2.219 2.111c.293.227.913.554 1.546.024l.237-.245c.655-.799.117-1.477-.012-1.616l-1.582-1.514 5.528-8.095c1.056.015 2.072.037 3.062.067l-5.6 8.199c-.163.389-.258.924.086 1.416l2.505 2.294c.34.23.998.53 1.605-.017l.194-.205c.55-.69.222-1.302.025-1.561l-1.624-1.486 5.794-8.484-.064-.042c1.131.06 2.216.134 3.25.232l-5.34 7.82c-.182.378-.35 1.004.148 1.527l2.526 2.311c.337.236.919.467 1.508-.126.711-.716.363-1.48.176-1.781l-1.59-1.456 5.427-7.945c.053.007.11.057.162.066C58.83 34.286 63.34 25.312 74 23.27zM60 65.846A6.68 6.68 0 0 1 60.137 68c2.137-.549 5.436-1.602 8.863-3.485-.15-1.157-.524-1.974-.886-2.515-2.291 2.384-5.434 3.492-8.114 3.846z"/>
    <path fill="#1B78D4" d="M4.638 25.852c.478 1.761 1.366 3.231 2.659 4.39 2.737 2.452 6.493 2.883 8.16 2.883.378 0 .648.159.775.159h6.215c3.183 1.972 7.357 3.694 12.815 3.716l3.33-.123c.872.003 1.724.092 2.562.094-1.148-3.537-2.672-11.188 2.846-17.503H14.32c-.974 0-1.027.624-.936 1.035.04.122.082.2.127.33.01.02.018.012.018.012l-.006.07c.403 1.138.973 2.5 1.76 4.08h-3.327l-.125-.179c-.031.003-2.408.09-4.697-.834a11.3 11.3 0 0 1-.101-1.49c0-2.199.66-3.871 1.964-5.114 2.535-2.415 6.74-2.25 6.827-2.25h12.221c.778 0 5.27.47 8.423-2.218 1.629-1.389 2.6-3.346 2.903-5.721.002-.3-.058-1.663-1.334-1.663-.824 0-1.223.46-1.414.862-.154 1.914-.82 3.348-1.987 4.35-2.406 2.06-6.272 1.568-6.306 1.564l-.098.062H15.873c-.223 0-5.413-.211-8.82 3.019-1.735 1.646-2.67 3.812-2.806 6.487-.946-1.231-1.434-2.885-1.434-4.9 0-2.2.661-3.873 1.965-5.114 2.533-2.416 6.738-2.254 6.827-2.254h12.22c.78 0 5.27.47 8.423-2.218 1.707-1.455 2.69-3.53 2.94-6.064C35.15.993 34.941 0 33.812 0c-.944 0-1.292.563-1.416.912-.162 1.888-.826 3.309-1.982 4.3-2.406 2.062-6.272 1.57-6.306 1.565l-.098.06H11.653c-.223 0-5.413-.21-8.819 3.02C.954 11.641 0 14.037 0 17.02c0 3.29 1.035 5.888 3.077 7.715.493.442 1.02.802 1.56 1.118zm24.32-2.97c1.45 0 2.626 1.154 2.626 2.576 0 1.422-1.175 2.576-2.625 2.576s-2.625-1.153-2.625-2.576 1.175-2.576 2.625-2.576zm-17.72 4.727c.378 0 .648.147.775.147h4.96c.655.79 1.407 1.58 2.262 2.764h-3.058l-.125-.18c-.04.003-4.259.19-6.871-2.162a6.004 6.004 0 0 1-.814-.94c1.162.235 2.19.371 2.87.371z"/>
    <path fill="#FF782C" d="M70.266 49.852c.134 1.213.183 2.53.144 3.967-.062 2.36-.588 4.295-1.41 5.876.602.673 1.303 1.74 1.704 3.305C75.217 59.849 79.49 55.019 81 47.699c-4.075-2.054-9.028.958-10.734 2.153zM60 38.406c2.966.74 5.317 1.883 7.054 3.65 1.302 1.325 2.231 2.95 2.813 4.944 2.564-1.55 7.416-3.79 11.986-2.043.095-.954.147-1.944.147-2.974 0-7.555-2.375-12.606-5.55-15.983C65.934 26.803 61.4 35.091 60 38.406zM41.583 69.358c-.047.032-.082.06-.123.091-3.258 1.679-4.734 4.293-5.404 6.434-.133.643-.212 2.166 2.019 2.116 9.867-.988 15.26-5.532 17.371-7.79l-.001-.002c.01-.009.017-.017.028-.025.64-.69.972-1.16 1.028-1.24l.122-.176c.825-1.645.066-3.168-.12-3.497-5.624-7.213-13.666-8.925-18.351-9.269-2.801 0-2.02 2.057-2.02 2.057l-.028-.03c1.268 4.163 3.657 6.529 5.124 7.648l-.038.016s.083.04.21.115c.208.152.392.277.549.376.783.633 1.639 1.816-.366 3.176z"/>
</svg>
