<?xml version="1.0" encoding="utf-8"?>
<svg width="72" height="72" viewBox="0 0 72 72" fill="none" xmlns="http://www.w3.org/2000/svg">
<path d="M58 31H14C13.448 31 13 31.448 13 32V60C13 60.553 13.448 61 14 61H58C58.553 61 59 60.553 59 60V32C59 31.448 58.553 31 58 31ZM43 59V51H44C44.553 51 45 50.553 45 50C45 49.447 44.553 49 44 49H43V41H51V59H43ZM57 59H53V40C53 39.447 52.553 39 52 39H42C41.447 39 41 39.447 41 40V59H15V33H57V59Z" fill="#1B78D4"/>
<path d="M60.98 21.804L58.98 11.804C58.887 11.336 58.477 11 58 11H14C13.523 11 13.113 11.336 13.02 11.804L11.02 21.804C11.006 21.869 11 21.934 11 22C11 24.757 13.243 27 16 27C17.634 27 19.087 26.212 20 24.997C20.913 26.212 22.366 27 24 27C25.634 27 27.087 26.212 28 24.997C28.913 26.212 30.366 27 32 27C33.634 27 35.087 26.212 36 24.997C36.913 26.212 38.366 27 40 27C41.634 27 43.087 26.212 44 24.997C44.913 26.212 46.366 27 48 27C49.634 27 51.087 26.212 52 24.997C52.913 26.212 54.366 27 56 27C58.757 27 61 24.757 61 22C61 21.934 60.993 21.869 60.98 21.804ZM56 25C54.346 25 53 23.654 53 22C53 21.448 52.553 21 52 21C51.447 21 51 21.448 51 22C51 23.654 49.654 25 48 25C46.346 25 45 23.654 45 22C45 21.448 44.553 21 44 21C43.447 21 43 21.448 43 22C43 23.654 41.654 25 40 25C38.346 25 37 23.654 37 22C37 21.448 36.552 21 36 21C35.448 21 35 21.448 35 22C35 23.654 33.654 25 32 25C30.346 25 29 23.654 29 22C29 21.448 28.552 21 28 21C27.448 21 27 21.448 27 22C27 23.654 25.654 25 24 25C22.346 25 21 23.654 21 22C21 21.448 20.552 21 20 21C19.448 21 19 21.448 19 22C19 23.654 17.654 25 16 25C14.376 25 13.05 23.704 13.001 22.092L14.82 13H57.181L58.999 22.092C58.95 23.704 57.623 25 56 25Z" fill="#FF782C"/>
<path d="M20 53H36C36.552 53 37 52.553 37 52V40C37 39.447 36.552 39 36 39H20C19.448 39 19 39.447 19 40V52C19 52.553 19.448 53 20 53ZM21 41H35V51H21V41Z" fill="#FF782C"/>
</svg>
