<?xml version="1.0" encoding="utf-8"?>
<svg xmlns="http://www.w3.org/2000/svg" width="62" height="44" fill="none" viewBox="0 0 62 44">
    <path fill="#1B78D4" d="M1.657 36.462l1.398-1.105 54.075-.86 2.535 2.579v3.437l-2.535 1.72H3.055c-.676 0-1.398-2.702-1.398-3.561v-2.21z"/>
    <mask id="a" fill="#fff">
        <path d="M56.547 33.344v-3.266c0-.515-.516-1.031-1.031-1.031h-1.203v-7.219c0-1.89-1.204-3.61-3.094-4.125l-3.438-1.031v-1.547c.688-.516 1.032-1.375 1.032-2.406V9.453h1.203c.515 0 1.03-.515 1.03-1.031 0-.516-.515-1.031-1.03-1.031 0-3.094-2.235-5.844-5.328-6.188v-.172C44.688.516 44.172 0 43.656 0c-.515 0-1.031.516-1.031 1.031v.172c-3.094.516-5.328 3.094-5.328 6.188-.516 0-1.031.515-1.031 1.03 0 .517.515 1.032 1.03 1.032H38.5v3.266c0 .86.344 1.719 1.031 2.406v1.547l-3.437 1.031C34.375 18.22 33 19.938 33 21.828v11.516h-1.203v-5.328c0-.516-.516-1.032-1.031-1.032H28.53v-5.156c0-1.89-1.203-3.61-3.093-4.125L22 16.672v-1.547c.688-.516 1.031-1.375 1.031-2.406V9.453h1.547c.516 0 1.031-.515 1.031-1.031 0-.516-.515-1.031-1.03-1.031 0-3.094-2.235-5.844-5.329-6.188v-.172C19.25.516 18.734 0 18.219 0c-.516 0-1.032.516-1.032 1.031v.172c-3.093.516-5.328 3.094-5.328 6.188-.515 0-1.03.515-1.03 1.03 0 .517.515 1.032 1.03 1.032h1.204v3.266c0 .86.343 1.719 1.03 2.406v1.547l-3.437 1.031c-1.719.516-3.094 2.235-3.094 4.125v11.516H5.329C2.406 33.344 0 35.75 0 38.672S2.406 44 5.328 44h51.219c2.922 0 5.328-2.406 5.328-5.328s-2.406-5.328-5.328-5.328zm-2.063 0H43.656v-2.235h10.828v2.235zm-14.953 0v-9.625h8.594v5.328h-5.328c-.516 0-1.031.515-1.031 1.031v3.266H39.53zm2.063-16.672a3.317 3.317 0 0 0 1.718.515h.86c.687 0 1.203-.171 1.719-.515v1.375c-.172.172-.86.515-2.235.515-1.203 0-2.062-.343-2.234-.515l.172-1.375zm-1.032 4.984v-2.062c.688.515 1.891.86 3.266.86s2.578-.345 3.266-.86v2.062h-6.532zm11.86.172v7.219h-2.234v-5.328c0-.86-.516-1.375-1.032-1.89V19.25l1.719.516c.86.172 1.547 1.203 1.547 2.062zM48.125 7.734h-3.266V3.438a4.434 4.434 0 0 1 3.266 4.296zm-8.594 0a4.434 4.434 0 0 1 3.266-4.296v4.296H39.53zm7.563 2.063v3.265a.945.945 0 0 1-.516.86l-1.719 1.203c-.172.172-.343.172-.687.172h-.86c-.171 0-.515 0-.687-.172l-1.719-1.203a.945.945 0 0 1-.515-.86V9.797h6.703zm-11.86 12.031c0-1.031.688-1.89 1.547-2.062l1.719-.516v2.578c-.688.344-1.031 1.031-1.031 1.89v9.626h-2.235V21.828zm-5.156 11.516H19.25v-4.469h10.828v4.469zm-16.156 0v-9.625h8.594v3.265h-4.297c-.516 0-1.032.516-1.032 1.032v5.328h-3.265zm2.062-16.672a3.317 3.317 0 0 0 1.72.515h.858c.688 0 1.204-.171 1.72-.515v1.375c-.173.172-.86.515-2.235.515-1.203 0-2.063-.343-2.235-.515l.172-1.375zm-1.03 4.984v-2.062c.687.515 1.89.86 3.265.86 1.375 0 2.578-.345 3.265-.86v2.062h-6.53zm11.858.172v5.156h-2.234V23.72c0-.86-.515-1.375-1.031-1.89V19.25l1.719.516c.859.172 1.547 1.203 1.547 2.062zM22.517 7.734H19.25V3.438a4.434 4.434 0 0 1 3.266 4.296zm-8.594 0a4.434 4.434 0 0 1 3.265-4.296v4.296h-3.265zm7.562 2.063v3.265a.945.945 0 0 1-.515.86l-1.719 1.203c-.172.172-.344.172-.688.172h-.859c-.172 0-.515 0-.687-.172l-1.72-1.203a.945.945 0 0 1-.515-.86V9.797h6.703zM9.625 21.828c0-1.031.688-1.89 1.547-2.062l1.719-.516v2.578c-.688.344-1.032 1.031-1.032 1.89v9.626H9.625V21.828zm46.922 20.11H5.328c-1.719 0-3.266-1.547-3.266-3.266s1.547-3.266 3.266-3.266h51.219c1.719 0 3.266 1.547 3.266 3.266s-1.376 3.266-3.266 3.266z"/>
    </mask>
    <path fill="#fff" stroke="#1B78D4" stroke-width="2" d="M56.547 33.344v-3.266c0-.515-.516-1.031-1.031-1.031h-1.203v-7.219c0-1.89-1.204-3.61-3.094-4.125l-3.438-1.031v-1.547c.688-.516 1.032-1.375 1.032-2.406V9.453h1.203c.515 0 1.03-.515 1.03-1.031 0-.516-.515-1.031-1.03-1.031 0-3.094-2.235-5.844-5.328-6.188v-.172C44.688.516 44.172 0 43.656 0c-.515 0-1.031.516-1.031 1.031v.172c-3.094.516-5.328 3.094-5.328 6.188-.516 0-1.031.515-1.031 1.03 0 .517.515 1.032 1.03 1.032H38.5v3.266c0 .86.344 1.719 1.031 2.406v1.547l-3.437 1.031C34.375 18.22 33 19.938 33 21.828v11.516h-1.203v-5.328c0-.516-.516-1.032-1.031-1.032H28.53v-5.156c0-1.89-1.203-3.61-3.093-4.125L22 16.672v-1.547c.688-.516 1.031-1.375 1.031-2.406V9.453h1.547c.516 0 1.031-.515 1.031-1.031 0-.516-.515-1.031-1.03-1.031 0-3.094-2.235-5.844-5.329-6.188v-.172C19.25.516 18.734 0 18.219 0c-.516 0-1.032.516-1.032 1.031v.172c-3.093.516-5.328 3.094-5.328 6.188-.515 0-1.03.515-1.03 1.03 0 .517.515 1.032 1.03 1.032h1.204v3.266c0 .86.343 1.719 1.03 2.406v1.547l-3.437 1.031c-1.719.516-3.094 2.235-3.094 4.125v11.516H5.329C2.406 33.344 0 35.75 0 38.672S2.406 44 5.328 44h51.219c2.922 0 5.328-2.406 5.328-5.328s-2.406-5.328-5.328-5.328zm-2.063 0H43.656v-2.235h10.828v2.235zm-14.953 0v-9.625h8.594v5.328h-5.328c-.516 0-1.031.515-1.031 1.031v3.266H39.53zm2.063-16.672a3.317 3.317 0 0 0 1.718.515h.86c.687 0 1.203-.171 1.719-.515v1.375c-.172.172-.86.515-2.235.515-1.203 0-2.062-.343-2.234-.515l.172-1.375zm-1.032 4.984v-2.062c.688.515 1.891.86 3.266.86s2.578-.345 3.266-.86v2.062h-6.532zm11.86.172v7.219h-2.234v-5.328c0-.86-.516-1.375-1.032-1.89V19.25l1.719.516c.86.172 1.547 1.203 1.547 2.062zM48.125 7.734h-3.266V3.438a4.434 4.434 0 0 1 3.266 4.296zm-8.594 0a4.434 4.434 0 0 1 3.266-4.296v4.296H39.53zm7.563 2.063v3.265a.945.945 0 0 1-.516.86l-1.719 1.203c-.172.172-.343.172-.687.172h-.86c-.171 0-.515 0-.687-.172l-1.719-1.203a.945.945 0 0 1-.515-.86V9.797h6.703zm-11.86 12.031c0-1.031.688-1.89 1.547-2.062l1.719-.516v2.578c-.688.344-1.031 1.031-1.031 1.89v9.626h-2.235V21.828zm-5.156 11.516H19.25v-4.469h10.828v4.469zm-16.156 0v-9.625h8.594v3.265h-4.297c-.516 0-1.032.516-1.032 1.032v5.328h-3.265zm2.062-16.672a3.317 3.317 0 0 0 1.72.515h.858c.688 0 1.204-.171 1.72-.515v1.375c-.173.172-.86.515-2.235.515-1.203 0-2.063-.343-2.235-.515l.172-1.375zm-1.03 4.984v-2.062c.687.515 1.89.86 3.265.86 1.375 0 2.578-.345 3.265-.86v2.062h-6.53zm11.858.172v5.156h-2.234V23.72c0-.86-.515-1.375-1.031-1.89V19.25l1.719.516c.859.172 1.547 1.203 1.547 2.062zM22.517 7.734H19.25V3.438a4.434 4.434 0 0 1 3.266 4.296zm-8.594 0a4.434 4.434 0 0 1 3.265-4.296v4.296h-3.265zm7.562 2.063v3.265a.945.945 0 0 1-.515.86l-1.719 1.203c-.172.172-.344.172-.688.172h-.859c-.172 0-.515 0-.687-.172l-1.72-1.203a.945.945 0 0 1-.515-.86V9.797h6.703zM9.625 21.828c0-1.031.688-1.89 1.547-2.062l1.719-.516v2.578c-.688.344-1.032 1.031-1.032 1.89v9.626H9.625V21.828zm46.922 20.11H5.328c-1.719 0-3.266-1.547-3.266-3.266s1.547-3.266 3.266-3.266h51.219c1.719 0 3.266 1.547 3.266 3.266s-1.376 3.266-3.266 3.266z" mask="url(#a)"/>
    <mask id="b" fill="#fff">
        <path fill-rule="evenodd" d="M47.659 17.789l-.663-.2v.697l.663-.497zm-7.348.235l.056-.45-.468.141.412.31zm-6.041 2.844a2.95 2.95 0 0 0-.165.96v12.473h.025V21.828c0-.33.048-.653.14-.96zm2.511-1.102c-.86.172-1.547 1.03-1.547 2.062v11.516h2.235v-9.625c0-.86.343-1.547 1.031-1.89V19.25l-1.719.516zm2.677 2.819l-.059.029h.059v-.03zm8.74.029h.181l-.004-.005-.176-.176v.18zm2.677-2.848l-1.719-.516v2.578c.516.516 1.032 1.031 1.032 1.89v5.329h2.234v-7.219c0-.86-.688-1.89-1.547-2.062zM22 17.826l-.614-.185v.645l.614-.46zm-7.298.198l.05-.396-.413.124.363.272zm7.887 4.41v.18h.181l-.004-.005-.177-.176zm-11.417-2.668c-.86.172-1.547 1.03-1.547 2.062v11.516h2.234v-9.625c0-.86.344-1.547 1.032-1.89V19.25l-1.72.516zm2.676 2.819l-.058.029h.058v-.03zm11.418-2.82l-1.72-.515v2.578c.517.516 1.032 1.031 1.032 1.89v3.266h2.235v-5.156c0-.86-.688-1.89-1.547-2.062zM22.88 4.95c-.689-1.328-1.922-2.318-3.41-2.597l.07.02a5.537 5.537 0 0 1 3.34 2.577zm-8.736-.832a5.194 5.194 0 0 1 1.424-1.189c-.54.314-1.021.717-1.424 1.189zm1.152 9.805l1.719 1.203c.172.172.515.172.687.172h.86c.343 0 .515 0 .687-.172l1.719-1.203a.945.945 0 0 0 .515-.86V9.797h-6.703v3.265c0 .344.172.688.516.86zm25.34 1.503l.039-.316-.04-.027v.343zm.27-1.503l1.718 1.203c.172.172.516.172.688.172h.859c.344 0 .516 0 .687-.172l1.72-1.203a.945.945 0 0 0 .515-.86V9.797H40.39v3.265c0 .344.172.688.515.86zm1.866-11.623c-2.56.442-4.371 2.566-4.371 5.092v.957h.024v-.614a5.54 5.54 0 0 1 4.08-5.362l.267-.073zm-28.68 14.373l-3.437 1.031c-1.719.516-3.094 2.235-3.094 4.125v11.516H5.329C2.406 33.344 0 35.75 0 38.672S2.406 44 5.328 44h51.219c2.922 0 5.328-2.406 5.328-5.328s-2.406-5.328-5.328-5.328v-3.266c0-.515-.516-1.031-1.031-1.031h-1.203v-7.219c0-1.89-1.204-3.61-3.094-4.125l-3.438-1.031v-1.547c.688-.516 1.032-1.375 1.032-2.406V9.453h1.203c.515 0 1.03-.515 1.03-1.031 0-.516-.515-1.031-1.03-1.031 0-3.094-2.235-5.844-5.328-6.188v-.172C44.688.516 44.172 0 43.656 0c-.515 0-1.031.516-1.031 1.031v.172c-3.094.516-5.328 3.094-5.328 6.188-.516 0-1.031.515-1.031 1.03 0 .517.515 1.032 1.03 1.032H38.5v3.266c0 .86.344 1.719 1.031 2.406v1.547l-3.437 1.031C34.375 18.22 33 19.938 33 21.828v11.516h-1.203v-5.328c0-.516-.516-1.032-1.031-1.032H28.53v-5.156c0-1.89-1.203-3.61-3.093-4.125L22 16.672v-1.547c.688-.516 1.031-1.375 1.031-2.406V9.453h1.547c.516 0 1.031-.515 1.031-1.031 0-.516-.515-1.031-1.03-1.031 0-3.094-2.235-5.844-5.329-6.188v-.172C19.25.516 18.734 0 18.219 0c-.516 0-1.032.516-1.032 1.031v.172c-3.093.516-5.328 3.094-5.328 6.188-.515 0-1.03.515-1.03 1.03 0 .517.515 1.032 1.03 1.032h1.204v3.266c0 .86.343 1.719 1.03 2.406v1.547zm27.5 0l-.171 1.375c.172.172 1.031.515 2.234.515 1.375 0 2.063-.343 2.235-.515v-1.375c-.35.233-.701.388-1.105.462-.191.036-.394.053-.614.053h-.86c-.2 0-.427-.026-.66-.078a3.207 3.207 0 0 1-1.058-.437zm-1.03 2.922c.286.215.663.4 1.104.543.617.2 1.36.316 2.161.316.801 0 1.544-.117 2.16-.316a3.803 3.803 0 0 0 1.106-.543v2.062h-6.532v-2.062zm7.426-12.965a4.43 4.43 0 0 0-3.13-3.191v4.296h3.266c0-.382-.047-.752-.136-1.105zm-5.192 1.105H39.53a4.43 4.43 0 0 1 3.266-4.297v4.297zm-26.813 8.938l-.171 1.375c.171.172 1.03.515 2.234.515 1.375 0 2.062-.343 2.234-.515v-1.375c-.35.233-.7.388-1.105.462-.19.036-.393.053-.613.053h-.86c-.2 0-.427-.026-.66-.078a3.206 3.206 0 0 1-1.059-.437zm.074 3.465c.616.2 1.36.316 2.16.316.802 0 1.545-.117 2.162-.316a3.804 3.804 0 0 0 1.104-.543v2.062h-6.53v-2.062c.286.215.663.4 1.104.543zM22.38 6.629c.088.353.136.723.136 1.105H19.25V3.438a4.423 4.423 0 0 1 3.13 3.191zm-5.192 1.105h-3.266a4.43 4.43 0 0 1 3.266-4.297v4.297zm37.296 25.61v-2.235H43.656v2.235h10.828zm-14.953 0h2.235v-3.266c0-.515.515-1.031 1.03-1.031h5.329v-5.328h-8.594v9.625zm-9.453 0v-4.469H19.25v4.469h10.828zm-16.156 0h3.265v-5.328c0-.516.516-1.032 1.032-1.032h4.297V23.72h-8.594v9.625zm-8.594 8.593h51.219c1.89 0 3.266-1.546 3.266-3.265s-1.547-3.266-3.266-3.266H5.328c-1.719 0-3.266 1.547-3.266 3.266s1.547 3.266 3.266 3.266z" clip-rule="evenodd"/>
    </mask>
    <path fill="#1B78D4" fill-rule="evenodd" stroke="#1B78D4" stroke-width="2" d="M47.659 17.789l-.663-.2v.697l.663-.497zm-7.348.235l.056-.45-.468.141.412.31zm-6.041 2.844a2.95 2.95 0 0 0-.165.96v12.473h.025V21.828c0-.33.048-.653.14-.96zm2.511-1.102c-.86.172-1.547 1.03-1.547 2.062v11.516h2.235v-9.625c0-.86.343-1.547 1.031-1.89V19.25l-1.719.516zm2.677 2.819l-.059.029h.059v-.03zm8.74.029h.181l-.004-.005-.176-.176v.18zm2.677-2.848l-1.719-.516v2.578c.516.516 1.032 1.031 1.032 1.89v5.329h2.234v-7.219c0-.86-.688-1.89-1.547-2.062zM22 17.826l-.614-.185v.645l.614-.46zm-7.298.198l.05-.396-.413.124.363.272zm7.887 4.41v.18h.181l-.004-.005-.177-.176zm-11.417-2.668c-.86.172-1.547 1.03-1.547 2.062v11.516h2.234v-9.625c0-.86.344-1.547 1.032-1.89V19.25l-1.72.516zm2.676 2.819l-.058.029h.058v-.03zm11.418-2.82l-1.72-.515v2.578c.517.516 1.032 1.031 1.032 1.89v3.266h2.235v-5.156c0-.86-.688-1.89-1.547-2.062zM22.88 4.95c-.689-1.328-1.922-2.318-3.41-2.597l.07.02a5.537 5.537 0 0 1 3.34 2.577zm-8.736-.832a5.194 5.194 0 0 1 1.424-1.189c-.54.314-1.021.717-1.424 1.189zm1.152 9.805l1.719 1.203c.172.172.515.172.687.172h.86c.343 0 .515 0 .687-.172l1.719-1.203a.945.945 0 0 0 .515-.86V9.797h-6.703v3.265c0 .344.172.688.516.86zm25.34 1.503l.039-.316-.04-.027v.343zm.27-1.503l1.718 1.203c.172.172.516.172.688.172h.859c.344 0 .516 0 .687-.172l1.72-1.203a.945.945 0 0 0 .515-.86V9.797H40.39v3.265c0 .344.172.688.515.86zm1.866-11.623c-2.56.442-4.371 2.566-4.371 5.092v.957h.024v-.614a5.54 5.54 0 0 1 4.08-5.362l.267-.073zm-28.68 14.373l-3.437 1.031c-1.719.516-3.094 2.235-3.094 4.125v11.516H5.329C2.406 33.344 0 35.75 0 38.672S2.406 44 5.328 44h51.219c2.922 0 5.328-2.406 5.328-5.328s-2.406-5.328-5.328-5.328v-3.266c0-.515-.516-1.031-1.031-1.031h-1.203v-7.219c0-1.89-1.204-3.61-3.094-4.125l-3.438-1.031v-1.547c.688-.516 1.032-1.375 1.032-2.406V9.453h1.203c.515 0 1.03-.515 1.03-1.031 0-.516-.515-1.031-1.03-1.031 0-3.094-2.235-5.844-5.328-6.188v-.172C44.688.516 44.172 0 43.656 0c-.515 0-1.031.516-1.031 1.031v.172c-3.094.516-5.328 3.094-5.328 6.188-.516 0-1.031.515-1.031 1.03 0 .517.515 1.032 1.03 1.032H38.5v3.266c0 .86.344 1.719 1.031 2.406v1.547l-3.437 1.031C34.375 18.22 33 19.938 33 21.828v11.516h-1.203v-5.328c0-.516-.516-1.032-1.031-1.032H28.53v-5.156c0-1.89-1.203-3.61-3.093-4.125L22 16.672v-1.547c.688-.516 1.031-1.375 1.031-2.406V9.453h1.547c.516 0 1.031-.515 1.031-1.031 0-.516-.515-1.031-1.03-1.031 0-3.094-2.235-5.844-5.329-6.188v-.172C19.25.516 18.734 0 18.219 0c-.516 0-1.032.516-1.032 1.031v.172c-3.093.516-5.328 3.094-5.328 6.188-.515 0-1.03.515-1.03 1.03 0 .517.515 1.032 1.03 1.032h1.204v3.266c0 .86.343 1.719 1.03 2.406v1.547zm27.5 0l-.171 1.375c.172.172 1.031.515 2.234.515 1.375 0 2.063-.343 2.235-.515v-1.375c-.35.233-.701.388-1.105.462-.191.036-.394.053-.614.053h-.86c-.2 0-.427-.026-.66-.078a3.207 3.207 0 0 1-1.058-.437zm-1.03 2.922c.286.215.663.4 1.104.543.617.2 1.36.316 2.161.316.801 0 1.544-.117 2.16-.316a3.803 3.803 0 0 0 1.106-.543v2.062h-6.532v-2.062zm7.426-12.965a4.43 4.43 0 0 0-3.13-3.191v4.296h3.266c0-.382-.047-.752-.136-1.105zm-5.192 1.105H39.53a4.43 4.43 0 0 1 3.266-4.297v4.297zm-26.813 8.938l-.171 1.375c.171.172 1.03.515 2.234.515 1.375 0 2.062-.343 2.234-.515v-1.375c-.35.233-.7.388-1.105.462-.19.036-.393.053-.613.053h-.86c-.2 0-.427-.026-.66-.078a3.206 3.206 0 0 1-1.059-.437zm.074 3.465c.616.2 1.36.316 2.16.316.802 0 1.545-.117 2.162-.316a3.804 3.804 0 0 0 1.104-.543v2.062h-6.53v-2.062c.286.215.663.4 1.104.543zM22.38 6.629c.088.353.136.723.136 1.105H19.25V3.438a4.423 4.423 0 0 1 3.13 3.191zm-5.192 1.105h-3.266a4.43 4.43 0 0 1 3.266-4.297v4.297zm37.296 25.61v-2.235H43.656v2.235h10.828zm-14.953 0h2.235v-3.266c0-.515.515-1.031 1.03-1.031h5.329v-5.328h-8.594v9.625zm-9.453 0v-4.469H19.25v4.469h10.828zm-16.156 0h3.265v-5.328c0-.516.516-1.032 1.032-1.032h4.297V23.72h-8.594v9.625zm-8.594 8.593h51.219c1.89 0 3.266-1.546 3.266-3.265s-1.547-3.266-3.266-3.266H5.328c-1.719 0-3.266 1.547-3.266 3.266s1.547 3.266 3.266 3.266z" clip-rule="evenodd" mask="url(#b)"/>
    <path fill="#1B78D4" d="M9.599 21.377c-.037-1.768 2.326-2.52 4.151-2.52v2.694c-1.503.522-1.253 1.826-1.253 2.29v9.505H9.6c.024-2.85.057-9.233 0-11.969zM26.802 21.377c.033-1.768-2.087-2.52-3.725-2.52v2.694c1.348.522 1.124 1.826 1.124 2.29v9.505h2.6c-.02-2.85-.05-9.233 0-11.969z"/>
    <path fill="#fff" d="M30.938 36.781c-1.032 0-1.891.86-1.891 1.89 0 1.032.86 1.891 1.89 1.891 1.032 0 1.891-.859 1.891-1.89s-.687-1.89-1.89-1.89zM24.578 36.781c-1.031 0-1.89.86-1.89 1.89 0 1.032.859 1.891 1.89 1.891s1.89-.859 1.89-1.89-.859-1.89-1.89-1.89zM18.219 36.781c-1.032 0-1.89.86-1.89 1.89 0 1.032.858 1.891 1.89 1.891 1.031 0 1.89-.859 1.89-1.89s-.859-1.89-1.89-1.89zM5.328 36.781c-1.031 0-1.89.86-1.89 1.89 0 1.032.859 1.891 1.89 1.891s1.89-.859 1.89-1.89-.687-1.89-1.89-1.89zM11.86 36.781c-1.032 0-1.891.86-1.891 1.89 0 1.032.86 1.891 1.89 1.891 1.032 0 1.891-.859 1.891-1.89s-.86-1.89-1.89-1.89zM56.547 36.781c-1.031 0-1.89.86-1.89 1.89 0 1.032.859 1.891 1.89 1.891s1.89-.859 1.89-1.89-.687-1.89-1.89-1.89zM50.188 36.781c-1.032 0-1.891.86-1.891 1.89 0 1.032.86 1.891 1.89 1.891 1.032 0 1.891-.859 1.891-1.89s-.86-1.89-1.89-1.89zM37.469 36.781c-1.032 0-1.89.86-1.89 1.89 0 1.032.858 1.891 1.89 1.891 1.031 0 1.89-.859 1.89-1.89s-.859-1.89-1.89-1.89zM43.828 36.781c-1.031 0-1.89.86-1.89 1.89 0 1.032.859 1.891 1.89 1.891s1.89-.859 1.89-1.89-.859-1.89-1.89-1.89zM14.037 15.072c-.505-.438-.8-1.221-.884-1.558l-6.371 6.893.18 12.969 10.207.002v-5.432c0-.088.02-.395.348-.728.26-.267.68-.306.857-.293 4.12-.002 12.364-.005 12.38 0 .021.007.287-.047.668.252.381.3.387.729.387.858v5.34h9.693c.002-1.482.006-4.57 0-5.065-.008-.62.116-.891.441-1.17.326-.279.821-.23 1.123-.23H54.39l2.807-1.617-2.807-8.098-1.047-2.781h-3.425l-2.093.658c-.466.39-1.506 1.25-1.935 1.58-.429.329-1.127.5-1.422.543h-1.609l-1.259-.544-2.158-1.579-9.25-.658-8.11.658a155.09 155.09 0 0 0-1.831 1.58c-.716.631-2.38.82-3.728.336-1.347-.484-1.853-1.368-2.485-1.916z"/>
    <path fill="#1B78D4" d="M24.627 27.82H11.368v5.525h13.26v-5.524z"/>
    <path fill="#1B78D4" fill-rule="evenodd" d="M26.91 19.645l-1.178-.663v14.363h3.315v-9.623c0-1.849-.774-3.318-2.136-4.077zM10.263 18.982l-1.141.661c-1.4.85-2.173 2.268-2.173 4.111V33.346h3.314V18.982zM13.578 16.772v10.083h8.84v-9.977l-4.44 3.255-4.4-3.361zM22.956 27.122h1.671v-8.71l-1.671-1.32v10.03zM13.04 27.122h-1.672v-8.71l1.672-1.32v10.03z" clip-rule="evenodd"/>
    <path fill="#1B78D4" d="M50.507 27.82h-13.26v5.525h13.26v-5.524z"/>
    <path fill="#1B78D4" fill-rule="evenodd" d="M52.79 19.645l-1.178-.663v14.363h3.314v-9.623c0-1.849-.773-3.318-2.136-4.077zM36.143 18.982L35 19.643c-1.4.85-2.173 2.268-2.173 4.111V33.346h3.315V18.982zM39.458 16.772v10.083h8.839v-9.977l-4.439 3.255-4.4-3.361zM48.835 27.122h1.672v-8.71l-1.672-1.32v10.03zM38.92 27.122h-1.672v-8.71l1.671-1.32v10.03z" clip-rule="evenodd"/>
    <path fill="#FF782C" d="M17.164 28.03c0-.61.495-1.106 1.105-1.106h12.446c.61 0 1.105.495 1.105 1.105v5.36H17.164v-5.36zM41.513 28.03c0-.61.495-1.106 1.105-1.106h13.05c.61 0 1.105.495 1.105 1.105v5.36h-15.26v-5.36z"/>
</svg>
