<?xml version="1.0" encoding="utf-8"?>
<svg width="96" height="96" viewBox="0 0 96 96" fill="none" xmlns="http://www.w3.org/2000/svg">
<path d="M45.5197 34.268H12.9373V37.1393L20.6038 44.7959H6.70833L0.958496 51.017V78.2939H9.58325V96H48.8738V78.2939H57.9777V51.9741L51.7487 44.7959H37.8533L45.5197 37.1393V34.268Z" fill="#1B78D4"/>
<path d="M14.8537 21.3474L16.7703 10.8194L19.6452 8.42673L40.728 8.90527L42.6446 11.7765L44.082 20.8688L53.1859 29.0041L46.957 30.9182L42.6446 30.4397L34.9781 29.0041L30.1866 30.9182L25.3951 30.4397L18.6869 29.4826L12.458 31.3968L4.7915 29.4826L6.22896 27.5684L14.8537 21.3474Z" fill="#FF782C"/>
<path d="M7.60286 31.458C8.65881 31.8798 9.92596 32.3017 12.2491 32.3017C14.5722 32.3017 15.8393 31.8798 16.8952 31.458C17.9512 31.0361 18.796 30.6143 20.6967 30.6143C22.5974 30.6143 23.4422 31.0361 24.4981 31.458C25.5541 31.8798 26.8212 32.3017 29.1443 32.3017C31.4674 32.3017 32.7345 31.8798 33.7905 31.458C34.8464 31.0361 35.6912 30.6143 37.5919 30.6143C39.4926 30.6143 40.3374 31.0361 41.3934 31.458C42.4493 31.8798 43.7165 32.3017 46.0396 32.3017C48.3626 32.3017 49.6298 31.8798 50.6857 31.458C51.7417 31.0361 52.5865 30.6143 54.4872 30.6143H58.2886L44.9836 20.4901L44.35 16.4826L43.0829 9.1003L40.1262 6.99109H18.1624L15.2057 9.1003L13.305 20.4901L0 30.6143H3.80143C5.70215 30.8252 6.54691 31.0361 7.60286 31.458ZM42.6605 20.0682H24.7093C24.7093 19.8573 24.7093 19.6464 24.7093 19.4355C24.7093 19.2245 24.7093 19.2245 24.7093 19.0136H42.4493L42.6605 20.0682ZM17.5288 10.7877L19.0072 9.73307H39.4926L40.971 10.7877L42.0269 16.6935H23.6533C22.8086 15.6389 21.9638 15.0061 21.7526 15.0061L21.1191 14.5843L20.4855 15.0061C20.2743 15.217 19.4295 15.8498 18.5848 16.6935H16.8952L17.5288 10.7877ZM22.175 19.4355C22.175 20.0682 21.5414 20.9119 20.9079 21.3338C20.2743 20.701 19.6407 20.0682 19.6407 19.4355C19.6407 18.8027 20.2743 17.959 20.9079 17.5372C21.5414 18.1699 22.175 18.8027 22.175 19.4355ZM16.0505 19.2245H17.1064C17.1064 19.4355 17.1064 19.4355 17.1064 19.6464C17.1064 19.8573 17.1064 20.0682 17.1064 20.2791H15.8393L16.0505 19.2245ZM14.7833 22.8102H18.3736C18.796 23.232 19.2183 23.6539 19.4295 23.8648V24.0757C19.4295 24.4976 19.2183 24.7085 18.796 24.7085C18.3736 24.7085 18.1624 24.4976 18.1624 24.0757V23.443H15.6281V24.0757C15.6281 25.7631 17.1064 27.2396 18.796 27.2396C19.4295 27.2396 20.2743 27.0286 20.6967 26.6068C21.3303 27.0286 21.9638 27.2396 22.5974 27.2396C24.2869 27.2396 25.7653 25.7631 25.7653 24.0757V23.443H23.231V24.0757C23.231 24.4976 23.0198 24.7085 22.5974 24.7085C22.175 24.7085 21.9638 24.4976 21.9638 24.0757V23.8648C22.3862 23.6539 22.5974 23.232 23.0198 22.8102H43.2941L51.1081 28.716C50.4746 28.9269 50.0522 29.1379 49.6298 29.1379C48.5738 29.5597 47.7291 29.9815 45.8284 29.9815C43.9276 29.9815 43.0829 29.5597 42.0269 29.1379C40.971 28.716 39.7038 28.2942 37.3807 28.2942C35.0576 28.2942 33.7905 28.716 32.7345 29.1379C31.6786 29.5597 30.8338 29.9815 28.9331 29.9815C27.0324 29.9815 26.1876 29.5597 25.1317 29.1379C24.0757 28.716 22.8086 28.2942 20.4855 28.2942C18.1624 28.2942 16.8952 28.716 15.8393 29.1379C14.7833 29.5597 13.9386 29.9815 12.0379 29.9815C10.1371 29.9815 9.29239 29.5597 8.23643 29.1379C7.81405 28.9269 7.39167 28.716 6.7581 28.716L14.7833 22.8102Z" fill="#FF782C"/>
<mask id="mask0" mask-type="alpha" maskUnits="userSpaceOnUse" x="0" y="6" width="59" height="27">
<path d="M7.60286 31.458C8.65881 31.8798 9.92596 32.3017 12.2491 32.3017C14.5722 32.3017 15.8393 31.8798 16.8952 31.458C17.9512 31.0361 18.796 30.6143 20.6967 30.6143C22.5974 30.6143 23.4422 31.0361 24.4981 31.458C25.5541 31.8798 26.8212 32.3017 29.1443 32.3017C31.4674 32.3017 32.7345 31.8798 33.7905 31.458C34.8464 31.0361 35.6912 30.6143 37.5919 30.6143C39.4926 30.6143 40.3374 31.0361 41.3934 31.458C42.4493 31.8798 43.7165 32.3017 46.0396 32.3017C48.3626 32.3017 49.6298 31.8798 50.6857 31.458C51.7417 31.0361 52.5865 30.6143 54.4872 30.6143H58.2886L44.9836 20.4901L44.35 16.4826L43.0829 9.1003L40.1262 6.99109H18.1624L15.2057 9.1003L13.305 20.4901L0 30.6143H3.80143C5.70215 30.8252 6.54691 31.0361 7.60286 31.458ZM42.6605 20.0682H24.7093C24.7093 19.8573 24.7093 19.6464 24.7093 19.4355C24.7093 19.2245 24.7093 19.2245 24.7093 19.0136H42.4493L42.6605 20.0682ZM17.5288 10.7877L19.0072 9.73307H39.4926L40.971 10.7877L42.0269 16.6935H23.6533C22.8086 15.6389 21.9638 15.0061 21.7526 15.0061L21.1191 14.5843L20.4855 15.0061C20.2743 15.217 19.4295 15.8498 18.5848 16.6935H16.8952L17.5288 10.7877ZM22.175 19.4355C22.175 20.0682 21.5414 20.9119 20.9079 21.3338C20.2743 20.701 19.6407 20.0682 19.6407 19.4355C19.6407 18.8027 20.2743 17.959 20.9079 17.5372C21.5414 18.1699 22.175 18.8027 22.175 19.4355ZM16.0505 19.2245H17.1064C17.1064 19.4355 17.1064 19.4355 17.1064 19.6464C17.1064 19.8573 17.1064 20.0682 17.1064 20.2791H15.8393L16.0505 19.2245ZM14.7833 22.8102H18.3736C18.796 23.232 19.2183 23.6539 19.4295 23.8648V24.0757C19.4295 24.4976 19.2183 24.7085 18.796 24.7085C18.3736 24.7085 18.1624 24.4976 18.1624 24.0757V23.443H15.6281V24.0757C15.6281 25.7631 17.1064 27.2396 18.796 27.2396C19.4295 27.2396 20.2743 27.0286 20.6967 26.6068C21.3303 27.0286 21.9638 27.2396 22.5974 27.2396C24.2869 27.2396 25.7653 25.7631 25.7653 24.0757V23.443H23.231V24.0757C23.231 24.4976 23.0198 24.7085 22.5974 24.7085C22.175 24.7085 21.9638 24.4976 21.9638 24.0757V23.8648C22.3862 23.6539 22.5974 23.232 23.0198 22.8102H43.2941L51.1081 28.716C50.4746 28.9269 50.0522 29.1379 49.6298 29.1379C48.5738 29.5597 47.7291 29.9815 45.8284 29.9815C43.9276 29.9815 43.0829 29.5597 42.0269 29.1379C40.971 28.716 39.7038 28.2942 37.3807 28.2942C35.0576 28.2942 33.7905 28.716 32.7345 29.1379C31.6786 29.5597 30.8338 29.9815 28.9331 29.9815C27.0324 29.9815 26.1876 29.5597 25.1317 29.1379C24.0757 28.716 22.8086 28.2942 20.4855 28.2942C18.1624 28.2942 16.8952 28.716 15.8393 29.1379C14.7833 29.5597 13.9386 29.9815 12.0379 29.9815C10.1371 29.9815 9.29239 29.5597 8.23643 29.1379C7.81405 28.9269 7.39167 28.716 6.7581 28.716L14.7833 22.8102Z" fill="url(#paint0_linear)"/>
</mask>
<g mask="url(#mask0)">
<path d="M17.2496 22.783V16.5619L19.1662 13.6907L22.0411 14.1692L41.6864 16.5619V22.783L42.1655 26.6113L16.7704 28.0469L13.8955 23.7401L17.2496 22.783Z" fill="white"/>
</g>
<path d="M13.5161 72.1659H26.8211V56.3467H13.5161V72.1659ZM16.0504 58.8778H24.0756V60.5652H16.0504V58.8778ZM16.0504 63.3072H18.7959V66.6819H21.3302V63.3072H24.0756V69.4239H16.0504V63.3072Z" fill="#010101"/>
<path d="M76.0286 31.4583C76.0286 28.9272 74.7614 26.818 72.8607 25.5525C74.7614 24.2869 76.0286 22.1777 76.0286 19.6467C76.0286 16.061 73.4943 13.1081 70.1152 12.4753V7.2023H62.5124V80.603C61.8788 80.1812 61.034 79.9702 60.1893 79.9702C59.3445 79.9702 58.4998 80.1812 57.8662 80.603H55.3319V93.2583H48.9962V78.2829H57.655V51.4958L51.5305 44.7463H38.0143L45.6171 37.1532V34.6221H43.0828V36.0986L34.424 44.7463H24.2869L15.4169 36.0986V34.6221H12.8826V37.1532L20.4855 44.7463H6.96925L0.844727 51.4958V78.2829H9.50354V93.2583H3.37901V80.603H0.844727V96.0003H57.655V89.4617C58.2886 89.8835 59.1333 90.0945 59.9781 90.0945C60.6117 90.0945 61.2452 89.8836 61.8788 89.6726V96.0003H70.7488V87.9853H70.1152V85.876C73.4943 85.2433 76.0286 82.2904 76.0286 78.7047C76.0286 76.1737 74.7614 74.0644 72.8607 72.7989C74.7614 71.5334 76.0286 69.4242 76.0286 66.8931C76.0286 64.362 74.7614 62.2528 72.8607 60.9873C74.7614 59.7218 76.0286 57.6126 76.0286 55.0815C76.0286 52.5504 74.7614 50.4412 72.8607 49.1757C74.7614 47.9102 76.0286 45.8009 76.0286 43.2699C76.0286 40.7388 74.7614 38.6296 72.8607 37.3641C74.7614 36.0986 76.0286 33.9893 76.0286 31.4583ZM55.1207 75.7518H48.9962V70.9006H55.1207V75.7518ZM40.3374 47.2774L36.3247 51.2849L32.3121 47.2774H40.3374ZM26.1876 47.2774L22.175 51.2849L18.1624 47.2774H26.1876ZM9.71473 75.7518H3.5902V70.9006H9.71473V75.7518ZM27.8771 93.2583H12.249V49.5975H9.71473V68.3695H3.5902V52.5504L8.2364 47.4883H14.5721L22.175 55.0815L27.8771 49.3866V93.2583ZM46.2507 49.5975V93.2583H30.6226V49.1757L36.3247 55.0815L43.9276 47.4883H50.2633L54.9095 52.5504V68.3695H48.9962V49.5975H46.2507ZM59.9781 87.3525C58.7109 87.3525 57.655 86.2979 57.655 85.0324C57.655 83.7668 58.7109 82.7122 59.9781 82.7122C61.2452 82.7122 62.3012 83.7668 62.3012 85.0324C62.3012 86.2979 61.4564 87.3525 59.9781 87.3525ZM65.0467 9.73336H67.3698V87.9853H65.0467V9.73336ZM68.0033 93.2583H64.4131V90.5163H68.0033V93.2583ZM70.1152 15.2173C72.016 15.8501 73.4943 17.5375 73.4943 19.6467C73.4943 21.7559 72.016 23.4433 70.1152 24.076V15.2173ZM73.2831 78.7047C73.2831 80.8139 71.8048 82.5013 69.904 83.1341V74.2754C72.016 74.9081 73.2831 76.5955 73.2831 78.7047ZM73.2831 66.8931C73.2831 69.0023 71.8048 70.6897 69.904 71.3225V62.4637C72.016 63.0965 73.2831 64.7839 73.2831 66.8931ZM73.2831 55.0815C73.2831 57.1907 71.8048 58.8781 69.904 59.5108V50.6521C72.016 51.2849 73.2831 52.9723 73.2831 55.0815ZM73.2831 43.2699C73.2831 45.3791 71.8048 47.0665 69.904 47.6992V38.8405C72.016 39.4733 73.2831 41.1607 73.2831 43.2699ZM70.1152 35.8876V27.0289C72.016 27.6617 73.4943 29.3491 73.4943 31.4583C73.2831 33.5675 72.016 35.2549 70.1152 35.8876Z" fill="#1B78D4"/>
<path d="M58.7109 84.8211C58.7109 85.52 59.2791 86.0866 59.9781 86.0866C60.677 86.0866 61.2452 85.52 61.2452 84.8211C61.2452 84.1221 60.677 83.5555 59.9781 83.5555C59.2791 83.5555 58.7109 84.1221 58.7109 84.8211Z" fill="#FF782C"/>
<path d="M38.6495 11.4205H35.9008C35.2019 11.4205 34.6353 11.9871 34.6353 12.686C34.6353 13.3849 35.2018 13.9515 35.9008 13.9515H38.6495C39.3484 13.9515 39.915 13.3849 39.915 12.686C39.915 11.9871 39.3484 11.4205 38.6495 11.4205Z" fill="white"/>
<path d="M30.1997 12.686C30.1997 13.3849 30.7679 13.9515 31.4668 13.9515C32.1658 13.9515 32.734 13.3849 32.734 12.686C32.734 11.9871 32.1658 11.4205 31.4668 11.4205C30.7679 11.4205 30.1997 11.9871 30.1997 12.686Z" fill="white"/>
<path d="M25.9766 12.686C25.9766 13.3849 26.5448 13.9515 27.2437 13.9515C27.9426 13.9515 28.5108 13.3849 28.5108 12.686C28.5108 11.9871 27.9426 11.4205 27.2437 11.4205C26.5448 11.4205 25.9766 11.9871 25.9766 12.686Z" fill="white"/>
<rect x="62.2896" y="6.99109" width="7.66645" height="89.0089" fill="#1B78D4"/>
<rect x="14.917" y="57.3024" width="10.4163" height="13.2704" fill="#FF782C" stroke="white" stroke-width="3"/>
<rect x="13.4165" y="60.5878" width="13.4163" height="2.87125" fill="white"/>
<rect x="22.041" y="61.5449" width="4.78542" height="3.83322" transform="rotate(90 22.041 61.5449)" fill="white"/>
<rect x="34.0825" y="57.3024" width="10.4163" height="13.2704" fill="#FF782C" stroke="white" stroke-width="3"/>
<rect x="32.5825" y="60.5878" width="13.4163" height="2.87125" fill="white"/>
<rect x="41.207" y="61.5449" width="4.78542" height="3.83322" transform="rotate(90 41.207 61.5449)" fill="white"/>
<path d="M22.5203 52.0244L15.333 44.3174H44.0822L36.8949 52.5382L31.1451 45.8588V93.1287H28.2701V45.8588L22.5203 52.0244Z" fill="white"/>
<defs>
<linearGradient id="paint0_linear" x1="4.5774" y1="6.99109" x2="4.5774" y2="32.3017" gradientUnits="userSpaceOnUse">
<stop stop-color="#ADCDE6"/>
<stop offset="1" stop-color="white"/>
</linearGradient>
</defs>
</svg>
