<?xml version="1.0" encoding="utf-8"?>
<svg width="72" height="72" viewBox="0 0 72 72" fill="none" xmlns="http://www.w3.org/2000/svg">
<path d="M4.95648 50.5232L6.34258 49.4272L59.9812 48.5747L62.4955 51.132V54.5417L59.9812 56.2466H6.34258C5.67209 56.2466 4.95648 53.5676 4.95648 52.7151V50.5232Z" fill="#1B78D4"/>
<mask id="path-2-inside-1" fill="white">
<path d="M59.4024 47.4298V44.1905C59.4024 43.6791 58.8909 43.1676 58.3795 43.1676H57.1861V36.0072C57.1861 34.1319 55.9927 32.427 54.1173 31.9155L50.7076 30.8926V29.3582C51.3896 28.8468 51.7305 27.9944 51.7305 26.9714V23.7322H52.9239C53.4354 23.7322 53.9468 23.2207 53.9468 22.7093C53.9468 22.1978 53.4354 21.6864 52.9239 21.6864C52.9239 18.6176 50.7076 15.8899 47.6389 15.5489V15.3784C47.6389 14.8669 47.1274 14.3555 46.6159 14.3555C46.1045 14.3555 45.593 14.8669 45.593 15.3784V15.5489C42.5243 16.0603 40.308 18.6176 40.308 21.6864C39.7965 21.6864 39.285 22.1978 39.285 22.7093C39.285 23.2207 39.7965 23.7322 40.308 23.7322H41.5014V26.9714C41.5014 27.8239 41.8423 28.6763 42.5243 29.3582V30.8926L39.1146 31.9155C37.4097 32.427 36.0458 34.1319 36.0458 36.0072V47.4298H34.8524V42.1447C34.8524 41.6332 34.341 41.1218 33.8295 41.1218H31.6132V36.0072C31.6132 34.1319 30.4198 32.427 28.5444 31.9155L25.1347 30.8926V29.3582C25.8167 28.8468 26.1576 27.9944 26.1576 26.9714V23.7322H27.692C28.2035 23.7322 28.7149 23.2207 28.7149 22.7093C28.7149 22.1978 28.2035 21.6864 27.692 21.6864C27.692 18.6176 25.4757 15.8899 22.4069 15.5489V15.3784C22.4069 14.8669 21.8955 14.3555 21.384 14.3555C20.8726 14.3555 20.3611 14.8669 20.3611 15.3784V15.5489C17.2924 16.0603 15.076 18.6176 15.076 21.6864C14.5646 21.6864 14.0531 22.1978 14.0531 22.7093C14.0531 23.2207 14.5646 23.7322 15.076 23.7322H16.2694V26.9714C16.2694 27.8239 16.6104 28.6763 17.2924 29.3582V30.8926L13.8826 31.9155C12.1778 32.427 10.8139 34.1319 10.8139 36.0072V47.4298H8.59757C5.6993 47.4298 3.3125 49.8166 3.3125 52.7148C3.3125 55.6131 5.6993 57.9999 8.59757 57.9999H59.4024C62.3007 57.9999 64.6875 55.6131 64.6875 52.7148C64.6875 49.8166 62.3007 47.4298 59.4024 47.4298ZM57.3566 47.4298H46.6159V45.2134H57.3566V47.4298ZM42.5243 47.4298V37.8825H51.0486V43.1676H45.7635C45.2521 43.1676 44.7406 43.6791 44.7406 44.1905V47.4298H42.5243ZM44.5701 30.8926C45.0816 31.2336 45.7635 31.4041 46.275 31.4041H47.1274C47.8093 31.4041 48.3208 31.2336 48.8323 30.8926V31.9155V32.2565C48.6618 32.427 47.9798 32.768 46.6159 32.768C45.4225 32.768 44.5701 32.427 44.3996 32.2565L44.5701 30.8926ZM43.5472 35.8367V33.7909C44.2291 34.3023 45.4225 34.6433 46.7864 34.6433C48.1503 34.6433 49.3437 34.3023 50.0257 33.7909V35.8367H43.5472ZM55.3107 36.0072V43.1676H53.0944V37.8825C53.0944 37.0301 52.583 36.5187 52.0715 36.0072V33.4499L53.7764 33.9614C54.6288 34.1318 55.3107 35.1548 55.3107 36.0072ZM51.0486 22.0273H47.8093V17.7652C49.6847 18.2766 51.0486 19.9815 51.0486 22.0273ZM42.5243 22.0273C42.5243 19.9815 43.8882 18.2766 45.7635 17.7652V22.0273H42.5243ZM50.0257 24.0732V27.3124C50.0257 27.6534 49.8552 27.9944 49.5142 28.1648L47.8093 29.3582C47.6389 29.5287 47.4684 29.5287 47.1274 29.5287H46.275C46.1045 29.5287 45.7635 29.5287 45.593 29.3582L43.8882 28.1648C43.5472 27.9944 43.3767 27.6534 43.3767 27.3124V24.0732H50.0257ZM38.2621 36.0072C38.2621 34.9843 38.9441 34.1318 39.7965 33.9614L41.5014 33.4499V36.0072C40.8194 36.3482 40.4784 37.0301 40.4784 37.8825V47.4298H38.2621V36.0072ZM33.1476 47.4298H22.4069V42.9971H33.1476V47.4298ZM17.1219 47.4298V37.8825H25.6462V41.1218H21.384C20.8726 41.1218 20.3611 41.6332 20.3611 42.1447V47.4298H17.1219ZM19.1677 30.8926C19.6792 31.2336 20.3611 31.4041 20.8726 31.4041H21.725C22.4069 31.4041 22.9184 31.2336 23.4298 30.8926V31.9155V32.2565C23.2594 32.427 22.5774 32.768 21.2135 32.768C20.0201 32.768 19.1677 32.427 18.9972 32.2565L19.1677 30.8926ZM18.1448 35.8367V33.7909C18.8267 34.3023 20.0201 34.6433 21.384 34.6433C22.7479 34.6433 23.9413 34.3023 24.6233 33.7909V35.8367H18.1448ZM29.9083 36.0072V41.1218H27.692V37.8825C27.692 37.0301 27.1805 36.5187 26.6691 36.0072V33.4499L28.3739 33.9614C29.2264 34.1318 29.9083 35.1548 29.9083 36.0072ZM25.6462 22.0273H22.4069V17.7652C24.2823 18.2766 25.6462 19.9815 25.6462 22.0273ZM17.1219 22.0273C17.1219 19.9815 18.4858 18.2766 20.3611 17.7652V22.0273H17.1219ZM24.6233 24.0732V27.3124C24.6233 27.6534 24.4528 27.9944 24.1118 28.1648L22.4069 29.3582C22.2364 29.5287 22.066 29.5287 21.725 29.5287H20.8726C20.7021 29.5287 20.3611 29.5287 20.1906 29.3582L18.4858 28.1648C18.1448 27.9944 17.9743 27.6534 17.9743 27.3124V24.0732H24.6233ZM12.8597 36.0072C12.8597 34.9843 13.5417 34.1318 14.3941 33.9614L16.099 33.4499V36.0072C15.417 36.3482 15.076 37.0301 15.076 37.8825V47.4298H12.8597V36.0072ZM59.4024 55.9541H8.59757C6.89271 55.9541 5.35833 54.4197 5.35833 52.7148C5.35833 51.01 6.89271 49.4756 8.59757 49.4756H59.4024C61.1073 49.4756 62.6416 51.01 62.6416 52.7148C62.6416 54.4197 61.2777 55.9541 59.4024 55.9541Z"/>
</mask>
<path d="M59.4024 47.4298V44.1905C59.4024 43.6791 58.8909 43.1676 58.3795 43.1676H57.1861V36.0072C57.1861 34.1319 55.9927 32.427 54.1173 31.9155L50.7076 30.8926V29.3582C51.3896 28.8468 51.7305 27.9944 51.7305 26.9714V23.7322H52.9239C53.4354 23.7322 53.9468 23.2207 53.9468 22.7093C53.9468 22.1978 53.4354 21.6864 52.9239 21.6864C52.9239 18.6176 50.7076 15.8899 47.6389 15.5489V15.3784C47.6389 14.8669 47.1274 14.3555 46.6159 14.3555C46.1045 14.3555 45.593 14.8669 45.593 15.3784V15.5489C42.5243 16.0603 40.308 18.6176 40.308 21.6864C39.7965 21.6864 39.285 22.1978 39.285 22.7093C39.285 23.2207 39.7965 23.7322 40.308 23.7322H41.5014V26.9714C41.5014 27.8239 41.8423 28.6763 42.5243 29.3582V30.8926L39.1146 31.9155C37.4097 32.427 36.0458 34.1319 36.0458 36.0072V47.4298H34.8524V42.1447C34.8524 41.6332 34.341 41.1218 33.8295 41.1218H31.6132V36.0072C31.6132 34.1319 30.4198 32.427 28.5444 31.9155L25.1347 30.8926V29.3582C25.8167 28.8468 26.1576 27.9944 26.1576 26.9714V23.7322H27.692C28.2035 23.7322 28.7149 23.2207 28.7149 22.7093C28.7149 22.1978 28.2035 21.6864 27.692 21.6864C27.692 18.6176 25.4757 15.8899 22.4069 15.5489V15.3784C22.4069 14.8669 21.8955 14.3555 21.384 14.3555C20.8726 14.3555 20.3611 14.8669 20.3611 15.3784V15.5489C17.2924 16.0603 15.076 18.6176 15.076 21.6864C14.5646 21.6864 14.0531 22.1978 14.0531 22.7093C14.0531 23.2207 14.5646 23.7322 15.076 23.7322H16.2694V26.9714C16.2694 27.8239 16.6104 28.6763 17.2924 29.3582V30.8926L13.8826 31.9155C12.1778 32.427 10.8139 34.1319 10.8139 36.0072V47.4298H8.59757C5.6993 47.4298 3.3125 49.8166 3.3125 52.7148C3.3125 55.6131 5.6993 57.9999 8.59757 57.9999H59.4024C62.3007 57.9999 64.6875 55.6131 64.6875 52.7148C64.6875 49.8166 62.3007 47.4298 59.4024 47.4298ZM57.3566 47.4298H46.6159V45.2134H57.3566V47.4298ZM42.5243 47.4298V37.8825H51.0486V43.1676H45.7635C45.2521 43.1676 44.7406 43.6791 44.7406 44.1905V47.4298H42.5243ZM44.5701 30.8926C45.0816 31.2336 45.7635 31.4041 46.275 31.4041H47.1274C47.8093 31.4041 48.3208 31.2336 48.8323 30.8926V31.9155V32.2565C48.6618 32.427 47.9798 32.768 46.6159 32.768C45.4225 32.768 44.5701 32.427 44.3996 32.2565L44.5701 30.8926ZM43.5472 35.8367V33.7909C44.2291 34.3023 45.4225 34.6433 46.7864 34.6433C48.1503 34.6433 49.3437 34.3023 50.0257 33.7909V35.8367H43.5472ZM55.3107 36.0072V43.1676H53.0944V37.8825C53.0944 37.0301 52.583 36.5187 52.0715 36.0072V33.4499L53.7764 33.9614C54.6288 34.1318 55.3107 35.1548 55.3107 36.0072ZM51.0486 22.0273H47.8093V17.7652C49.6847 18.2766 51.0486 19.9815 51.0486 22.0273ZM42.5243 22.0273C42.5243 19.9815 43.8882 18.2766 45.7635 17.7652V22.0273H42.5243ZM50.0257 24.0732V27.3124C50.0257 27.6534 49.8552 27.9944 49.5142 28.1648L47.8093 29.3582C47.6389 29.5287 47.4684 29.5287 47.1274 29.5287H46.275C46.1045 29.5287 45.7635 29.5287 45.593 29.3582L43.8882 28.1648C43.5472 27.9944 43.3767 27.6534 43.3767 27.3124V24.0732H50.0257ZM38.2621 36.0072C38.2621 34.9843 38.9441 34.1318 39.7965 33.9614L41.5014 33.4499V36.0072C40.8194 36.3482 40.4784 37.0301 40.4784 37.8825V47.4298H38.2621V36.0072ZM33.1476 47.4298H22.4069V42.9971H33.1476V47.4298ZM17.1219 47.4298V37.8825H25.6462V41.1218H21.384C20.8726 41.1218 20.3611 41.6332 20.3611 42.1447V47.4298H17.1219ZM19.1677 30.8926C19.6792 31.2336 20.3611 31.4041 20.8726 31.4041H21.725C22.4069 31.4041 22.9184 31.2336 23.4298 30.8926V31.9155V32.2565C23.2594 32.427 22.5774 32.768 21.2135 32.768C20.0201 32.768 19.1677 32.427 18.9972 32.2565L19.1677 30.8926ZM18.1448 35.8367V33.7909C18.8267 34.3023 20.0201 34.6433 21.384 34.6433C22.7479 34.6433 23.9413 34.3023 24.6233 33.7909V35.8367H18.1448ZM29.9083 36.0072V41.1218H27.692V37.8825C27.692 37.0301 27.1805 36.5187 26.6691 36.0072V33.4499L28.3739 33.9614C29.2264 34.1318 29.9083 35.1548 29.9083 36.0072ZM25.6462 22.0273H22.4069V17.7652C24.2823 18.2766 25.6462 19.9815 25.6462 22.0273ZM17.1219 22.0273C17.1219 19.9815 18.4858 18.2766 20.3611 17.7652V22.0273H17.1219ZM24.6233 24.0732V27.3124C24.6233 27.6534 24.4528 27.9944 24.1118 28.1648L22.4069 29.3582C22.2364 29.5287 22.066 29.5287 21.725 29.5287H20.8726C20.7021 29.5287 20.3611 29.5287 20.1906 29.3582L18.4858 28.1648C18.1448 27.9944 17.9743 27.6534 17.9743 27.3124V24.0732H24.6233ZM12.8597 36.0072C12.8597 34.9843 13.5417 34.1318 14.3941 33.9614L16.099 33.4499V36.0072C15.417 36.3482 15.076 37.0301 15.076 37.8825V47.4298H12.8597V36.0072ZM59.4024 55.9541H8.59757C6.89271 55.9541 5.35833 54.4197 5.35833 52.7148C5.35833 51.01 6.89271 49.4756 8.59757 49.4756H59.4024C61.1073 49.4756 62.6416 51.01 62.6416 52.7148C62.6416 54.4197 61.2777 55.9541 59.4024 55.9541Z" fill="white" stroke="#1B78D4" stroke-width="2" mask="url(#path-2-inside-1)"/>
<mask id="path-3-inside-2" fill="white">
<path fill-rule="evenodd" clip-rule="evenodd" d="M50.5863 32.0005L49.9282 31.8031V32.494L50.5863 32.0005ZM43.2979 32.234L43.3537 31.788L42.8892 31.9274L43.2979 32.234ZM37.3051 35.0546C37.1997 35.3605 37.1418 35.6818 37.1418 36.0072V48.3796H37.1661V36.0072C37.1661 35.6802 37.2144 35.3593 37.3051 35.0546ZM39.7965 33.9614C38.9441 34.1318 38.2621 34.9843 38.2621 36.0072V47.4298H40.4784V37.8825C40.4784 37.0301 40.8194 36.3482 41.5014 36.0072V33.4499L39.7965 33.9614ZM42.4512 36.7576L42.3933 36.7866H42.4512V36.7576ZM51.1216 36.7866H51.3009C51.2994 36.7851 51.298 36.7836 51.2965 36.7822L51.1216 36.6073V36.7866ZM53.7764 33.9614L52.0715 33.4499V36.0072C52.583 36.5187 53.0944 37.0301 53.0944 37.8825V43.1676H55.3107V36.0072C55.3107 35.1548 54.6288 34.1318 53.7764 33.9614ZM25.1351 32.037L24.5258 31.8542V32.494L25.1351 32.037ZM17.8955 32.234L17.9446 31.8412L17.5355 31.9639L17.8955 32.234ZM25.7192 36.6073V36.7866H25.8985C25.897 36.7851 25.8956 36.7836 25.8941 36.7822L25.7192 36.6073ZM14.3941 33.9614C13.5417 34.1318 12.8597 34.9843 12.8597 36.0072V47.4298H15.076V37.8825C15.076 37.0301 15.417 36.3482 16.099 36.0072V33.4499L14.3941 33.9614ZM17.0488 36.7576L16.9909 36.7866H17.0488V36.7576ZM28.3739 33.9614L26.6691 33.4499L26.6691 36.0072C27.1805 36.5187 27.692 37.0301 27.692 37.8825V41.1218H29.9083V36.0072C29.9083 35.1548 29.2264 34.1318 28.3739 33.9614ZM26.0083 19.265C25.3256 17.9468 24.1019 16.9656 22.6254 16.6888L22.6953 16.7078C24.1118 17.0942 25.2944 18.0256 26.0083 19.265ZM17.3432 18.4388C17.734 17.9699 18.2109 17.5695 18.7553 17.2598C18.2199 17.5717 17.7428 17.9711 17.3432 18.4388ZM18.4858 28.1648L20.1906 29.3582C20.3611 29.5287 20.7021 29.5287 20.8726 29.5287H21.725C22.066 29.5287 22.2365 29.5287 22.4069 29.3582L24.1118 28.1648C24.4528 27.9944 24.6233 27.6534 24.6233 27.3124V24.0732H17.9743V27.3124C17.9743 27.6534 18.1448 27.9944 18.4858 28.1648ZM43.6203 29.6554L43.6594 29.3425L43.6203 29.3151V29.6554ZM43.8882 28.1648L45.593 29.3582C45.7635 29.5287 46.1045 29.5287 46.275 29.5287H47.1274C47.4684 29.5287 47.6389 29.5287 47.8093 29.3582L49.5142 28.1648C49.8552 27.9944 50.0257 27.6534 50.0257 27.3124V24.0732H43.3767V27.3124C43.3767 27.6534 43.5472 27.9944 43.8882 28.1648ZM45.7401 16.6356C43.2002 17.0745 41.4039 19.1815 41.4039 21.6864V22.6362H41.4283V22.0273C41.4283 19.4785 43.1315 17.347 45.4751 16.7078L45.7401 16.6356ZM17.2924 30.8926L13.8826 31.9155C12.1778 32.427 10.8139 34.1319 10.8139 36.0072V47.4298H8.59757C5.6993 47.4298 3.3125 49.8166 3.3125 52.7148C3.3125 55.6131 5.6993 57.9999 8.59757 57.9999H59.4024C62.3007 57.9999 64.6875 55.6131 64.6875 52.7148C64.6875 49.8166 62.3007 47.4298 59.4024 47.4298V44.1905C59.4024 43.6791 58.8909 43.1676 58.3795 43.1676H57.1861V36.0072C57.1861 34.1319 55.9927 32.427 54.1173 31.9155L50.7076 30.8926V29.3582C51.3896 28.8468 51.7305 27.9944 51.7305 26.9714V23.7322H52.9239C53.4354 23.7322 53.9468 23.2207 53.9468 22.7093C53.9468 22.1978 53.4354 21.6864 52.9239 21.6864C52.9239 18.6176 50.7076 15.8899 47.6389 15.5489V15.3784C47.6389 14.8669 47.1274 14.3555 46.6159 14.3555C46.1045 14.3555 45.593 14.8669 45.593 15.3784V15.5489C42.5243 16.0603 40.308 18.6176 40.308 21.6864C39.7965 21.6864 39.285 22.1978 39.285 22.7093C39.285 23.2207 39.7965 23.7322 40.308 23.7322H41.5014V26.9714C41.5014 27.8239 41.8423 28.6763 42.5243 29.3582V30.8926L39.1146 31.9155C37.4097 32.427 36.0458 34.1319 36.0458 36.0072V47.4298H34.8524V42.1447C34.8524 41.6332 34.341 41.1218 33.8295 41.1218H31.6132V36.0072C31.6132 34.1319 30.4198 32.427 28.5444 31.9155L25.1347 30.8926V29.3582C25.8167 28.8468 26.1576 27.9944 26.1576 26.9714V23.7322H27.692C28.2035 23.7322 28.7149 23.2207 28.7149 22.7093C28.7149 22.1978 28.2035 21.6864 27.692 21.6864C27.692 18.6176 25.4757 15.8899 22.4069 15.5489V15.3784C22.4069 14.8669 21.8955 14.3555 21.384 14.3555C20.8726 14.3555 20.3611 14.8669 20.3611 15.3784V15.5489C17.2924 16.0603 15.076 18.6176 15.076 21.6864C14.5646 21.6864 14.0531 22.1978 14.0531 22.7093C14.0531 23.2207 14.5646 23.7322 15.076 23.7322H16.2694V26.9714C16.2694 27.8239 16.6104 28.6763 17.2924 29.3582V30.8926ZM44.5701 30.8926L44.3996 32.2565C44.5701 32.427 45.4225 32.768 46.6159 32.768C47.9798 32.768 48.6618 32.427 48.8323 32.2565V30.8926C48.4848 31.1243 48.1373 31.2773 47.7363 31.3515C47.5471 31.3866 47.346 31.4041 47.1274 31.4041H46.275C46.0759 31.4041 45.851 31.3782 45.6204 31.3266C45.2585 31.2455 44.8825 31.1009 44.5701 30.8926ZM43.5472 33.7909C43.8317 34.0043 44.2053 34.188 44.6432 34.3297C45.2547 34.5275 45.9916 34.6433 46.7864 34.6433C47.5812 34.6433 48.3181 34.5275 48.9297 34.3297C49.3675 34.188 49.7411 34.0043 50.0257 33.7909V35.8367H43.5472V33.7909ZM50.9137 20.9314C50.6249 19.7842 49.8919 18.8207 48.9053 18.2315C48.5672 18.0295 48.1993 17.8716 47.8093 17.7652V22.0273H51.0486C51.0486 21.6485 51.0018 21.2814 50.9137 20.9314ZM45.7635 22.0273H42.5243C42.5243 21.6485 42.571 21.2814 42.6592 20.9314C42.9479 19.7842 43.6809 18.8207 44.6675 18.2315C45.0056 18.0295 45.3735 17.8716 45.7635 17.7652V22.0273ZM19.1677 30.8926L18.9972 32.2565C19.1677 32.427 20.0201 32.768 21.2135 32.768C22.5774 32.768 23.2594 32.427 23.4298 32.2565V30.8926C23.0823 31.1243 22.7348 31.2773 22.3339 31.3515C22.1447 31.3866 21.9436 31.4041 21.725 31.4041H20.8726C20.6735 31.4041 20.4486 31.3782 20.218 31.3266C19.8561 31.2455 19.4801 31.1009 19.1677 30.8926ZM19.2408 34.3297C19.8523 34.5275 20.5892 34.6433 21.384 34.6433C22.1788 34.6433 22.9157 34.5275 23.5273 34.3297C23.9651 34.188 24.3387 34.0043 24.6233 33.7909V35.8367H18.1448V33.7909C18.4293 34.0043 18.8029 34.188 19.2408 34.3297ZM25.5113 20.9314C25.5994 21.2814 25.6462 21.6485 25.6462 22.0273H22.4069V17.7652C22.7969 17.8716 23.1648 18.0295 23.5029 18.2315C24.4895 18.8207 25.2225 19.7842 25.5113 20.9314ZM20.3611 22.0273H17.1219C17.1219 21.6485 17.1686 21.2814 17.2567 20.9314C17.5455 19.7842 18.2785 18.8207 19.2651 18.2315C19.6032 18.0295 19.9711 17.8716 20.3611 17.7652V22.0273ZM57.3566 47.4298V45.2134H46.6159V47.4298H57.3566ZM42.5243 47.4298H44.7406V44.1905C44.7406 43.6791 45.2521 43.1676 45.7635 43.1676H51.0486V37.8825H42.5243V47.4298ZM33.1476 47.4298V42.9971H22.4069V47.4298H33.1476ZM17.1219 47.4298H20.3611V42.1447C20.3611 41.6332 20.8726 41.1218 21.384 41.1218H25.6462V37.8825H17.1219V47.4298ZM8.59757 55.9541H59.4024C61.2777 55.9541 62.6416 54.4197 62.6416 52.7148C62.6416 51.01 61.1073 49.4756 59.4024 49.4756H8.59757C6.89271 49.4756 5.35833 51.01 5.35833 52.7148C5.35833 54.4197 6.89271 55.9541 8.59757 55.9541Z"/>
</mask>
<path fill-rule="evenodd" clip-rule="evenodd" d="M50.5863 32.0005L49.9282 31.8031V32.494L50.5863 32.0005ZM43.2979 32.234L43.3537 31.788L42.8892 31.9274L43.2979 32.234ZM37.3051 35.0546C37.1997 35.3605 37.1418 35.6818 37.1418 36.0072V48.3796H37.1661V36.0072C37.1661 35.6802 37.2144 35.3593 37.3051 35.0546ZM39.7965 33.9614C38.9441 34.1318 38.2621 34.9843 38.2621 36.0072V47.4298H40.4784V37.8825C40.4784 37.0301 40.8194 36.3482 41.5014 36.0072V33.4499L39.7965 33.9614ZM42.4512 36.7576L42.3933 36.7866H42.4512V36.7576ZM51.1216 36.7866H51.3009C51.2994 36.7851 51.298 36.7836 51.2965 36.7822L51.1216 36.6073V36.7866ZM53.7764 33.9614L52.0715 33.4499V36.0072C52.583 36.5187 53.0944 37.0301 53.0944 37.8825V43.1676H55.3107V36.0072C55.3107 35.1548 54.6288 34.1318 53.7764 33.9614ZM25.1351 32.037L24.5258 31.8542V32.494L25.1351 32.037ZM17.8955 32.234L17.9446 31.8412L17.5355 31.9639L17.8955 32.234ZM25.7192 36.6073V36.7866H25.8985C25.897 36.7851 25.8956 36.7836 25.8941 36.7822L25.7192 36.6073ZM14.3941 33.9614C13.5417 34.1318 12.8597 34.9843 12.8597 36.0072V47.4298H15.076V37.8825C15.076 37.0301 15.417 36.3482 16.099 36.0072V33.4499L14.3941 33.9614ZM17.0488 36.7576L16.9909 36.7866H17.0488V36.7576ZM28.3739 33.9614L26.6691 33.4499L26.6691 36.0072C27.1805 36.5187 27.692 37.0301 27.692 37.8825V41.1218H29.9083V36.0072C29.9083 35.1548 29.2264 34.1318 28.3739 33.9614ZM26.0083 19.265C25.3256 17.9468 24.1019 16.9656 22.6254 16.6888L22.6953 16.7078C24.1118 17.0942 25.2944 18.0256 26.0083 19.265ZM17.3432 18.4388C17.734 17.9699 18.2109 17.5695 18.7553 17.2598C18.2199 17.5717 17.7428 17.9711 17.3432 18.4388ZM18.4858 28.1648L20.1906 29.3582C20.3611 29.5287 20.7021 29.5287 20.8726 29.5287H21.725C22.066 29.5287 22.2365 29.5287 22.4069 29.3582L24.1118 28.1648C24.4528 27.9944 24.6233 27.6534 24.6233 27.3124V24.0732H17.9743V27.3124C17.9743 27.6534 18.1448 27.9944 18.4858 28.1648ZM43.6203 29.6554L43.6594 29.3425L43.6203 29.3151V29.6554ZM43.8882 28.1648L45.593 29.3582C45.7635 29.5287 46.1045 29.5287 46.275 29.5287H47.1274C47.4684 29.5287 47.6389 29.5287 47.8093 29.3582L49.5142 28.1648C49.8552 27.9944 50.0257 27.6534 50.0257 27.3124V24.0732H43.3767V27.3124C43.3767 27.6534 43.5472 27.9944 43.8882 28.1648ZM45.7401 16.6356C43.2002 17.0745 41.4039 19.1815 41.4039 21.6864V22.6362H41.4283V22.0273C41.4283 19.4785 43.1315 17.347 45.4751 16.7078L45.7401 16.6356ZM17.2924 30.8926L13.8826 31.9155C12.1778 32.427 10.8139 34.1319 10.8139 36.0072V47.4298H8.59757C5.6993 47.4298 3.3125 49.8166 3.3125 52.7148C3.3125 55.6131 5.6993 57.9999 8.59757 57.9999H59.4024C62.3007 57.9999 64.6875 55.6131 64.6875 52.7148C64.6875 49.8166 62.3007 47.4298 59.4024 47.4298V44.1905C59.4024 43.6791 58.8909 43.1676 58.3795 43.1676H57.1861V36.0072C57.1861 34.1319 55.9927 32.427 54.1173 31.9155L50.7076 30.8926V29.3582C51.3896 28.8468 51.7305 27.9944 51.7305 26.9714V23.7322H52.9239C53.4354 23.7322 53.9468 23.2207 53.9468 22.7093C53.9468 22.1978 53.4354 21.6864 52.9239 21.6864C52.9239 18.6176 50.7076 15.8899 47.6389 15.5489V15.3784C47.6389 14.8669 47.1274 14.3555 46.6159 14.3555C46.1045 14.3555 45.593 14.8669 45.593 15.3784V15.5489C42.5243 16.0603 40.308 18.6176 40.308 21.6864C39.7965 21.6864 39.285 22.1978 39.285 22.7093C39.285 23.2207 39.7965 23.7322 40.308 23.7322H41.5014V26.9714C41.5014 27.8239 41.8423 28.6763 42.5243 29.3582V30.8926L39.1146 31.9155C37.4097 32.427 36.0458 34.1319 36.0458 36.0072V47.4298H34.8524V42.1447C34.8524 41.6332 34.341 41.1218 33.8295 41.1218H31.6132V36.0072C31.6132 34.1319 30.4198 32.427 28.5444 31.9155L25.1347 30.8926V29.3582C25.8167 28.8468 26.1576 27.9944 26.1576 26.9714V23.7322H27.692C28.2035 23.7322 28.7149 23.2207 28.7149 22.7093C28.7149 22.1978 28.2035 21.6864 27.692 21.6864C27.692 18.6176 25.4757 15.8899 22.4069 15.5489V15.3784C22.4069 14.8669 21.8955 14.3555 21.384 14.3555C20.8726 14.3555 20.3611 14.8669 20.3611 15.3784V15.5489C17.2924 16.0603 15.076 18.6176 15.076 21.6864C14.5646 21.6864 14.0531 22.1978 14.0531 22.7093C14.0531 23.2207 14.5646 23.7322 15.076 23.7322H16.2694V26.9714C16.2694 27.8239 16.6104 28.6763 17.2924 29.3582V30.8926ZM44.5701 30.8926L44.3996 32.2565C44.5701 32.427 45.4225 32.768 46.6159 32.768C47.9798 32.768 48.6618 32.427 48.8323 32.2565V30.8926C48.4848 31.1243 48.1373 31.2773 47.7363 31.3515C47.5471 31.3866 47.346 31.4041 47.1274 31.4041H46.275C46.0759 31.4041 45.851 31.3782 45.6204 31.3266C45.2585 31.2455 44.8825 31.1009 44.5701 30.8926ZM43.5472 33.7909C43.8317 34.0043 44.2053 34.188 44.6432 34.3297C45.2547 34.5275 45.9916 34.6433 46.7864 34.6433C47.5812 34.6433 48.3181 34.5275 48.9297 34.3297C49.3675 34.188 49.7411 34.0043 50.0257 33.7909V35.8367H43.5472V33.7909ZM50.9137 20.9314C50.6249 19.7842 49.8919 18.8207 48.9053 18.2315C48.5672 18.0295 48.1993 17.8716 47.8093 17.7652V22.0273H51.0486C51.0486 21.6485 51.0018 21.2814 50.9137 20.9314ZM45.7635 22.0273H42.5243C42.5243 21.6485 42.571 21.2814 42.6592 20.9314C42.9479 19.7842 43.6809 18.8207 44.6675 18.2315C45.0056 18.0295 45.3735 17.8716 45.7635 17.7652V22.0273ZM19.1677 30.8926L18.9972 32.2565C19.1677 32.427 20.0201 32.768 21.2135 32.768C22.5774 32.768 23.2594 32.427 23.4298 32.2565V30.8926C23.0823 31.1243 22.7348 31.2773 22.3339 31.3515C22.1447 31.3866 21.9436 31.4041 21.725 31.4041H20.8726C20.6735 31.4041 20.4486 31.3782 20.218 31.3266C19.8561 31.2455 19.4801 31.1009 19.1677 30.8926ZM19.2408 34.3297C19.8523 34.5275 20.5892 34.6433 21.384 34.6433C22.1788 34.6433 22.9157 34.5275 23.5273 34.3297C23.9651 34.188 24.3387 34.0043 24.6233 33.7909V35.8367H18.1448V33.7909C18.4293 34.0043 18.8029 34.188 19.2408 34.3297ZM25.5113 20.9314C25.5994 21.2814 25.6462 21.6485 25.6462 22.0273H22.4069V17.7652C22.7969 17.8716 23.1648 18.0295 23.5029 18.2315C24.4895 18.8207 25.2225 19.7842 25.5113 20.9314ZM20.3611 22.0273H17.1219C17.1219 21.6485 17.1686 21.2814 17.2567 20.9314C17.5455 19.7842 18.2785 18.8207 19.2651 18.2315C19.6032 18.0295 19.9711 17.8716 20.3611 17.7652V22.0273ZM57.3566 47.4298V45.2134H46.6159V47.4298H57.3566ZM42.5243 47.4298H44.7406V44.1905C44.7406 43.6791 45.2521 43.1676 45.7635 43.1676H51.0486V37.8825H42.5243V47.4298ZM33.1476 47.4298V42.9971H22.4069V47.4298H33.1476ZM17.1219 47.4298H20.3611V42.1447C20.3611 41.6332 20.8726 41.1218 21.384 41.1218H25.6462V37.8825H17.1219V47.4298ZM8.59757 55.9541H59.4024C61.2777 55.9541 62.6416 54.4197 62.6416 52.7148C62.6416 51.01 61.1073 49.4756 59.4024 49.4756H8.59757C6.89271 49.4756 5.35833 51.01 5.35833 52.7148C5.35833 54.4197 6.89271 55.9541 8.59757 55.9541Z" fill="#1B78D4" stroke="#1B78D4" stroke-width="2" mask="url(#path-3-inside-2)"/>
<path d="M12.8336 35.5599C12.7969 33.8053 15.141 33.0591 16.9514 33.0591V35.7321C15.4605 36.2495 15.7089 37.5431 15.7089 38.003V47.4313H12.8336C12.8573 44.6047 12.8904 38.2733 12.8336 35.5599Z" fill="#1B78D4"/>
<path d="M29.8977 35.5599C29.9307 33.8053 27.8273 33.0591 26.2028 33.0591V35.7321C27.5406 36.2495 27.3177 37.543 27.3177 38.003V47.4313H29.8977C29.8765 44.6047 29.8468 38.2733 29.8977 35.5599Z" fill="#1B78D4"/>
<path d="M34 50.8394C32.9771 50.8394 32.1246 51.6918 32.1246 52.7147C32.1246 53.7376 32.9771 54.5901 34 54.5901C35.0229 54.5901 35.8753 53.7376 35.8753 52.7147C35.8753 51.6918 35.1934 50.8394 34 50.8394Z" fill="white"/>
<path d="M27.6921 50.8394C26.6691 50.8394 25.8167 51.6918 25.8167 52.7147C25.8167 53.7376 26.6691 54.5901 27.6921 54.5901C28.715 54.5901 29.5674 53.7376 29.5674 52.7147C29.5674 51.6918 28.715 50.8394 27.6921 50.8394Z" fill="white"/>
<path d="M21.384 50.8394C20.3611 50.8394 19.5087 51.6918 19.5087 52.7147C19.5087 53.7376 20.3611 54.5901 21.384 54.5901C22.4069 54.5901 23.2594 53.7376 23.2594 52.7147C23.2594 51.6918 22.4069 50.8394 21.384 50.8394Z" fill="white"/>
<path d="M8.59758 50.8394C7.57466 50.8394 6.72223 51.6918 6.72223 52.7147C6.72223 53.7376 7.57466 54.5901 8.59758 54.5901C9.62049 54.5901 10.4729 53.7376 10.4729 52.7147C10.4729 51.6918 9.79098 50.8394 8.59758 50.8394Z" fill="white"/>
<path d="M15.076 50.8394C14.0531 50.8394 13.2007 51.6918 13.2007 52.7147C13.2007 53.7376 14.0531 54.5901 15.076 54.5901C16.0989 54.5901 16.9514 53.7376 16.9514 52.7147C16.9514 51.6918 16.0989 50.8394 15.076 50.8394Z" fill="white"/>
<path d="M59.4024 50.8394C58.3795 50.8394 57.527 51.6918 57.527 52.7147C57.527 53.7376 58.3795 54.5901 59.4024 54.5901C60.4253 54.5901 61.2777 53.7376 61.2777 52.7147C61.2777 51.6918 60.5958 50.8394 59.4024 50.8394Z" fill="white"/>
<path d="M53.0945 50.8394C52.0716 50.8394 51.2191 51.6918 51.2191 52.7147C51.2191 53.7376 52.0716 54.5901 53.0945 54.5901C54.1174 54.5901 54.9698 53.7376 54.9698 52.7147C54.9698 51.6918 54.1174 50.8394 53.0945 50.8394Z" fill="white"/>
<path d="M40.4785 50.8394C39.4556 50.8394 38.6031 51.6918 38.6031 52.7147C38.6031 53.7376 39.4556 54.5901 40.4785 54.5901C41.5014 54.5901 42.3538 53.7376 42.3538 52.7147C42.3538 51.6918 41.5014 50.8394 40.4785 50.8394Z" fill="white"/>
<path d="M46.7864 50.8394C45.7635 50.8394 44.9111 51.6918 44.9111 52.7147C44.9111 53.7376 45.7635 54.5901 46.7864 54.5901C47.8093 54.5901 48.6618 53.7376 48.6618 52.7147C48.6618 51.6918 47.8093 50.8394 46.7864 50.8394Z" fill="white"/>
<path d="M17.2365 29.3058C16.7352 28.8712 16.4427 28.0944 16.3592 27.7603L10.0395 34.5978L10.2178 47.4613L20.3431 47.4635V42.0759C20.3431 41.9882 20.3633 41.6843 20.6874 41.3535C20.9467 41.0889 21.3625 41.0497 21.5381 41.0632C25.6249 41.061 33.8026 41.0578 33.8188 41.0632C33.839 41.07 34.1023 41.016 34.4804 41.313C34.8585 41.6101 34.864 42.0354 34.864 42.1637V47.4613H44.4788C44.4814 45.9912 44.485 42.928 44.4788 42.4363C44.4712 41.8216 44.5941 41.5527 44.9168 41.2761C45.2395 40.9995 45.7312 41.0483 46.0309 41.0483H57.262L60.046 39.444L57.262 31.412L56.2239 28.6528H52.8265L50.7501 29.3058C50.2876 29.6918 49.2562 30.5456 48.8306 30.8724C48.4051 31.1993 47.7129 31.3683 47.4199 31.412H45.8242L44.5754 30.8724L42.4348 29.3058L33.2595 28.6528L25.2156 29.3058C24.8466 29.6191 23.9665 30.3711 23.3984 30.8724C22.6882 31.4991 21.0381 31.687 19.7012 31.2066C18.3644 30.7262 17.8631 29.8489 17.2365 29.3058Z" fill="white"/>
<path d="M27.7407 41.9517H14.5889V47.4316H27.7407V41.9517Z" fill="#1B78D4"/>
<path fill-rule="evenodd" clip-rule="evenodd" d="M30.0057 33.8419L28.8367 33.1836V40.378V47.4314H32.1246V37.8858C32.1246 36.052 31.3575 34.5943 30.0057 33.8419Z" fill="#1B78D4"/>
<path fill-rule="evenodd" clip-rule="evenodd" d="M13.4929 33.1836L12.3604 33.8397C10.9722 34.6834 10.205 36.0894 10.205 37.9172V42.9321V47.4314H11.849H13.4929V41.2448V33.1836Z" fill="#1B78D4"/>
<path fill-rule="evenodd" clip-rule="evenodd" d="M16.7809 30.9917V40.9936H25.5487V31.0975L21.146 34.3257L16.7809 30.9917Z" fill="#1B78D4"/>
<path fill-rule="evenodd" clip-rule="evenodd" d="M26.0826 41.2588H27.7407V32.6187L26.0826 31.3096V41.2588Z" fill="#1B78D4"/>
<path fill-rule="evenodd" clip-rule="evenodd" d="M16.247 41.2588H14.5889V32.6187L16.247 31.3096V41.2588Z" fill="#1B78D4"/>
<path d="M53.4111 41.9517H40.2593V47.4316H53.4111V41.9517Z" fill="#1B78D4"/>
<path fill-rule="evenodd" clip-rule="evenodd" d="M55.6761 33.8419L54.507 33.1836V40.378V47.4314H57.795V37.8858C57.795 36.052 57.0278 34.5943 55.6761 33.8419Z" fill="#1B78D4"/>
<path fill-rule="evenodd" clip-rule="evenodd" d="M39.1633 33.1836L38.0308 33.8397C36.6425 34.6834 35.8753 36.0894 35.8753 37.9172V42.9321V47.4314H37.5193H39.1633V41.2448V33.1836Z" fill="#1B78D4"/>
<path fill-rule="evenodd" clip-rule="evenodd" d="M42.4512 30.9917V40.9936H51.2191V31.0975L46.8163 34.3257L42.4512 30.9917Z" fill="#1B78D4"/>
<path fill-rule="evenodd" clip-rule="evenodd" d="M51.753 41.2588H53.411V32.6187L51.753 31.3096V41.2588Z" fill="#1B78D4"/>
<path fill-rule="evenodd" clip-rule="evenodd" d="M41.9174 41.2588H40.2593V32.6187L41.9174 31.3096V41.2588Z" fill="#1B78D4"/>
<path d="M20.3381 42.1585C20.3381 41.5532 20.8288 41.0625 21.4341 41.0625H33.7791C34.3843 41.0625 34.875 41.5532 34.875 42.1585V47.4746H20.3381V42.1585Z" fill="#FF782C"/>
<path d="M44.4899 42.1585C44.4899 41.5532 44.9806 41.0625 45.5859 41.0625H58.5304C59.1357 41.0625 59.6264 41.5532 59.6264 42.1585V47.4746H44.4899V42.1585Z" fill="#FF782C"/>
</svg>
