<?xml version="1.0" encoding="utf-8"?>
<svg xmlns="http://www.w3.org/2000/svg" width="50" height="57" fill="none" viewBox="0 0 50 57">
    <path fill="#1B78D4" d="M2.31 18.297l1.25.29.384-1.45a1.437 1.437 0 0 1 .962.676c.226.425.388.881.48 1.354a6.301 6.301 0 0 0 1.347 2.9 4.9 4.9 0 0 0 3.557 1.355l1.154.193 2.403 1.644a5.442 5.442 0 0 0-.577 3.77l.289.774.769.58 7.5 7.543a7.349 7.349 0 0 1 1.441 2.127v-.29l.289-.194a4.147 4.147 0 0 0 1.923-2.03c.256-.75.417-1.53.48-2.32a2.88 2.88 0 0 0 1.389-.705c.39-.358.674-.817.823-1.326.158-.56.351-1.109.577-1.644.576-1.257.961-2.418.288-3.191a3.93 3.93 0 0 0-2.115-.87 6.035 6.035 0 0 1-2.404-.87l-.192-.194c-.961-1.16-2.5-2.9-4.23-3.578l-.962-.29a11.693 11.693 0 0 1-3.173-1.353l-1.153-.774a11.64 11.64 0 0 1-2.5-1.837 2.228 2.228 0 0 1-.288-.58h1.922c1.346.193 3.077.386 3.942-1.16.866-1.548 3.461-4.642 4.327-4.642.682 0 1.345-.227 1.885-.648.54-.42.925-1.008 1.095-1.673a1.944 1.944 0 0 0-.09-1.282 1.93 1.93 0 0 0-.871-.942c-1.25-.58-2.885-1.45-4.23-.386l-.674.677c-.576.676-.673.676-1.057.483l-.577-.29a4.065 4.065 0 0 0 1.346-2.224 2.234 2.234 0 0 0-.192-1.74 2.788 2.788 0 0 0-1.539-1.064A21.9 21.9 0 0 1 36.826 5.34c-.839.3-1.573.837-2.115 1.547a11.835 11.835 0 0 1-2.308 1.837c-1.634 1.16-2.788 1.934-2.788 2.998 0 1.063 2.98 2.9 5.769 2.9a11.677 11.677 0 0 0 4.134-1.16c1.634-.677 3.269-1.354 4.23-.773h.193a22.001 22.001 0 0 1 2.018 4.35h-1.826a17.314 17.314 0 0 1-3.173-.676c-1.923-.483-3.846-1.064-5.288-.774a7.397 7.397 0 0 0-3.514 2.221 7.463 7.463 0 0 0-1.774 3.774c-.288 3.481 1.25 4.448 2.692 4.642.834.068 1.673.036 2.5-.097a7.937 7.937 0 0 1 2.5-.097c.192.424.259.894.192 1.354-.015.618.05 1.236.192 1.837h.289a3.927 3.927 0 0 1 2.403.774 4.161 4.161 0 0 1 1.442 2.32v-.193l1.346-10.25a4.07 4.07 0 0 1 1.232-2.47 4.027 4.027 0 0 1 2.518-1.107h.577a24.186 24.186 0 0 0-8.529-13.182A23.949 23.949 0 0 0 24.953 0c-5.358 0-10.563 1.8-14.787 5.115a24.185 24.185 0 0 0-8.528 13.182H2.31zM26.154 48.272v-1.934h-2.308v1.934h2.308z"/>
    <path fill="#FF782C" d="M10.386 49.24v5.8a.97.97 0 0 0 .282.684c.18.182.425.284.68.284h9.614a.97.97 0 0 0 .962-.967V43.244a5.54 5.54 0 0 0-1.635-3.964l-7.403-7.446a2.207 2.207 0 0 0-2.885-.29 2.138 2.138 0 0 0-.577 2.708l2.116 2.224a34.612 34.612 0 0 1 3.846 5.221 34.438 34.438 0 0 1-5.192-3.868 44.07 44.07 0 0 1-4.52-4.544.97.97 0 0 1-.191-.484L4.04 22.165a2.133 2.133 0 0 0-.611-1.32 2.11 2.11 0 0 0-1.311-.614 2.01 2.01 0 0 0-1.527.592 2.03 2.03 0 0 0-.589 1.535l.77 13.924 9.422 12.377a.97.97 0 0 1 .192.58zM45.96 22.165l-1.346 10.54a.969.969 0 0 1-.193.483 44.064 44.064 0 0 1-4.519 4.545 34.433 34.433 0 0 1-5.191 3.867 34.605 34.605 0 0 1 3.845-5.221l2.02-2.224a2.138 2.138 0 0 0-.577-2.708 2.202 2.202 0 0 0-2.885.29l-7.5 7.543a5.513 5.513 0 0 0-1.634 3.964v11.797a.97.97 0 0 0 .282.684c.18.18.425.283.68.283h9.614a.97.97 0 0 0 .961-.967v-5.802a.97.97 0 0 1 .193-.58l9.422-12.377.866-13.924a2.042 2.042 0 0 0-.59-1.535 2.017 2.017 0 0 0-1.526-.592 2.11 2.11 0 0 0-1.311.615c-.352.354-.568.82-.611 1.319z"/>
</svg>
