<?xml version="1.0" encoding="utf-8"?>
<svg width="96" height="96" viewBox="0 0 96 96" fill="none" xmlns="http://www.w3.org/2000/svg">
<path d="M59.1172 38.2752C50.2817 34.661 45.992 37.0325 41.8331 39.3185C39.4493 40.6296 37.202 41.8724 34.0957 41.9978C32.0703 42.0719 30.5512 41.5246 29.5897 40.3503C27.3538 37.6311 28.56 32.4207 28.5714 32.3694C28.6077 32.215 28.5913 32.0529 28.5246 31.9091C28.4579 31.7653 28.3449 31.6481 28.2038 31.5764C28.0626 31.5047 27.9015 31.4826 27.7463 31.5137C27.5911 31.5449 27.4509 31.6274 27.3482 31.748C25.9132 33.3999 24.9327 35.3981 24.5035 37.5456C23.6209 36.8876 22.5422 36.5481 21.4427 36.5821C19.993 36.7097 18.6471 37.389 17.682 38.4805C17.6177 38.5625 17.5723 38.6578 17.549 38.7595C17.5258 38.8611 17.5253 38.9667 17.5476 39.0686C17.5699 39.1705 17.6144 39.2662 17.678 39.3488C17.7416 39.4315 17.8226 39.499 17.9153 39.5465L24.1223 42.716C24.6913 44.3236 27.6497 51.3582 37.8335 52.6238V55.7306C37.8335 55.9181 37.9079 56.0979 38.0402 56.2305C38.1725 56.363 38.3519 56.4375 38.539 56.4375C38.6642 56.4375 41.6055 56.3007 47.8353 51.6547C56.6651 48.3483 59.47 39.2387 59.5041 39.1132C59.5506 38.9503 59.5371 38.776 59.4661 38.6222C59.3951 38.4684 59.2712 38.3453 59.1172 38.2752ZM50.2533 44.9792C50.0035 44.9792 49.7593 44.905 49.5516 44.7659C49.3439 44.6269 49.182 44.4292 49.0864 44.198C48.9908 43.9667 48.9658 43.7123 49.0145 43.4668C49.0633 43.2213 49.1836 42.9958 49.3602 42.8188C49.5368 42.6418 49.7619 42.5213 50.0069 42.4724C50.2519 42.4236 50.5058 42.4487 50.7366 42.5444C50.9674 42.6402 51.1647 42.8024 51.3035 43.0106C51.4422 43.2187 51.5163 43.4634 51.5163 43.7137C51.5163 44.0493 51.3832 44.3712 51.1464 44.6085C50.9095 44.8459 50.5883 44.9792 50.2533 44.9792Z" fill="#FF782C"/>
<path d="M62.4061 24.0975L56.1083 20.9324C55.531 19.327 52.5293 12.3023 42.1964 11.0385V7.94172C42.1985 7.84422 42.1801 7.74734 42.1424 7.6572C42.1046 7.56706 42.0483 7.48561 41.9771 7.418C41.8356 7.28926 41.65 7.21808 41.4575 7.21875C41.3306 7.21875 38.3461 7.35538 32.0252 11.9949C23.0662 15.2966 20.2203 24.3935 20.1857 24.5187C20.1353 24.6866 20.1499 24.8668 20.2267 25.0246C20.3035 25.1824 20.437 25.3064 20.6013 25.3726C29.5661 28.9818 33.9186 26.6193 38.1326 24.3309C40.5513 23.0216 42.8314 21.7806 45.9832 21.6553C48.0383 21.5756 49.5738 22.1278 50.5551 23.3005C52.8237 26.0159 51.5999 31.219 51.5884 31.2702C51.5466 31.4262 51.5603 31.5915 51.6271 31.7388C51.694 31.886 51.8099 32.0062 51.9556 32.0794C52.1014 32.1526 52.2682 32.1743 52.4282 32.1411C52.5882 32.1078 52.7319 32.0214 52.8352 31.8964C54.2912 30.2468 55.286 28.2514 55.7215 26.107C56.6191 26.76 57.7121 27.0986 58.8271 27.069C60.2981 26.9417 61.6636 26.2633 62.6428 25.1734C62.7128 25.0919 62.7632 24.9957 62.7901 24.8922C62.817 24.7887 62.8197 24.6805 62.798 24.5758C62.7763 24.4711 62.7309 24.3726 62.665 24.2878C62.5991 24.203 62.5145 24.134 62.4177 24.0861L62.4061 24.0975ZM29.595 21.2512C29.3438 21.2499 29.0985 21.1758 28.8896 21.0382C28.6807 20.9005 28.5175 20.7054 28.4202 20.477C28.3228 20.2486 28.2957 19.9971 28.3422 19.7536C28.3886 19.5102 28.5067 19.2856 28.6815 19.1077C28.8564 18.9298 29.0804 18.8066 29.3257 18.7533C29.571 18.6999 29.8268 18.7189 30.0613 18.8078C30.2958 18.8966 30.4986 19.0515 30.6446 19.2531C30.7905 19.4548 30.8732 19.6943 30.8822 19.9418C30.8845 20.1097 30.8529 20.2764 30.7892 20.432C30.7254 20.5877 30.6309 20.7293 30.5111 20.8486C30.3912 20.9678 30.2485 21.0623 30.0912 21.1265C29.9339 21.1908 29.7652 21.2235 29.595 21.2227V21.2512Z" fill="#FF782C"/>
<path d="M82 36V66.62C82 67.07 81.85 67.5 81.58 67.85L65.28 88.68C64.45 89.73 64 91.04 64 92.38V96H48V75.49C48 75.01 48.17 74.54 48.48 74.18L62.98 57.37C63.73 56.64 64.71 56.24 65.76 56.24C66.83 56.24 67.83 56.66 68.59 57.41C70.15 58.97 70.15 61.51 68.59 63.07C68.55 63.11 68.51 63.15 68.47 63.2L63.07 69.6C62.36 70.44 62.47 71.7 63.31 72.41C64.16 73.13 65.42 73.02 66.13 72.18L71.48 65.83C72.96 64.32 73.72 62.35 73.75 60.37C73.75 60.33 73.76 60.3 73.76 60.26L74 36C74 33.79 75.79 32 78 32C80.21 32 82 33.79 82 36ZM19.02 57.37C17.46 55.85 14.96 55.87 13.41 57.41C12.66 58.17 12.24 59.17 12.24 60.24C12.24 61.31 12.66 62.32 13.41 63.07C13.45 63.11 13.49 63.15 13.53 63.2L18.93 69.6C19.64 70.44 19.53 71.7 18.69 72.41C17.85 73.13 16.58 73.02 15.87 72.18L10.52 65.83C9.06 64.34 8.25 62.37 8.24 60.28C8.24 60.27 8.24 60.27 8.24 60.26L8 36.02C8 33.79 6.21 32 4 32C1.79 32 0 33.79 0 36V66.62C0 67.07 0.15 67.5 0.42 67.85L16.73 88.68C17.55 89.73 18 91.04 18 92.38V96H34V75.49C34 75.01 33.83 74.54 33.51 74.18L19.02 57.37Z" fill="#1B78D4"/>
</svg>
