<?xml version="1.0" encoding="utf-8"?>
<svg xmlns="http://www.w3.org/2000/svg" width="82" height="96" fill="none" viewBox="0 0 82 96">
    <path fill="#FF782C" d="M40.977 29.726c-10.15 0-18.347 8.187-18.347 18.323 0 10.136 8.198 18.323 18.347 18.323 10.149 0 18.346-8.187 18.346-18.323 0-10.136-8.197-18.323-18.346-18.323zm10.93 14.944L38.765 57.665c-.52.52-1.301.78-1.952.78-.65 0-1.431-.26-1.952-.78l-4.944-4.938c-1.041-1.04-1.041-2.859 0-4.028 1.04-1.04 2.862-1.04 4.033 0l2.993 2.988 11.06-11.045c1.041-1.04 2.863-1.04 4.034 0 .91 1.04.91 2.859-.13 4.028z"/>
    <path fill="#1B78D4" d="M81.834 26.087c0-1.04-.13-1.949-.13-3.119-.13-5.327-4.294-9.616-9.63-10.006-11.06-.65-19.517-4.158-26.934-11.305a6.06 6.06 0 0 0-8.327 0C29.526 8.934 20.938 12.443 9.878 13.092 4.543 13.352.38 17.771.25 23.1c0 1.04 0 2.079-.13 2.988v.13c-.26 11.306-.521 25.21 4.163 37.945 2.603 7.018 6.506 12.995 11.58 18.063 5.856 5.718 13.533 10.136 22.641 13.385.26.13.65.13.911.26.39.13.911.13 1.301.13.39 0 .911 0 1.301-.13.26 0 .651-.13.911-.26 9.239-3.249 16.916-7.797 22.641-13.385 5.075-4.938 8.978-11.045 11.58-18.063 5.075-12.735 4.815-26.77 4.685-38.075zM40.977 71.96c-13.142 0-23.942-10.785-23.942-23.91s10.67-23.91 23.942-23.91c13.142 0 23.941 10.655 23.941 23.91s-10.67 23.91-23.941 23.91z"/>
</svg>
