<?xml version="1.0" encoding="utf-8"?>
<svg xmlns="http://www.w3.org/2000/svg" width="50" height="50" fill="none" viewBox="0 0 50 50">
    <path fill="#FF782C" d="M46.832 0h-5.923v2.893h2.893v2.892h-5.923V2.893h-2.893v2.892h-5.923V2.893h2.893V0h-5.923v5.923h-2.617V0h-5.923v2.893h2.893v2.892h-5.923V2.893H11.57v2.892H5.647V2.893H8.54V0H2.617v5.923H0v11.846h50V5.923h-3.168V0zM16.116 13.912l-2.066-2.066 2.066-2.066 2.066 2.066-2.066 2.066zm8.815 0l-2.066-2.066 2.066-2.066 2.066 2.066-2.066 2.066zm8.816 0l-2.067-2.066 2.067-2.066 2.066 2.066-2.066 2.066z"/>
    <path fill="#1B78D4" d="M30.716 30.854c.827 0 1.515-.689 1.515-1.515v-1.515h-14.6v1.515c0 .826.689 1.515 1.515 1.515h11.57z"/>
    <path fill="#1B78D4" d="M0 44.215h5.923V25.068h38.016v19.146h5.923V20.662H0v23.553z"/>
    <path fill="#1B78D4" d="M8.815 27.961v16.254h32.232V27.96h-5.923v1.516c0 2.479-1.928 4.407-4.408 4.407H19.008c-2.48 0-4.407-1.928-4.407-4.407V27.96H8.815zm29.34 8.816v2.892H11.707v-2.892h26.446zM41.598 50h5.234v-2.893h-6.75L41.599 50zM3.03 50h5.234l1.516-2.893H3.03V50z"/>
</svg>
