<?xml version="1.0" encoding="utf-8"?>
<svg xmlns="http://www.w3.org/2000/svg" width="88" height="93" fill="none" viewBox="0 0 88 93">
    <path fill="#FF782C" d="M45.885 37.693l8.923-4v-9.847l-8.923 4v9.847zM52.347 21.385l-8.154-3.539-8.154 3.539 8.154 3.538 8.154-3.538z"/>
    <path fill="#1B78D4" d="M74.654 67.847h4.462l-.462-1.231c-.461-1.23-1.692-2-3.076-2h-3.231l.769 2.154c.308.615.923 1.077 1.538 1.077z"/>
    <path fill="#1B78D4" d="M70.04 67.693l-1.078-3.23h-11.23l-4.154 8.153c-.308.615-.616 1.23-1.077 1.692h29.538l-1.384-3.384h-5.846c-2.308.154-4.154-1.231-4.77-3.231zM44.193 48.154c11.077 0 20-8.923 20-20s-8.923-20-20-20a19.96 19.96 0 0 0-20 20c0 11.077 8.923 20 20 20zm-13.846-26.77c0-.153 0-.46.153-.615v-.153c0-.154.154-.308.308-.308 0 0 0-.154.154-.154.154-.154.308-.308.461-.308l11.539-5.23a3.398 3.398 0 0 1 2.462 0l11.538 5.23c.154.154.308.154.462.308l.154.154.307.308v.153c0 .154.154.308.154.616V34c0 1.231-.77 2.308-1.846 2.77l-10.77 4.769a3.398 3.398 0 0 1-2.461 0l-10.77-4.77c-1.076-.46-1.846-1.538-1.846-2.769V21.385z"/>
    <path fill="#FF782C" d="M42.5 27.846l-8.923-4v9.847l8.923 4v-9.846z"/>
    <path fill="#1B78D4" d="M25.423 74.462H36.04c-.462-.461-.77-1.077-1.077-1.692l-4.154-8.308H17.73l-4.154 11.693c-.77 2-2.615 3.23-4.615 3.23H3.423l-3.23 8.77c-.308 1.077-.308 2.154.46 3.077.616.923 1.693 1.384 2.77 1.384h8.616l5.846-13.23c1.23-3.078 4.154-4.924 7.538-4.924zM87.732 88l-1.539-3.692h-58c-.616 0-1.231.462-1.539.924l-3.23 7.23h61.23c1.078 0 2.155-.615 2.77-1.538.615-.77.77-1.846.308-2.923z"/>
    <path fill="#1B78D4" d="M10.346 74.924l3.846-10.462H11.27c-1.384 0-2.615.923-3.077 2.154l-3.538 9.539h4.154c.615 0 1.23-.462 1.538-1.231z"/>
    <path fill="#FF782C" d="M28.192 81.078H84.81l-1.385-3.385H48.039a9.56 9.56 0 0 1-7.693 0H25.423c-2 0-3.692 1.23-4.615 2.923l-5.231 11.847h4.308l3.692-8.616c.77-1.692 2.615-2.77 4.615-2.77z"/>
    <path fill="#1B78D4" d="M26.039 49.693c1.077.77 1.846 1.846 2.461 3.077l9.231 18.615c.77 1.539 2 2.616 3.385 3.385a7.31 7.31 0 0 0 5.692 0 6.095 6.095 0 0 0 3.385-3.385l9.385-18.615c.615-1.077 1.384-2 2.307-2.77 9.077-7.538 12.462-20 8.462-31.077C66.655 7.54 56.039 0 44.193 0S21.73 7.385 17.73 18.462 17.116 42 26.039 49.692zM44.193 4.769c12.923 0 23.385 10.462 23.385 23.385 0 12.923-10.462 23.385-23.385 23.385-12.923 0-23.385-10.462-23.385-23.385C20.962 15.231 31.27 4.77 44.193 4.77z"/>
</svg>
