<?xml version="1.0" encoding="utf-8"?>
<svg width="96" height="96" viewBox="0 0 96 96" fill="none" xmlns="http://www.w3.org/2000/svg">
<line x1="1.08008" y1="85.2219" x2="17.2021" y2="75.9139" stroke="#1B78D4" stroke-width="3"/>
<line x1="85.0623" y1="32.8512" x2="95.1881" y2="26.3352" stroke="#1B78D4" stroke-width="3"/>
<path d="M31.7925 69.348C32.0994 69.6643 32.1657 70.1333 31.9696 70.528C31.5389 71.395 30.9448 73.0665 31.5578 74.8827C31.6717 75.2202 31.4815 75.5825 31.1333 75.6579C28.7181 76.1817 23.6155 77.5896 18.707 80.8428C18.3332 81.0729 17.9638 81.3086 17.6033 81.5524C17.3299 81.7372 16.9563 81.6827 16.7644 81.4144C16.5979 81.1813 16.4357 80.9432 16.2803 80.6986L15.2792 79.1233C10.2348 70.1116 14.3527 61.7471 15.9803 59.0525C16.2892 58.5411 16.948 58.3713 17.4616 58.6764C19.1524 59.6808 22.473 61.7062 24.6617 63.3384C28.0019 65.8295 31.7925 69.348 31.7925 69.348Z" fill="#FF782C"/>
<path d="M34.4579 45.991C36.8246 48.6697 41.1825 54.0847 43.5989 60.0791C43.9255 60.8894 43.6472 61.8068 42.9575 62.3238L44.5991 64.9071C45.4256 66.2079 45.0399 67.938 43.7393 68.7645L43.5374 68.8928C43.0801 69.1834 42.4735 69.0482 42.1829 68.5909C41.8922 68.1335 42.0275 67.527 42.4849 67.2364L42.6867 67.1082C43.0738 66.8622 43.1887 66.3468 42.9427 65.9597L41.308 63.3873L38.7873 64.989L40.4221 67.5615C41.2486 68.8622 40.863 70.5923 39.5623 71.4189L39.3604 71.5471C38.9031 71.8378 38.2965 71.7026 38.0058 71.2452C37.7152 70.7879 37.8505 70.1814 38.3079 69.8908L38.5097 69.7625C38.8969 69.5164 39.0116 69.0012 38.7656 68.6141L37.138 66.0529L34.2005 68.0204C34.0919 68.0931 33.9735 68.1395 33.8522 68.1672C33.5184 68.2433 33.1595 68.1544 32.9025 67.9038C30.9345 65.9829 24.4285 59.8573 18.7191 57.0455C18.1375 56.7592 17.9824 55.9931 18.4305 55.5247C18.4387 55.516 18.4468 55.5077 18.455 55.4992C18.4696 55.4838 18.4849 55.4689 18.4997 55.4537C18.8067 55.1364 19.1265 54.8284 19.4599 54.5317C19.4683 54.5242 19.4763 54.5163 19.4847 54.5089C19.804 54.2256 20.1387 53.9547 20.4824 53.692C20.55 53.6403 20.6184 53.5898 20.6869 53.5389C21.0313 53.2832 21.3838 53.0345 21.7516 52.8008L32.825 45.764C33.3526 45.4284 34.0439 45.5223 34.4579 45.991Z" fill="#FF782C"/>
<path d="M18.5559 83.4996C18.9167 83.2397 19.28 82.9921 19.6441 82.7506C23.7149 80.1638 29.9678 77.8645 32.1593 77.3701C32.4356 77.3079 32.722 77.3862 32.8735 77.6253L33.023 77.8615C35.1426 81.197 38.9228 82.7767 41.368 83.4844C41.3168 81.371 41.8593 77.9329 45.4391 75.658C49.4312 73.1212 53.6735 75.1877 55.3589 76.6347C56.0195 77.2019 56.0318 78.226 55.3828 78.6385L40.8494 87.8739C33.4794 92.5573 23.859 90.8836 18.4497 84.3007C18.2483 84.056 18.2985 83.6848 18.5559 83.4996ZM51.9405 77.789C52.1348 77.6655 52.1035 77.3716 51.8864 77.2947C50.5362 76.8163 48.6991 76.6236 46.8138 77.8217C44.7491 79.1337 44.0066 80.937 43.7798 82.4095C43.7422 82.6535 44.0149 82.8256 44.2233 82.6932L51.9405 77.789Z" fill="#FF782C"/>
<path d="M36.6433 43.3376L50.9612 34.239C51.6575 33.7966 52.5806 34.0023 53.023 34.6986L53.1966 34.9717C53.564 35.5499 53.8888 36.1429 54.1808 36.7452C55.7972 35.4485 56.2161 33.1097 55.0794 31.3209C53.8603 29.4024 51.3075 28.8334 49.3888 30.0526L27.3781 44.0397L27.3062 44.0817C25.8861 44.8413 22.7406 45.5551 21.0005 42.8168C20.6709 42.2982 20.8243 41.6103 21.343 41.2806C21.8616 40.9511 22.5494 41.1045 22.879 41.6231C23.8913 43.2162 25.884 42.3069 26.2263 42.1345L48.1951 28.1741C51.1494 26.2968 55.0806 27.1732 56.9578 30.1273C58.8266 33.0682 57.9652 36.9757 55.0428 38.8631C57.2826 45.6075 55.2267 53.1869 49.7091 57.851L49.6276 57.9184C49.456 58.06 49.1626 58.293 48.9267 58.4734L50.3661 60.7384C50.9558 59.0779 52.1229 56.7153 54.3203 54.9864C55.5764 53.9995 57.1276 53.6235 58.5761 53.9585C59.8391 54.2508 60.9044 55.0315 61.657 56.2158C61.9476 56.6732 61.8124 57.2798 61.3551 57.5704C60.8977 57.861 60.2911 57.7258 60.0005 57.2685C59.5231 56.5173 58.895 56.0469 58.1337 55.871C57.2801 55.6734 56.3093 55.9201 55.5342 56.529C53.3361 58.2582 52.3561 60.8054 51.9678 62.1698C51.801 62.756 51.3222 63.1741 50.719 63.2618C50.1214 63.3486 49.5259 63.0755 49.2021 62.5658L47.2525 59.4979C46.3572 59.7427 45.3726 59.319 44.9855 58.4143C42.6187 52.882 38.6921 47.9147 36.3642 45.2448C35.8518 44.6574 35.9855 43.7555 36.6433 43.3376ZM49.7765 43.184C50.6056 42.6572 50.8506 41.558 50.3237 40.729C49.7969 39.8999 48.6977 39.6549 47.8687 40.1817C47.0396 40.7086 46.7946 41.8077 47.3214 42.6368C47.8484 43.4658 48.9475 43.7108 49.7765 43.184Z" fill="#FF782C"/>
<path d="M63.2886 49.6561C63.5996 49.9683 63.6721 50.4364 63.4812 50.8337C63.062 51.7063 62.4899 53.3854 63.1268 55.1934C63.2451 55.5293 63.0596 55.8941 62.7125 55.9741C60.3044 56.5296 55.2207 58.0045 50.3555 61.322C49.9847 61.557 49.6185 61.7975 49.2612 62.0461C48.9902 62.2345 48.616 62.1849 48.4205 61.9191C48.251 61.6882 48.0857 61.4523 47.927 61.2097L46.9053 59.6477C41.7428 50.7032 45.7503 42.2852 47.3424 39.5694C47.6444 39.054 48.301 38.8756 48.8185 39.1739C50.5224 40.156 53.8694 42.1375 56.0793 43.7408C59.452 46.1877 63.2886 49.6561 63.2886 49.6561Z" fill="#1B78D4"/>
<path d="M65.6465 26.266C68.0483 28.9134 72.477 34.2706 74.9721 40.2327C75.3093 41.0385 75.0431 41.9596 74.3602 42.4856L76.0357 45.0471C76.8793 46.3368 76.5163 48.072 75.2267 48.9155L75.0265 49.0464C74.5731 49.343 73.9647 49.2158 73.6681 48.7623C73.3715 48.3088 73.4988 47.7006 73.9523 47.404L74.1524 47.2731C74.5363 47.022 74.6443 46.5052 74.3933 46.1214L72.7249 43.5707L70.2255 45.2054L71.8939 47.7562C72.7375 49.0459 72.3747 50.7809 71.085 51.6245L70.8848 51.7555C70.4313 52.0521 69.823 51.9249 69.5264 51.4714C69.2298 51.0179 69.3571 50.4097 69.8105 50.1131L70.0107 49.9822C70.3947 49.731 70.5025 49.2144 70.2514 48.8305L68.5903 46.291L65.679 48.2969C65.5713 48.371 65.4535 48.419 65.3326 48.4483C64.9998 48.5287 64.6398 48.4446 64.3795 48.1974C62.3865 46.3025 55.8004 40.263 50.0545 37.5266C49.4692 37.248 49.304 36.484 49.746 36.0098C49.754 36.001 49.762 35.9925 49.77 35.9839C49.7845 35.9684 49.7996 35.9532 49.8142 35.9378C50.117 35.6165 50.4327 35.3044 50.7622 35.0033C50.7704 34.9957 50.7783 34.9877 50.7866 34.9802C51.1023 34.6927 51.4333 34.4174 51.7735 34.1502C51.8404 34.0977 51.9082 34.0462 51.976 33.9945C52.317 33.7342 52.6662 33.4809 53.0309 33.2424L64.0107 26.0606C64.5339 25.718 65.2264 25.8028 65.6465 26.266Z" fill="#1B78D4"/>
<path d="M50.2393 63.9806C50.5967 63.7159 50.9567 63.4635 51.3176 63.2173C55.354 60.5772 61.5761 58.1958 63.7609 57.6727C64.0363 57.6068 64.3237 57.6813 64.4783 57.9184L64.631 58.1526C66.7943 61.46 70.5949 62.9898 73.0492 63.6652C72.9702 61.5528 73.4674 58.1078 77.017 55.786C80.9754 53.1969 85.2445 55.2074 86.9488 56.6321C87.6168 57.1905 87.6426 58.2144 86.999 58.6354L72.5884 68.0612C65.2807 72.8411 55.6391 71.2941 50.1436 64.783C49.9391 64.541 49.9843 64.1691 50.2393 63.9806ZM83.5459 57.8313C83.7386 57.7053 83.7034 57.4118 83.4853 57.3377C82.1289 56.8771 80.2894 56.7087 78.4201 57.9314C76.3728 59.2705 75.6541 61.0834 75.4467 62.5587C75.4123 62.8032 75.6872 62.9717 75.8939 62.8366L83.5459 57.8313Z" fill="#1B78D4"/>
<path d="M67.7966 23.584L81.9937 14.2979C82.684 13.8463 83.6097 14.0399 84.0613 14.7303L84.2385 15.0011C84.6135 15.5745 84.946 16.1631 85.2459 16.7615C86.8451 15.4437 87.2332 13.0995 86.0731 11.3259C84.8288 9.42357 82.2688 8.8882 80.3663 10.1326L58.5415 24.408L58.4701 24.4509C57.0602 25.2292 53.9243 25.9843 52.1483 23.2691C51.812 22.7548 51.9563 22.065 52.4706 21.7285C52.9849 21.3922 53.6746 21.5365 54.011 22.0508C55.0442 23.6304 57.0247 22.695 57.3648 22.5181L79.148 8.26996C82.0773 6.35394 86.0197 7.17849 87.9356 10.1077C89.843 13.0237 89.033 16.9422 86.1357 18.8679C88.464 25.5823 86.508 33.1881 81.0523 37.9243L80.9717 37.9928C80.802 38.1367 80.5116 38.3735 80.2781 38.5569L81.7471 40.8028C82.315 39.1347 83.4509 36.757 85.6253 34.9993C86.8684 33.996 88.4145 33.5996 89.8673 33.9155C91.134 34.1912 92.2095 34.9578 92.9776 36.1321C93.2742 36.5856 93.147 37.1939 92.6935 37.4906C92.2401 37.7872 91.6317 37.66 91.3351 37.2065C90.8479 36.4616 90.2137 35.9996 89.4501 35.8336C88.594 35.6474 87.6265 35.9068 86.8594 36.5258C84.6843 38.2838 83.7379 40.8436 83.3675 42.2131C83.2085 42.8014 82.7352 43.2257 82.1333 43.3214C81.5369 43.4161 80.9378 43.1508 80.6073 42.6454L78.6176 39.6034C77.7255 39.86 76.7354 39.4492 76.3365 38.5497C73.8971 33.049 69.9055 28.1338 67.5427 25.4948C67.0226 24.9142 67.1444 24.0106 67.7966 23.584ZM80.9267 23.2577C81.7488 22.72 81.9793 21.6178 81.4416 20.7957C80.9039 19.9736 79.8016 19.7431 78.9795 20.2808C78.1575 20.8185 77.9269 21.9208 78.4646 22.7429C79.0025 23.5649 80.1048 23.7954 80.9267 23.2577Z" fill="#1B78D4"/>
<path d="M40.8596 8.9055C41.1034 9.0679 41.3082 9.28238 41.4592 9.53347C41.6101 9.78457 41.7035 10.066 41.7326 10.3576C41.7616 10.6491 41.7256 10.9435 41.6272 11.2194C41.5288 11.4954 41.3703 11.746 41.1633 11.9534L40.7077 12.41C40.611 12.5034 40.5338 12.6152 40.4808 12.7387C40.4277 12.8623 40.3998 12.9951 40.3986 13.1296C40.3974 13.264 40.423 13.3974 40.474 13.5218C40.5249 13.6462 40.6001 13.7593 40.6951 13.8544C40.7902 13.9495 40.9033 14.0246 41.0277 14.0756C41.1521 14.1265 41.2855 14.1521 41.4199 14.1509C41.5544 14.1497 41.6873 14.1218 41.8108 14.0687C41.9343 14.0157 42.0461 13.9385 42.1395 13.8418L42.5951 13.3852C43.0145 12.9665 43.3357 12.4599 43.5356 11.902C43.7355 11.3441 43.809 10.7488 43.7509 10.159C43.6928 9.56926 43.5044 8.99975 43.1995 8.49161C42.8946 7.98346 42.4806 7.54933 41.9876 7.22057C41.7437 7.05817 41.5389 6.84369 41.388 6.5926C41.237 6.3415 41.1436 6.06004 41.1146 5.76851C41.0855 5.47697 41.1215 5.18262 41.2199 4.90667C41.3184 4.63072 41.4768 4.38004 41.6838 4.1727L42.1405 3.71603C42.3249 3.52506 42.427 3.26928 42.4247 3.00378C42.4224 2.73829 42.3159 2.48432 42.1281 2.29658C41.9404 2.10884 41.6864 2.00235 41.4209 2.00004C41.1554 1.99773 40.8997 2.09979 40.7087 2.28424L40.252 2.74092C39.833 3.15978 39.512 3.6664 39.3124 4.22425C39.1127 4.7821 39.0393 5.37729 39.0974 5.96694C39.1556 6.55658 39.3437 7.12599 39.6485 7.63413C39.9532 8.14228 40.3668 8.5765 40.8596 8.9055Z" fill="#FF782C"/>
<path d="M34.7886 8.91887C35.0324 9.08127 35.2372 9.29574 35.3882 9.54684C35.5391 9.79793 35.6325 10.0794 35.6616 10.3709C35.6906 10.6625 35.6546 10.9568 35.5562 11.2328C35.4578 11.5087 35.2993 11.7594 35.0923 11.9667L34.6357 12.4234C34.539 12.5168 34.4618 12.6285 34.4087 12.7521C34.3557 12.8756 34.3277 13.0085 34.3266 13.1429C34.3254 13.2774 34.351 13.4107 34.4019 13.5352C34.4529 13.6596 34.528 13.7727 34.6231 13.8677C34.7182 13.9628 34.8312 14.038 34.9557 14.0889C35.0801 14.1398 35.2135 14.1655 35.3479 14.1643C35.4824 14.1631 35.6152 14.1352 35.7388 14.0821C35.8623 14.029 35.974 13.9519 36.0675 13.8552L36.5241 13.3985C36.9432 12.9796 37.2641 12.473 37.4638 11.9152C37.6634 11.3573 37.7368 10.7621 37.6787 10.1725C37.6206 9.58285 37.4324 9.01344 37.1277 8.5053C36.823 7.99716 36.4093 7.56294 35.9166 7.23393C35.6727 7.07153 35.4679 6.85706 35.317 6.60596C35.166 6.35487 35.0726 6.07341 35.0436 5.78187C35.0145 5.49034 35.0505 5.19598 35.1489 4.92003C35.2474 4.64408 35.4058 4.3934 35.6128 4.18607L36.0685 3.7294C36.2583 3.53913 36.3648 3.28122 36.3646 3.01243C36.3643 2.74363 36.2572 2.48596 36.0669 2.29609C35.8767 2.10622 35.6188 1.99972 35.35 2C35.0812 2.00029 34.8235 2.10734 34.6336 2.29761L34.178 2.75428C33.7586 3.17297 33.4374 3.67955 33.2375 4.23745C33.0376 4.79534 32.9641 5.39065 33.0222 5.98042C33.0804 6.57018 33.2687 7.13968 33.5736 7.64783C33.8785 8.15598 34.2925 8.5901 34.7855 8.91887H34.7886Z" fill="#FF782C"/>
</svg>
