<svg width="1440" height="409" viewBox="0 0 1440 409" fill="none" xmlns="http://www.w3.org/2000/svg">
<mask id="mask0" mask-type="alpha" maskUnits="userSpaceOnUse" x="0" y="0" width="1440" height="408">
<rect width="1440" height="408" fill="#C4C4C4"/>
</mask>
<g mask="url(#mask0)">
<path fill-rule="evenodd" clip-rule="evenodd" d="M0 0L720 2.5H1440C1440 2.5 1440 84.0005 1440 243C1345.48 217.123 1151 175.165 785 160C419 144.836 0 217.123 0 217.123V0Z" fill="url(#paint0_linear)"/>
<path fill-rule="evenodd" clip-rule="evenodd" d="M1439.98 408.037C1356.98 333.752 1084.98 166.775 530 166.775C1013.98 116.606 1372.98 187.433 1439.98 198.399C1439.98 241.281 1439.98 374.372 1439.98 408.037Z" fill="#1B78D4"/>
<mask id="mask1" mask-type="alpha" maskUnits="userSpaceOnUse" x="530" y="148" width="910" height="261">
<path fill-rule="evenodd" clip-rule="evenodd" d="M1439.98 408.037C1356.98 333.752 1084.98 166.775 530 166.775C1013.98 116.606 1372.98 187.433 1439.98 198.399C1439.98 241.281 1439.98 374.372 1439.98 408.037Z" fill="white"/>
</mask>
<g mask="url(#mask1)">
<path fill-rule="evenodd" clip-rule="evenodd" d="M1439.98 291.704C1336.98 244.309 978.976 139.232 534.976 162.84C772.976 74.3078 1388.98 164.356 1439.98 190.143C1439.98 233.025 1439.98 258.04 1439.98 291.704Z" fill="#5099DE"/>
</g>
</g>
<defs>
<linearGradient id="paint0_linear" x1="213.492" y1="385.478" x2="213.492" y2="146.981" gradientUnits="userSpaceOnUse">
<stop offset="0.651042" stop-color="#ADCDE6"/>
<stop offset="1" stop-color="white" stop-opacity="0"/>
</linearGradient>
</defs>
</svg>
