<?xml version="1.0" encoding="utf-8"?>
<svg xmlns="http://www.w3.org/2000/svg" width="58" height="86" fill="none" viewBox="0 0 58 86">
    <path fill="#1B78D4" fill-rule="evenodd" d="M18.248 0a.707.707 0 0 0-.245.057l-2.842 1.202a.707.707 0 0 0-.429.722l.08.8-.11.137h-.541a.707.707 0 0 0-.418.136l-.803.584-.306-.383a.707.707 0 0 0-.856-.195l-.84.4a.707.707 0 0 0-.347.367l-.234.561-1.041-.957a.707.707 0 0 0-1.127.239l-.082.186-.092-.095c-.113-.115-.182-.191-.304-.289-.248-.199-.601-.165-.748-.106-.148.058-.212.118-.27.17a1.955 1.955 0 0 0-.275.3 9.692 9.692 0 0 0-.506.74c-.14.223-.16.264-.27.449A412.612 412.612 0 0 1 3.296 3.61c-.092-.057-.2-.136-.125-.078a.707.707 0 0 0-.866.015l-.364.29A.707.707 0 0 0 1.793 4L.918 5.33l-.513.243a.707.707 0 0 0-.273 1.051l1.094 1.53a.707.707 0 0 0 .108.12l1.353 1.192.207 1.008a.707.707 0 0 0 1.01.491l.493-.246.03-.011-.014.597-.425 2.053a.707.707 0 0 0 .28.716L6.6 15.752c.052.037.109.068.17.09l2.187.802a.707.707 0 0 0 .907-.42l.267-.722.888-.444 1.842.944-.465.603a.707.707 0 0 0 .028.898l.51.584a.708.708 0 0 0 .603.237l-.01.112a.708.708 0 0 0 .482.73l1.155.386-.198.97-.508.19a.707.707 0 0 0-.406.394l-.092.222-.114.01-.283-.243a.707.707 0 0 0-.435-.17l-.984-.037a.707.707 0 0 0-.237.032l-1.056.328a.707.707 0 0 0-.46.907l.165.47-.116.144-.55.338a.707.707 0 0 0-.041 1.18l.875.62c.022.015.044.029.067.042l1.344.743 1.932 1.43c.07.051.149.09.233.113l2.116.582.019.075-.065.946a.707.707 0 0 0 .138.469l1.129 1.53a.708.708 0 0 0 .722.27l.187-.04 1.7 2.517c.018.028.039.055.061.08l2.115 2.333a.707.707 0 0 0 .606.228l.435 1.002a.707.707 0 0 0 .517.413l.202.037.026 1.467a.706.706 0 0 0 .313.577l.127.084.07.207c.02.063.05.122.087.177l.401.582a.708.708 0 0 0 1.06.123.706.706 0 0 0 .153.232l.437.439c.11.108.252.179.405.2l.19.025v.112a.707.707 0 0 0 .514.681l.35.1.314.287a.72.72 0 0 0 .064.052l-.6.347a.708.708 0 0 0-.252.973l.557.936.197.497a.707.707 0 0 0 .282.336l.262.164.628.487c.113.088.248.14.39.15h-.25l.012.563a.707.707 0 0 0-.553.425l-.183.439a.707.707 0 0 0 .314.892l.047.026a.707.707 0 0 0-.077.454l.056.337-.14 1.148h.024a.707.707 0 0 0-.597.81l.07.446-.314.55a.707.707 0 0 0-.084.458l.145.95a.707.707 0 0 0 .467.56l.035.648a.707.707 0 0 0 .696.668h-.21l.265.65.136.87-.711 1.518a.706.706 0 0 0-.066.274l-.037.984a.709.709 0 0 0 .261.576l.303.247-.015.267-.217 1.61.036.036a.707.707 0 0 0-.66-.189l-.947.219a.707.707 0 0 0-.379.231l-.851 1.002-.687.105a.707.707 0 0 0-.508.352l-.106.187-1.222-.106a.706.706 0 0 0-.767.742l.05.911-.414-.177a.7.7 0 0 0-.088-.032l-.913-.255a.707.707 0 0 0-.787.304l-.23.364h.097a.707.707 0 0 0-.477.184l-.437.402a.708.708 0 0 0 .254 1.192l-.04-.013.034.135-.102.266a.707.707 0 0 0-.021.448l.22.765a.707.707 0 0 0 .12.236.707.707 0 0 0-.54.022l-.785.366-.405-.114a.707.707 0 0 0-.779.29l-.19.285-.547-.222-.218-.165a.707.707 0 0 0-.991.142l-.327.439a.708.708 0 0 0-.086.698l.153.362-.171.093a.707.707 0 0 0-.243.22l-.315.463-.939-.076a.707.707 0 0 0-.439.11l-.91.582a.708.708 0 0 0-.234.948l.986 1.713a.707.707 0 0 0 1.265-.08l.013-.028.401.403c.13.129.303.202.486.206l-.54.332a.706.706 0 0 0-.33.53l-.366 3.536a.702.702 0 0 0-.004.062l-.035 2.516c0 .06.006.12.02.179l-.24.233a.708.708 0 0 0 .295 1.189l.51.145a.706.706 0 0 0 .356.012l1.713-.401a.707.707 0 0 0 .267-.126l1.056-.802a.707.707 0 0 0 .235-.314l.448-1.186.439-.389 3.316-1.375a.707.707 0 0 0 .435-.685l-.032-.696.21.16a.707.707 0 0 0 .6.123l.584-.145a.708.708 0 0 0 .482-.418l.255-.62a.707.707 0 0 0 .049-.341.707.707 0 0 0 .138-.097l.401-.364a.708.708 0 0 0 .18-.786l-.05-.125.524-.545a.707.707 0 0 0-.01-.99.705.705 0 0 0 .108-.598l-.091-.332c.049.027.1.05.155.065l1.821.547a.708.708 0 0 0 .598-.088l2.446-1.631h1.135a.707.707 0 0 0 .657-.448l.358-.909.73.043a.707.707 0 0 0 .748-.683v.204a.707.707 0 0 0 .56-.417l.23-.52.595-.041a.708.708 0 0 0 .547-.329l.252-.4.422-.04a.706.706 0 0 0 .17-.038l.51-.183a.707.707 0 0 0 .449-.498l.237-.976.477-.397a.707.707 0 0 0 .247-.644l-.032-.23.011-.01a.709.709 0 0 0 .35-.977l-.312-.594.09-1.595a.706.706 0 0 0 .486-1l-.418-.857 1.083-1.252a.707.707 0 0 0 .078-.81l-.825-1.454-.03-.904.036-2.754a.704.704 0 0 0-.026-.205l-.935-3.233-.249-1.773a.704.704 0 0 0-.048-.179l-.693-1.627-.134-.963a.707.707 0 0 0-.125-.316l-1.094-1.53a.699.699 0 0 0-.09-.103l-1.233-1.168-.343-.873a.708.708 0 0 0-.166-.25l-.75-.725.061-.209a.707.707 0 0 0-.313-.806l-1.46-.873a.708.708 0 0 0-.496-.088l-.211.04-.03-.068a.707.707 0 0 0-.175-.243l-3.33-2.978-.159-.45a.707.707 0 0 0-.205-.3l-2.517-2.169-.855-1.708.2-.226a.706.706 0 0 0-.077-1.007l-2.079-1.749h-.004l-1.222-1.02-1.103-1.805-.303-.853.004-.019.428-.454a.705.705 0 0 0 .1-.138l.327-.582a.707.707 0 0 0 .09-.392l-.096-1.536 1.01-1.74.523-.02a.707.707 0 0 0 .472-.207l1.28-1.28.767-.592a.708.708 0 0 0 .274-.54l.03-1.068.894-.894a.707.707 0 0 0 .204-.577l-.03-.276a.706.706 0 0 0 .403-.166l.233-.198.013.015a.706.706 0 0 0 .693.179l1.42-.401a.707.707 0 0 0 .515-.646l.037-.797.107.01a.71.71 0 0 0 .518-.165l1.188-1.006.934.11a.707.707 0 0 0 .728-.989l-.436-.983a.707.707 0 0 0-.764-.41l-1.146.19-2.002-.624-.909-.476-.019.045a.707.707 0 0 0-.548-.961l-1.393-.215-.205-1.21a.707.707 0 0 0-.35-.497l-.07-.04.12-.347.23-.125a.707.707 0 0 0 .339-.41l.364-1.169a.707.707 0 0 0-.379-.852l-1.35-.62a.707.707 0 0 0-.492-.036l-.829.241-.864-.53a.707.707 0 0 0-.761.015l-.278.185-1.657-.456.007-.125a.708.708 0 0 0-.222-.552L18.763.192A.706.706 0 0 0 18.248 0z" clip-rule="evenodd"/>
    <circle cx="41.987" cy="51.093" r="7.588" fill="#fff"/>
    <path fill="#FF782C" d="M27.405 73.362c-.29.023-.586-.186-.634-.474l-4.905-31.055c-.059-.244.218-.455.5-.434.29-.023.585.186.634.474l4.915 31.011c.004.232-.218.455-.51.478zM38.618 54.882c.413-1.494.633-2.307.971-3.684-.856-.71-.856-.71-4.318-3.14.198.012.397.023.643.048 1.476.15 2.925.431 4.3.828.043-.448.043-.448 1.047-3.57.452.961 1.107 2.395 2.05 4.374 1.203.255 2.367.454 3.446.581.492.05.937.087 1.382.123-1.343 1.133-1.408 1.207-3.633 1.993.52 1.118 1.079 2.294 1.927 4.245-1.037-.807-2.34-1.783-4.187-3.285-1.633.358-1.633.358-3.628 1.487zM58 59.517l-2.537-19.36c-.985.868-2.695 2.08-5.926 2.39-1.18.12-2.429.082-3.858-.054-1.92-.187-4.032-.66-6.354-1.33a26.086 26.086 0 0 0-4.441-.87 23.142 23.142 0 0 0-4-.095c-2.693.143-5.222.703-6.747 1.507l2.49 19.346c1.524-.804 4.053-1.364 6.746-1.508 1.323-.078 2.666-.012 4 .096 1.524.164 3.02.459 4.441.87 2.322.67 4.434 1.143 6.355 1.33 1.381.122 2.677.174 3.857.054 3.23-.31 4.941-1.522 5.974-2.376z"/>
</svg>
