<?xml version="1.0" encoding="utf-8"?>
<svg xmlns="http://www.w3.org/2000/svg" width="96" height="96" viewBox="0 0 96 96">
    <g fill="none" fill-rule="evenodd">
        <path fill="#1B78D4" d="M89.48 38.826c-4.187-3.737-9.805-6.952-15.823-9.055l-.011-.004-.02-.007a52.165 52.165 0 0 0-8.493-2.182c-1.69-2.049-7.294-7.996-16.998-10.251a5.372 5.372 0 0 0-4.58 1.034 5.411 5.411 0 0 0-2.059 4.26v7.706c-9.114 4.012-16.34 10.553-20.224 14.57-.579-2.92-1.861-6.612-4.693-9.443-5.391-5.391-14.07-5.167-14.435-5.155a2.021 2.021 0 0 0-1.953 1.954c-.012.366-.234 9.041 5.157 14.432 1.338 1.338 2.87 2.319 4.431 3.04-1.56.736-3.094 1.727-4.431 3.064C-.042 58.182.178 66.857.19 67.224a2.021 2.021 0 0 0 1.953 1.953c.035.002.144.005.318.005 1.662 0 9.237-.28 14.117-5.162 2.855-2.855 4.135-6.63 4.706-9.606 2.85 2.94 7.49 7.235 13.359 10.906v7.065c0 1.733.797 3.32 2.186 4.355a5.391 5.391 0 0 0 4.805.848c4.89-1.46 8.591-4.125 10.306-5.53 1.652.243 3.299.367 4.907.367 5.52 0 11.044-.928 16.417-2.76.004 0 .007-.002.01-.003C85.807 65.392 96 56.416 96 49.651c.001-3.228-2.314-7.072-6.519-10.825zm-81.273 5c-2.766-2.765-3.61-6.916-3.867-9.384 2.464.25 6.6 1.09 9.381 3.87 2.763 2.764 3.61 6.837 3.866 9.255-2.428-.203-6.606-.967-9.38-3.74zm5.514 17.336c-2.764 2.764-6.91 3.61-9.38 3.866.257-2.47 1.103-6.616 3.866-9.38 2.775-2.775 6.945-3.616 9.385-3.868-.25 2.463-1.09 6.6-3.871 9.382zM45.539 22.62c0-.429.193-.827.53-1.094.192-.154.599-.391 1.151-.263a28.258 28.258 0 0 1 11.464 5.647 48.591 48.591 0 0 0-1.835-.035c-3.69 0-7.482.637-11.31 1.896v-6.151zm-5.06 51.093a1.383 1.383 0 0 1-1.233-.217 1.36 1.36 0 0 1-.56-1.112v-4.758c2.67 1.379 5.336 2.464 7.977 3.252-1.621 1.016-3.727 2.102-6.184 2.835zm16.37-5.332c-1.684 0-3.422-.154-5.162-.457-4.547-.796-9.252-2.636-13.982-5.471-7.452-4.467-13.064-10.279-15.322-12.804 2.876-3.218 11.193-11.765 21.893-16.11l.038-.015c4.272-1.73 8.489-2.607 12.535-2.607 2.276 0 4.589.177 6.876.525 1.745.266 3.49.635 5.217 1.1-4.242 4.503-6.935 11.136-6.935 17.56 0 5.865 2.6 12.195 6.69 16.72a46.29 46.29 0 0 1-11.848 1.56zm16.186-2.924c-4.213-3.797-6.985-9.827-6.985-15.355 0-6.047 2.951-12.521 7.275-16.153 11.572 4.328 18.633 11.962 18.633 15.7 0 3.802-7.17 11.502-18.923 15.808z"/>
        <path fill="#FF782C" d="M80.497 47.176a2.022 2.022 0 0 0-2.022 2.021v.906a2.022 2.022 0 0 0 4.043 0v-.906a2.022 2.022 0 0 0-2.021-2.021zM59.565 36.062a2.021 2.021 0 0 0-2.858.074c-.194.204-.385.418-.569.636a2.02 2.02 0 1 0 3.092 2.605c.132-.157.27-.31.408-.457a2.021 2.021 0 0 0-.073-2.858zM59.331 60.792c-2.247-2.586-3.535-6.51-3.535-10.766 0-2.382.417-4.725 1.206-6.778a2.022 2.022 0 0 0-3.773-1.45c-.966 2.51-1.476 5.355-1.476 8.228 0 5.215 1.65 10.106 4.526 13.417.4.46.962.696 1.527.696a2.021 2.021 0 0 0 1.525-3.347z"/>
    </g>
</svg>
