<?xml version="1.0" encoding="utf-8"?>
<svg xmlns="http://www.w3.org/2000/svg" width="96" height="96" viewBox="0 0 96 96">
    <g fill="none" fill-rule="evenodd">
        <path fill="#1B78D4" d="M22.243 32.978c34.922-.066 52.344-.065 52.265.001a7.47 7.47 0 0 1 1.992 5.084c0 4.135-3.365 7.5-7.5 7.5h-.77a21.508 21.508 0 0 1-6.73 10.615v4.947h5.625c2.662 0 5.252.53 7.71 1.573.41.045.778.223 1.065.49 3.397 1.676 6.298 4.272 8.408 7.539 2.252 3.485 3.442 7.491 3.442 11.585v11.813c0 1.035-.84 1.875-1.875 1.875h-75A1.875 1.875 0 0 1 9 94.125V82.312c0-4.094 1.19-8.1 3.442-11.585 2.11-3.267 5.01-5.863 8.409-7.54a1.866 1.866 0 0 1 1.064-.49 19.616 19.616 0 0 1 7.71-1.572h5.625v-4.948a21.552 21.552 0 0 1-6.735-10.614h-.765c-4.136 0-7.5-3.365-7.5-7.5a7.47 7.47 0 0 1 1.993-5.085zM20.25 92.25V67.898c-4.578 3.245-7.5 8.711-7.5 14.415v9.937h7.5zM69 41.812a3.754 3.754 0 0 0 3.75-3.75 3.754 3.754 0 0 0-3.75-3.75v5.626c0 .625-.03 1.25-.085 1.874H69zm-41.25 0h.085a21.023 21.023 0 0 1-.085-1.874v-5.626a3.754 3.754 0 0 0-3.75 3.75 3.754 3.754 0 0 0 3.75 3.75zm4.09 1.535a17.78 17.78 0 0 0 6.532 10.543c2.936 2.28 6.394 3.485 10.003 3.485s7.067-1.205 10-3.483a17.762 17.762 0 0 0 6.534-10.546l.012-.06a17.3 17.3 0 0 0 .329-3.349v-5.624H31.5v5.624c0 1.122.111 2.249.329 3.35l.012.06zM46.5 92.25V75.562L36.322 64.876H31.5v11.813a1.875 1.875 0 1 1-3.75 0V64.986a15.87 15.87 0 0 0-3.75.915V92.25h3.75v-4.313a1.875 1.875 0 1 1 3.75 0v4.313h15zm-7.5-30l9.375 9.844 9.375-9.844v-3.492a19.705 19.705 0 0 1-9.375 2.367c-3.295 0-6.482-.812-9.375-2.367v3.492zm33.75 30V65.902a15.873 15.873 0 0 0-3.75-.916v11.701a1.875 1.875 0 1 1-3.75 0V64.876h-4.822L50.25 75.563V92.25h15v-4.313a1.875 1.875 0 1 1 3.75 0v4.313h3.75zm11.25 0v-9.938c0-5.703-2.922-11.17-7.5-14.414V92.25H84z"/>
        <path fill="#FF782C" d="M67.125 80.438a1.876 1.876 0 1 0 .001 3.75 1.876 1.876 0 0 0-.001-3.75zM29.625 80.438a1.876 1.876 0 1 0 .001 3.75 1.876 1.876 0 0 0-.001-3.75z"/>
        <path fill="#FF782C" fill-rule="nonzero" d="M72.976 29H22.5a1.5 1.5 0 0 0 0 3h52a1.5 1.5 0 0 0 0-3h-1.524zm-48.105-3C28.332 12.667 36.219 6 48.53 6c12.313 0 20.23 6.667 23.75 20H74.5a4.5 4.5 0 1 1 0 9h-52a4.5 4.5 0 1 1 0-9h2.37zm3.103 0h41.2C65.915 14.454 59.163 9 48.531 9s-17.354 5.452-20.558 17z"/>
    </g>
</svg>
