<?xml version="1.0" encoding="utf-8"?>
<svg xmlns="http://www.w3.org/2000/svg" width="96" height="96" viewBox="0 0 96 96">
    <g fill="none" fill-rule="nonzero">
        <path fill="#1B78D4" d="M66.623 28c1.533 0 1.924 2.377.465 3.525l-25.794 30.92v19.408h3.63c3.428 0 6.537 1.394 8.789 3.643a12.378 12.378 0 0 1 3.647 8.78c0 .476-.193.907-.506 1.22a1.721 1.721 0 0 1-1.22.504h-43.02a1.721 1.721 0 0 1-1.725-1.724c0-3.425 1.395-6.53 3.647-8.78a12.403 12.403 0 0 1 8.789-3.643h3.63V62.45L.403 30.831a1.72 1.72 0 0 1 .395-2.561c.271-.173.591-.27.927-.27H66.623zM17 45.462L29.413 60h9.401L52 44.453l-5.069 1.245c-4.818 1.184-10.057.989-14.753-.55A22.8 22.8 0 0 0 17 45.462zM54 93a8.994 8.994 0 0 0-3.62-5.608 8.855 8.855 0 0 0-5.146-1.642h-5.322a1.722 1.722 0 0 1-1.715-1.723V64h-7.393v20.027a1.722 1.722 0 0 1-1.715 1.723h-5.324c-1.914 0-3.69.608-5.145 1.642A8.994 8.994 0 0 0 15 93h39zm1.884-53.158L63 31H6l9.445 11.657c5.81-2.623 12.265-2.927 18.32-.837a22.036 22.036 0 0 0 12.576.493l9.543-2.47z"/>
        <path fill="#FF782C" d="M90.768 19.588a22.84 22.84 0 0 1-3.118 15.166 22.834 22.834 0 0 1-12.619 9.878 6.989 6.989 0 0 1-2.473 4.72A7.011 7.011 0 0 1 68.034 51a7.022 7.022 0 0 1-4.966-2.05 6.953 6.953 0 0 1 0-9.883 7.022 7.022 0 0 1 5.811-1.998c.222.026.445.062.668.11a20.726 20.726 0 0 0 2.09-9.036 3.55 3.55 0 0 0-.589-1.96 3.613 3.613 0 0 0-2.276-1.546h-3.277l-16.274-.195c-1.748.079-2.936-.235-3.566-.94-.63-.705-.806-1.489-.526-2.35.452-6.081 3.304-11.5 7.608-15.33A22.946 22.946 0 0 1 68.034 0 22.935 22.935 0 0 1 83.05 5.575c4.085 3.52 6.915 8.447 7.718 14.013zM63.975 43.43a3.53 3.53 0 0 0 1.064 2.523A3.645 3.645 0 0 0 67.602 47c1 0 1.907-.4 2.563-1.046a3.53 3.53 0 0 0 1.063-2.523 3.53 3.53 0 0 0-1.063-2.523 3.645 3.645 0 0 0-2.563-1.046c-1 0-1.907.4-2.563 1.046a3.53 3.53 0 0 0-1.064 2.523zm10.93-3.072c5.402-2.117 9.513-6.464 11.338-11.778.307-.894.546-1.805.716-2.726-.647.62-1.36 1.166-2.12 1.631a12.518 12.518 0 0 1-9.129 1.576 12.665 12.665 0 0 1-1.064-.272 23.877 23.877 0 0 1-2.439 9.363 7.066 7.066 0 0 1 1.522 1.805c.134.227.254.461.36.7.273-.093.545-.193.815-.299zM53.274 9.105c-2.946 3.081-4.88 7.11-5.275 11.565h17.113c.499-1.118.765-2.334.765-3.569a8.739 8.739 0 0 0-2.632-6.245 9.022 9.022 0 0 0-6.345-2.59c-1.139 0-2.24.206-3.626.839zm8.212-5.146c-.896.289-1.778.643-2.638 1.065a12.473 12.473 0 0 1 8.325 5.208 12.013 12.013 0 0 1 2.152 6.869 12.079 12.079 0 0 1-.57 3.663c.303.049.603.117.9.206 1.907.57 3.476 1.915 4.775 4.099a9.058 9.058 0 0 0 9.317-.953c1.534-1.154 2.691-2.787 3.237-5.1-.816-4.58-3.271-8.613-6.748-11.485A19.779 19.779 0 0 0 67.602 3c-2.134 0-4.19.338-6.115.959z"/>
    </g>
</svg>
