<?xml version="1.0" encoding="utf-8"?>
<svg xmlns="http://www.w3.org/2000/svg" width="12" height="12" viewBox="0 0 12 12">
    <path fill="#FFF" fill-rule="evenodd" d="M10.616 12H1.384C.62 12 0 11.38 0 10.615v-9.23C0 .62.62 0 1.384 0h9.232C11.38 0 12 .62 12 1.384v9.23C12 11.38 11.38 12 10.616 12zM6 3.692a2.308 2.308 0 1 0 0 4.616 2.308 2.308 0 0 0 0-4.616zm4.616-1.846a.462.462 0 0 0-.462-.462H8.769a.461.461 0 0 0-.46.462V3.23a.46.46 0 0 0 .46.46h1.385a.461.461 0 0 0 .462-.46V1.846zm0 3.23H9.572A3.692 3.692 0 1 1 2.309 6c0-.318.044-.627.12-.923H1.384v5.078c0 .254.208.46.462.46h8.308a.462.462 0 0 0 .462-.46V5.076z"/>
</svg>
