<?xml version="1.0" encoding="utf-8"?>
<svg xmlns="http://www.w3.org/2000/svg" width="16" height="16" viewBox="0 0 16 16">
    <path fill="#fff" fill-rule="evenodd" d="M1.924 0c1.06 0 1.921.863 1.921 1.926s-.86 1.926-1.921 1.926A1.923 1.923 0 0 1 0 1.926C0 .863.859 0 1.924 0zM.264 16V5.313h3.318V16H.264zM5.662 5.312H8.84v1.461h.045c.443-.84 1.524-1.726 3.138-1.726C15.38 5.047 16 7.261 16 10.138V16h-3.315v-5.198c0-1.24-.021-2.833-1.723-2.833-1.725 0-1.989 1.35-1.989 2.745V16h-3.31V5.312z"/>
</svg>
