<?xml version="1.0" encoding="utf-8"?>
<svg xmlns="http://www.w3.org/2000/svg" width="96" height="96" viewBox="0 0 96 96">
    <g fill="none" fill-rule="evenodd">
        <path fill="#1B78D4" d="M95.994 67.22c0 .605-.245 1.152-.641 1.548a2.18 2.18 0 0 1-1.547.64 17.278 17.278 0 0 1-9.773-3.03 16.237 16.237 0 0 1-1.68-1.309 16.453 16.453 0 0 1-1.68 1.31 17.277 17.277 0 0 1-19.546 0 16.237 16.237 0 0 1-1.68-1.309 16.453 16.453 0 0 1-1.68 1.308 17.277 17.277 0 0 1-21.226-1.31 16.239 16.239 0 0 1-1.68 1.31 17.28 17.28 0 0 1-21.226-1.31 16.239 16.239 0 0 1-1.68 1.31 17.279 17.279 0 0 1-9.774 3.03 2.18 2.18 0 0 1-1.547-.64 2.181 2.181 0 0 1-.64-1.547c0-.604.245-1.151.64-1.547a2.18 2.18 0 0 1 1.547-.641c3.762 0 7.333-1.638 9.796-4.496a2.188 2.188 0 0 1 3.314 0 12.927 12.927 0 0 0 9.796 4.495c3.762 0 7.333-1.638 9.797-4.496a2.188 2.188 0 0 1 3.313 0 12.927 12.927 0 0 0 9.796 4.496c3.762 0 7.333-1.638 9.796-4.496a2.188 2.188 0 0 1 3.314 0 12.927 12.927 0 0 0 9.797 4.496c3.762 0 7.332-1.638 9.796-4.495a2.188 2.188 0 0 1 3.313 0 12.928 12.928 0 0 0 9.797 4.496c.604 0 1.151.245 1.547.64.396.397.64.944.64 1.548z"/>
        <path fill="#FF782C" d="M95.994 50.138c0 .604-.245 1.151-.641 1.547a2.18 2.18 0 0 1-1.547.64 17.279 17.279 0 0 1-9.773-3.03 16.237 16.237 0 0 1-1.68-1.309 16.452 16.452 0 0 1-1.68 1.31 17.277 17.277 0 0 1-19.546 0 16.237 16.237 0 0 1-1.68-1.309 16.452 16.452 0 0 1-1.68 1.308 17.277 17.277 0 0 1-21.226-1.308 16.453 16.453 0 0 1-1.68 1.308 17.28 17.28 0 0 1-21.226-1.308 16.453 16.453 0 0 1-1.68 1.308 17.279 17.279 0 0 1-9.774 3.03 2.18 2.18 0 0 1-1.547-.64 2.181 2.181 0 0 1-.64-1.547c0-.604.245-1.151.64-1.547a2.18 2.18 0 0 1 1.547-.641c3.762 0 7.333-1.638 9.796-4.496a2.188 2.188 0 0 1 3.314 0 12.927 12.927 0 0 0 9.796 4.496c3.762 0 7.333-1.639 9.797-4.496a2.188 2.188 0 0 1 3.313 0 12.927 12.927 0 0 0 9.796 4.495c3.762 0 7.333-1.638 9.796-4.495a2.188 2.188 0 0 1 3.314 0A12.927 12.927 0 0 0 70.9 47.95c3.762 0 7.332-1.639 9.796-4.496a2.188 2.188 0 0 1 3.313 0 12.928 12.928 0 0 0 9.797 4.496c.604 0 1.15.245 1.547.64.396.397.64.944.64 1.548z"/>
        <path fill="#1B78D4" d="M-.006 33.055c0-.604.245-1.151.64-1.547a2.18 2.18 0 0 1 1.547-.641c3.762 0 7.333-1.638 9.797-4.496a2.188 2.188 0 0 1 3.313 0 12.926 12.926 0 0 0 9.797 4.495c3.762 0 7.332-1.638 9.796-4.496a2.188 2.188 0 0 1 3.314 0 12.927 12.927 0 0 0 9.796 4.496c3.762 0 7.332-1.638 9.796-4.496a2.188 2.188 0 0 1 3.313 0 12.927 12.927 0 0 0 9.797 4.496c3.762 0 7.333-1.638 9.796-4.495a2.188 2.188 0 0 1 3.314 0 12.928 12.928 0 0 0 9.796 4.496 2.18 2.18 0 0 1 1.547.64c.396.397.64.944.64 1.548 0 .604-.244 1.151-.64 1.547a2.18 2.18 0 0 1-1.547.64 17.279 17.279 0 0 1-9.773-3.03 16.237 16.237 0 0 1-1.68-1.309 16.452 16.452 0 0 1-1.68 1.31 17.277 17.277 0 0 1-19.546 0 16.237 16.237 0 0 1-1.68-1.309 16.452 16.452 0 0 1-1.68 1.308 17.277 17.277 0 0 1-21.226-1.309 16.453 16.453 0 0 1-1.68 1.31 17.28 17.28 0 0 1-21.226-1.31 16.453 16.453 0 0 1-1.68 1.31 17.279 17.279 0 0 1-9.774 3.03 2.18 2.18 0 0 1-1.547-.641 2.181 2.181 0 0 1-.64-1.547z"/>
    </g>
</svg>
