<svg width="1440" height="336" viewBox="0 0 1440 336" fill="none" xmlns="http://www.w3.org/2000/svg">
<mask id="mask0" mask-type="alpha" maskUnits="userSpaceOnUse" x="0" y="0" width="1440" height="336">
<rect width="1440" height="336" fill="#C4C4C4"/>
</mask>
<g mask="url(#mask0)">
<path d="M916.5 285.222C1193.57 242.597 1459 274.056 1561 287.722V-47.7778H113.5L-36 78.2222C90.5 304.722 624 330.222 916.5 285.222Z" fill="url(#paint0_linear)"/>
<path fill-rule="evenodd" clip-rule="evenodd" d="M1945.87 267.312C1776.24 271.019 1308.16 186.26 843.817 295.045C1289.77 241.118 1754.05 369.511 1972.67 452.273L1945.87 267.312Z" fill="#1B78D4"/>
<path fill-rule="evenodd" clip-rule="evenodd" d="M1945.18 267.099C1775.66 270.774 1307.88 186.066 843.816 294.614C1172.49 229.682 1691.98 280.105 1958.71 360.481L1945.18 267.099Z" fill="#5099DE"/>
</g>
<defs>
<linearGradient id="paint0_linear" x1="200.768" y1="509.833" x2="200.768" y2="164.836" gradientUnits="userSpaceOnUse">
<stop stop-color="#ADCDE6"/>
<stop offset="1" stop-color="white"/>
</linearGradient>
</defs>
</svg>
