<svg width="458" height="561" viewBox="0 0 458 561" fill="none" xmlns="http://www.w3.org/2000/svg">
<path fill-rule="evenodd" clip-rule="evenodd" d="M84.5645 459.624C85.4287 417.302 26.7547 359.163 -90.1472 367.828C-207.049 376.494 -237.766 244.766 -297.391 275.39C-357.015 306.014 -178.463 430.616 -110.242 458.571C-42.021 486.525 83.7003 501.947 84.5645 459.624Z" stroke="#E6F0F8"/>
<path fill-rule="evenodd" clip-rule="evenodd" d="M17.0422 442.684C17.6252 415.127 -20.6208 377.291 -96.8792 382.973C-173.138 388.656 -193.114 302.895 -232.021 322.856C-270.927 342.817 -154.516 423.887 -110.029 442.065C-65.5411 460.244 16.4591 470.242 17.0422 442.684Z" stroke="#E6F0F8"/>
<path fill-rule="evenodd" clip-rule="evenodd" d="M-4.26365 317.224C-100.752 363.567 -276.886 278.872 -294.862 167.879C-312.838 56.8856 -79.1755 20.6226 -3.75718 82.2689C71.6612 143.915 92.2244 270.881 -4.26365 317.224Z" stroke="#E6F0F8"/>
<path fill-rule="evenodd" clip-rule="evenodd" d="M-32.4832 286.211C-104.648 320.787 -236.323 257.669 -249.727 174.909C-263.13 92.1481 -88.396 65.0595 -32.0232 111.012C24.3496 156.964 39.6818 251.635 -32.4832 286.211Z" stroke="#E6F0F8"/>
<path fill-rule="evenodd" clip-rule="evenodd" d="M170.451 446.471C279.815 473.373 423.703 431.335 426.115 320.326C428.908 191.834 267.423 25.2022 149.664 70.3327C71.9558 100.114 130.323 213.941 101.457 253.541C47.3936 327.709 61.0872 419.568 170.451 446.471Z" stroke="#E6F0F8"/>
<path fill-rule="evenodd" clip-rule="evenodd" d="M184.172 405.01C269.868 426.08 382.62 393.147 384.516 306.194C386.71 205.545 260.179 75.0269 167.901 110.381C107.008 133.711 152.739 222.871 130.118 253.89C87.7499 311.987 98.4758 383.941 184.172 405.01Z" stroke="#E6F0F8"/>
<path fill-rule="evenodd" clip-rule="evenodd" d="M198.735 361.835C259.352 376.608 339.151 353.408 340.558 292.284C342.185 221.534 252.758 129.845 187.443 154.738C144.342 171.165 176.631 233.817 160.603 255.632C130.583 296.49 138.118 347.063 198.735 361.835Z" stroke="#E6F0F8"/>
<path fill-rule="evenodd" clip-rule="evenodd" d="M218.111 309.067C248.855 316.476 289.358 304.769 290.112 274.01C290.986 238.407 245.676 192.303 212.521 204.856C190.642 213.139 206.982 244.654 198.836 255.639C183.577 276.211 187.366 301.658 218.111 309.067Z" stroke="#E6F0F8"/>
</svg>
