<svg width="375" height="64" viewBox="0 0 375 64" fill="none" xmlns="http://www.w3.org/2000/svg">
<path fill-rule="evenodd" clip-rule="evenodd" d="M0 5.81723C8.33333 10.2001 125.26 50.626 190.104 50.626C254.948 50.626 375 0 375 0V64H0C0 64 0 12.8366 0 5.81723Z" fill="#1B78D4"/>
<path fill-rule="evenodd" clip-rule="evenodd" d="M0 21.8504C39.3229 29.3481 125.26 54.7156 190.104 54.7156C254.948 54.7156 375 17.0667 375 17.0667V64H0C0 64 0 28.8482 0 21.8504Z" fill="#5099DE"/>
<path fill-rule="evenodd" clip-rule="evenodd" d="M0 40.9647C38.9972 48.3622 137.76 58.3093 193.229 58.3093C248.698 58.3093 375 37.3333 375 37.3333V64H0C0 64 0 47.9267 0 40.9647Z" fill="#1B78D4"/>
</svg>
