<?xml version="1.0" encoding="utf-8"?>
<svg xmlns="http://www.w3.org/2000/svg" width="78" height="78" fill="none" viewBox="0 0 78 78">
    <path fill="#1B78D4" d="M0 29.25v6.5h22.75v-6.5H0zM0 39v39h22.75V39H0zm17.875 29.25h-9.75V65h9.75v3.25zm0-9.75h-9.75v-3.25h9.75v3.25zm0-9.75h-9.75V45.5h9.75v3.25zM55.25 78H78V24.375H55.25V78zm4.875-47.125h9.75v3.25h-9.75v-3.25zm0 9.75h9.75v3.25h-9.75v-3.25zm0 9.75h9.75v3.25h-9.75v-3.25zm0 9.75h9.75v3.25h-9.75v-3.25zm-4.875-45.5v6.5H78v-6.5H55.25z"/>
    <path fill="#FF782C" d="M26 9.75V78h4.875V63.375A8.128 8.128 0 0 1 39 55.25a8.128 8.128 0 0 1 8.125 8.125V78H52V9.75H26zm9.75 30.875H32.5v-26h3.25v26zm9.75 0h-3.25v-26h3.25v26zM26 0v6.5h26V0H26z"/>
</svg>
