<?xml version="1.0" encoding="utf-8"?>
<svg xmlns="http://www.w3.org/2000/svg" width="69" height="75" fill="none" viewBox="0 0 69 75">
    <path fill="#1B78D4" d="M63.37 47.324c-13.464-5.507-20.001-1.893-26.339 1.59-3.632 1.998-7.056 3.892-11.79 4.083-3.086.112-5.401-.721-6.866-2.51-3.407-4.144-1.57-12.084-1.552-12.162a1.079 1.079 0 0 0-.56-1.209 1.072 1.072 0 0 0-1.304.262 19.212 19.212 0 0 0-4.335 8.834 7.42 7.42 0 0 0-4.664-1.468 8.664 8.664 0 0 0-5.73 2.893 1.078 1.078 0 0 0 .355 1.624l9.459 4.83c.867 2.45 5.375 13.17 20.893 15.098v4.734A1.078 1.078 0 0 0 32.012 75c.19 0 4.673-.209 14.166-7.288 13.455-5.038 17.729-18.92 17.78-19.11a1.08 1.08 0 0 0-.589-1.278zM49.861 57.54a1.922 1.922 0 0 1-1.778-1.19 1.933 1.933 0 0 1 .417-2.102 1.923 1.923 0 0 1 3.286 1.363 1.93 1.93 0 0 1-1.925 1.929z"/>
    <path fill="#FF782C" d="M68.38 25.72l-9.596-4.823c-.88-2.446-5.454-13.15-21.199-15.076V1.1a1.062 1.062 0 0 0-.334-.797A1.17 1.17 0 0 0 36.459 0c-.193 0-4.741.208-14.373 7.278C8.434 12.309 4.098 26.17 4.045 26.362c-.077.256-.055.53.062.77.117.241.32.43.571.531 13.66 5.5 20.293 1.9 26.715-1.587 3.685-1.995 7.16-3.887 11.962-4.077 3.132-.122 5.472.72 6.967 2.507 3.457 4.137 1.592 12.066 1.575 12.144-.064.238-.043.49.059.714.101.224.278.407.5.519a1.104 1.104 0 0 0 1.34-.279 19.068 19.068 0 0 0 4.399-8.822 7.7 7.7 0 0 0 4.732 1.466 8.84 8.84 0 0 0 5.814-2.889 1.07 1.07 0 0 0 .237-.91 1.07 1.07 0 0 0-.58-.746l-.017.017zm-49.997-4.337a1.972 1.972 0 0 1-1.075-.325 1.932 1.932 0 0 1-.715-.855 1.901 1.901 0 0 1 .398-2.087 1.979 1.979 0 0 1 2.103-.457c.357.136.666.372.888.68.223.306.349.671.362 1.049a1.902 1.902 0 0 1-.565 1.381 1.955 1.955 0 0 1-1.396.57v.044z"/>
</svg>
