<?xml version="1.0" encoding="utf-8"?>
<svg xmlns="http://www.w3.org/2000/svg" width="83" height="91" fill="none" viewBox="0 0 83 91">
    <path fill="#1B78D4" d="M4.106 80.56a2.118 2.118 0 0 0-2.689-1.299 2.112 2.112 0 0 0-1.3 2.69 12.475 12.475 0 0 0 11.771 8.367c3.805 0 7.297-1.754 9.618-4.588 2.267 2.863 5.858 4.588 9.926 4.588 3.872 0 7.506-1.8 9.893-4.635 2.316 2.863 6.073 4.635 10.24 4.635 3.776 0 7.242-1.731 9.565-4.53 2.238 2.857 5.809 4.53 9.982 4.53a12.476 12.476 0 0 0 11.77-8.368 2.114 2.114 0 0 0-1.3-2.689 2.119 2.119 0 0 0-2.688 1.3 8.249 8.249 0 0 1-7.782 5.535c-3.652 0-6.57-1.833-7.694-4.783.024-.894-.496-1.742-1.386-2.052a2.118 2.118 0 0 0-2.689 1.3 8.249 8.249 0 0 1-7.78 5.535c-3.687 0-6.848-1.94-7.974-4.838.001-.872-.52-1.691-1.393-1.996a2.106 2.106 0 0 0-2.689 1.297c-1.138 3.259-4.461 5.537-8.076 5.537-3.612 0-6.523-1.866-7.679-4.869a2.096 2.096 0 0 0-1.4-1.966 2.112 2.112 0 0 0-2.687 1.301 8.242 8.242 0 0 1-7.778 5.534 8.248 8.248 0 0 1-7.78-5.536z"/>
    <path fill="#FF782C" d="M26.725 4.922c-3.163.511-6.658-1.121-8.293-3.886a2.113 2.113 0 0 0-3.635 2.151C17.32 7.453 22.492 9.88 27.404 9.09c3.583-.593 8.037-.535 10.391 1.235-.313-.081-.625-.166-.955-.218-3.305-.543-6.391.385-9.376 1.279-2.744.82-5.341 1.597-7.743 1.09a6.943 6.943 0 0 1-4.17-2.726 2.112 2.112 0 0 0-3.431 2.462c1.604 2.236 4.06 3.838 6.735 4.395 3.454.728 6.69-.24 9.82-1.177 2.644-.792 5.147-1.54 7.49-1.156.699.112 1.678.384 2.383 1.048.5.468.788 1.142.718 1.677-.002.018 0 .033-.002.05-.01.09-.013.17-.006.234a2.105 2.105 0 0 0 2.105 2.1c.966 0 1.807-.666 2.038-1.606.007-.027.019-.039.024-.069.012-.053.016-.104.026-.157l.002-.005v-.003c.83-4.106.145-7.355-2.052-9.653-4.014-4.201-11.605-3.473-14.677-2.968zM39.868 22.402a2.606 2.606 0 0 0-2.607 2.607v4.035a2.607 2.607 0 0 0 2.607 2.608h3.26a2.608 2.608 0 0 0 2.608-2.608V25.01a2.606 2.606 0 0 0-2.608-2.607h-3.26z"/>
    <path fill="#1B78D4" d="M20.4 58.517l19.288-8.741a.87.87 0 0 0 .51-.791v-6.49a.87.87 0 0 0-1.183-.81L13.098 51.758a.87.87 0 0 0-.462 1.202l9.978 19.692a.865.865 0 0 0 .244.294c.99.767 4.588 3.27 9.32 3.27h.002c2.635 0 5.195-.771 7.612-2.288a.87.87 0 0 0 .406-.736V53.755a.867.867 0 0 0-1.227-.792l-17.492 7.928c-.624.282-1.442-.016-1.729-.65a1.293 1.293 0 0 1-.033-.996c.125-.326.366-.586.682-.728z"/>
    <path fill="#1B78D4" d="M41.517 38.016c.156.002.316.033.459.087l17.602 6.847a.878.878 0 0 0 .805-.092.87.87 0 0 0 .378-.718v-9.292a.87.87 0 0 0-.869-.87H23.11a.87.87 0 0 0-.87.87v9.29a.867.867 0 0 0 1.185.81L40.96 38.13a.683.683 0 0 0 .063-.028v.001c.132-.049.272-.077.493-.088z"/>
    <path fill="#1B78D4" d="M43.236 73.25a.84.84 0 0 0 .166.078c2.729 2.176 5.54 3.279 8.36 3.279h.002c4.436 0 7.55-2.766 8.4-3.612a.9.9 0 0 0 .16-.224l10.037-19.81a.869.869 0 0 0-.46-1.203L43.988 41.684a.87.87 0 0 0-1.186.81v6.325c0 .34.198.648.508.79l18.512 8.467c.653.3.942 1.074.644 1.729-.29.633-1.084.941-1.726.644l-16.707-7.642a.87.87 0 0 0-1.231.791V72.5c0 .31.166.596.434.75z"/>
</svg>
