<?xml version="1.0" encoding="utf-8"?>
<svg xmlns="http://www.w3.org/2000/svg" width="86" height="86" fill="none" viewBox="0 0 86 86">
    <path fill="#1B78D4" d="M79.083 81.756v-36.58L63.23 40.734v41.11h-2.264V24.621L21.86 16.086v65.67h-2.265V30.37l-15.85 4.442v46.944H0v3.92h82.74v-3.92h-3.657zM68.109 49.618h6.01v6.184h-6.01v-6.184zm0 10.277h6.01v6.184h-6.01v-6.184zm0 10.277h6.01v6.184h-6.01v-6.183zM8.797 39.341h6.01v6.184h-6.01V39.34zm0 10.277h6.01v6.184h-6.01v-6.184zm0 10.277h6.01v6.184h-6.01v-6.184zm0 10.277h6.01v6.184h-6.01v-6.183zm41.022-41.109h6.01v6.184h-6.01v-6.184zm0 10.278h6.01v6.184h-6.01V39.34zm0 10.277h6.01v6.184h-6.01v-6.184zm0 10.277h6.01v6.184h-6.01v-6.184zm-.697 21.861h-6.88V70.172h6.88v11.584zM38.409 29.063h6.01v6.184h-6.01v-6.184zm0 10.278h6.01v6.184h-6.01V39.34zm0 10.277h6.01v6.184h-6.01v-6.184zm0 10.277h6.01v6.184h-6.01v-6.184zM27.087 29.063h6.01v6.184h-6.01v-6.184zm0 10.278h6.01v6.184h-6.01V39.34zm0 10.277h6.01v6.184h-6.01v-6.184zm0 10.277h6.01v6.184h-6.01v-6.184zm6.706 10.277h6.88v11.584h-6.88V70.172z"/>
    <mask id="a" width="55" height="37" x="33" y="-8" maskUnits="userSpaceOnUse">
        <path fill="#FFFFFF" d="M33.068-7.43H87.18v36.075l-41.172-2.608L33.068-7.43z"/>
    </mask>
    <g mask="url(#a)">
        <path fill="#1B78D4" d="M58.694 37.757v-11.46c-18.836 1.996-24.381-.367-30.575 5.826-2.658 2.657-4.198 6.13-4.427 9.856l-.047.013v37.575h60.106V41.99c-.723-.162-11.102-3.548-25.057-4.234zM29.89 33.894c5.234-5.234 10.16-3.23 26.3-4.917v8.677c-9.984-.208-20.117 1.016-29.934 3.616a12.69 12.69 0 0 1 3.634-7.376zm12.741 43.168H39.71v-7.13h2.921v7.13zm12.527 0h-2.92v-7.13h2.92v7.13zm12.528 0h-2.921v-7.13h2.921v7.13zm13.56 0H70.192v-9.635h-7.93v9.635h-4.599v-9.635h-7.928v9.635h-4.599v-9.635h-7.93v9.635H26.15V62.855c18.267-4.655 36.67-4.696 55.098 0v14.207zM39.712 57.72v-7.506h2.918v7.182c-1 .096-1.974.203-2.918.324zm12.527-1.627V48.96h2.92v7.132h-2.92zm12.53 1.304v-7.183h2.917v7.512c-1.013-.128-1.98-.237-2.918-.329zm16.479 2.888c-3.701-.921-7.407-1.66-11.058-2.203V47.71h-7.926v9.493c-1.534-.12-3.067-.212-4.6-.267v-10.48h-7.93v10.478c-1.54.055-3.073.147-4.6.267V47.71h-7.927v10.372c-3.65.542-7.356 1.282-11.057 2.203V43.906c18.452-5.03 36.704-5.028 55.098-.014v16.393z"/>
        <mask id="b" width="32" height="34" x="54" y="1" maskUnits="userSpaceOnUse">
            <path fill="#FFFFFF" d="M72.114 3.752c-2.112-.814-4.2-.124-6.662.441-2.356.542-5.096 1.055-8.624.514l-.062-.585a1.36 1.36 0 0 0 .62-.743c.269-.797-.205-1.71-1.06-2.04-.853-.328-1.764.051-2.033.848-.249.736.14 1.56.873 1.943l2.971 30.846 1.612-.003-1.342-13.89c2.975.275 5.355-.17 7.37-.474 2.16-.326 3.835-.474 5.663.41.335.163.396.283.455.597.074.956-.282 1.785-.484 2.643-.174.814.107 1.454 1.067 1.571 4.347-.306 8.301.433 12.46 2.036.292.116.637.06.847-.139a.741.741 0 0 0 .157-.813c-1.873-4.675-4.815-11.364-1.445-14.795.3-.299.237-.873-.128-1.159-2.227-1.733-5.16-2.07-8.12-2.07-1-2.068-2.17-4.344-4.135-5.138zm.953 11.24c.42 1.127 1.102 2.262 2.233 2.607.928.302 2.038.11 2.897.033.884-.062 1.897-.048 3.141.319.403 2.733 1.56 5.62 2.506 7.938-3.515-1.183-7.023-1.777-10.725-1.634.257-.892.517-1.908.365-2.779a2.613 2.613 0 0 0-1.415-1.833c-2.302-1.114-4.461-.904-6.674-.57-1.994.3-4.12.672-6.713.472.455-2.138 1.094-3.678 1.314-5.548 1.784.228 3.775-.084 5.735-.365 2.253-.323 4.47-.599 5.912-.284.765.185 1.174 1.04 1.424 1.645zm-15.92-6.988c1.424 2.785 1.523 5.41.766 7.918l-.766-7.918z"/>
        </mask>
        <g mask="url(#b)">
            <path fill="#FF782C" d="M70.603 1.252c-.5 0-8.14 2.087-11.896 3.13v16.905c.835 1.044 2.755 3.382 3.757 4.383 1.252 1.252 4.382 3.13 7.513 5.01 3.13 1.877 8.765.625 9.391.625.501 0 4.383-2.087 6.261-3.13l.627-2.505c-.418-2.296-1.127-7.137-.627-8.14.627-1.251.627-1.251.627-3.756 0-2.504 1.878-3.13 2.504-4.382.626-1.253-1.252-6.262-1.878-6.888-.626-.626-15.653-1.252-16.279-1.252z"/>
        </g>
        <path fill="#1B78D4" d="M56.203 3.757h2.504v32.557h-2.504z"/>
        <circle cx="57.454" cy="2.504" r="2.504" fill="#1B78D4"/>
    </g>
</svg>
