<?xml version="1.0" encoding="utf-8"?>
<svg xmlns="http://www.w3.org/2000/svg" width="97" height="71" fill="none" viewBox="0 0 97 71">
    <path fill="#1B78D4" d="M1.236 4.457h31.86l2.205.706h43.245V3.927l16.768.177v4.941H19.062C.53 9.045 1.236 4.457 1.236 4.457zm33.89 65.484V13.81H17.474l.907 15.367c.337 5.703.27 11.431-.198 17.12L16.238 69.94h18.888zm28.24 0V13.81h-17.65l.907 15.367c.337 5.703.27 11.431-.198 17.12L44.48 69.94h18.886zm28.595 0V13.81H74.31l.906 15.367c.337 5.703.27 11.431-.198 17.12L73.075 69.94H91.96zM0 69.94h95.315H0zM27.535 4.28V1.058h-6.09V4.28h6.09zm59.307-.443V1.058h-6.486V3.75l6.486.087zm-41.474 58.02c-4.408 6.707-10.242 4.588-10.242 4.588v3.496h10.242v-8.085zm28.665 0c-4.408 6.707-10.242 4.588-10.242 4.588v3.496h10.242v-8.085zm-57.627.495C11.998 69.06 6.164 66.94 6.164 66.94v3h10.074l.168-7.59z"/>
    <path fill="#1B78D4" d="M95.315 71H0v-2.118h5.106V66.94a1.06 1.06 0 0 1 1.421-.996c.201.071 5.13 1.71 8.995-4.175.093-.14.214-.254.354-.334l1.252-15.224c.464-5.624.53-11.334.197-16.97l-.905-15.367a1.052 1.052 0 0 1 .287-.79c.197-.212.476-.333.767-.333h17.65c.586 0 1.06.474 1.06 1.06v51.805c1.46.25 4.925.304 7.9-3.767l1.285-15.64c.463-5.623.528-11.333.197-16.97l-.907-15.366a1.053 1.053 0 0 1 .287-.79c.198-.211.478-.332.77-.332h17.65c.586 0 1.06.474 1.06 1.06v51.716c1.057.265 4.939.857 8.242-3.57l1.295-15.748c.463-5.624.529-11.334.197-16.97l-.906-15.367a1.057 1.057 0 0 1 1.056-1.12h17.65c.586 0 1.06.473 1.06 1.058v55.07h2.295V71zm-20.223-2.118h15.81V14.87H75.434l.841 14.246c.338 5.736.271 11.545-.199 17.268l-1.218 14.807c.148.183.235.416.235.664v7.027zm-10.242 0h7.25l.29-3.52c-2.858 2.448-5.835 2.571-7.54 2.373v1.147zm-18.424 0h15.881V14.87H46.84l.84 14.246c.338 5.736.272 11.545-.199 17.268L46.255 61.28c.11.167.17.366.17.576v7.026zm-10.242 0h7.32l.295-3.586c-2.883 2.511-5.898 2.636-7.615 2.439v1.147zm-18.795 0h16.677V14.87H18.598l.84 14.246a122.86 122.86 0 0 1-.2 17.268l-1.85 22.498zm-10.165 0h7.979l.077-3.494c-3.01 2.9-6.252 3.051-8.056 2.843v.65zm88.09-58.778H19.064C9.18 10.104 3.081 8.838.937 6.338.08 5.338.163 4.461.19 4.296c.079-.517.524-.899 1.046-.899h19.152V1.06C20.387.474 20.86 0 21.446 0h6.09c.585 0 1.058.474 1.058 1.059v2.338h4.501c.11 0 .219.017.323.051l2.05.656h42.02v-.177c0-.283.112-.554.314-.753.201-.2.476-.298.756-.306l.74.007V1.06C79.298.474 79.77 0 80.357 0h6.486c.586 0 1.06.474 1.06 1.059v1.907l7.424.079c.58.006 1.048.478 1.048 1.059v4.941a1.06 1.06 0 0 1-1.06 1.06zM3.21 5.516c1.512 1.027 5.484 2.47 15.854 2.47h75.193V5.151l-14.651-.154v.165c0 .584-.474 1.059-1.06 1.059H35.302c-.11 0-.218-.017-.323-.051l-2.049-.656H3.21v.002zm19.295-2.119h3.971V2.118h-3.971v1.28zm58.91-.5l4.368.046v-.826h-4.368v.78z"/>
    <path fill="#fff" d="M24.358 23.3h-3.177v3.176h3.177V23.3zM31.772 23.3h-3.177v3.176h3.177V23.3zM31.772 29.654h-3.177v3.177h3.177v-3.178zM31.772 37.067h-3.177v3.177h3.177v-3.177zM52.953 23.3h-3.178v3.176h3.178V23.3zM60.366 23.3h-3.177v3.176h3.177V23.3zM60.366 29.654h-3.177v3.177h3.177v-3.178zM60.366 37.067h-3.177v3.177h3.177v-3.177zM82.606 23.3H79.43v3.176h3.177V23.3zM88.96 23.3h-3.177v3.176h3.177V23.3zM88.96 29.654h-3.177v3.177h3.177v-3.178zM88.96 37.067h-3.177v3.177h3.177v-3.177z"/>
    <mask id="a" width="97" height="71" x="0" y="0" maskUnits="userSpaceOnUse">
        <path fill="#FFFFFF" d="M1.236 4.457h31.86l2.205.706h43.245V3.927l16.768.177v4.941H19.062C.53 9.045 1.236 4.457 1.236 4.457zm33.89 65.484V13.81H17.474l.907 15.367c.337 5.703.27 11.431-.198 17.12L16.238 69.94h18.888zm28.24 0V13.81h-17.65l.907 15.367c.337 5.703.27 11.431-.198 17.12L44.48 69.94h18.886zm28.595 0V13.81H74.31l.906 15.367c.337 5.703.27 11.431-.198 17.12L73.075 69.94H91.96zM0 69.94h95.315H0zM27.535 4.28V1.058h-6.09V4.28h6.09zm59.307-.443V1.058h-6.486V3.75l6.486.087zm-41.474 58.02c-4.408 6.707-10.242 4.588-10.242 4.588v3.496h10.242v-8.085zm28.665 0c-4.408 6.707-10.242 4.588-10.242 4.588v3.496h10.242v-8.085zm-57.627.495C11.998 69.06 6.164 66.94 6.164 66.94v3h10.074l.168-7.59z"/>
        <path fill="#FFFFFF" d="M95.315 71H0v-2.118h5.106V66.94a1.06 1.06 0 0 1 1.421-.996c.201.071 5.13 1.71 8.995-4.175.093-.14.214-.254.354-.334l1.252-15.224c.464-5.624.53-11.334.197-16.97l-.905-15.367a1.052 1.052 0 0 1 .287-.79c.197-.212.476-.333.767-.333h17.65c.586 0 1.06.474 1.06 1.06v51.805c1.46.25 4.925.304 7.9-3.767l1.285-15.64c.463-5.623.528-11.333.197-16.97l-.907-15.366a1.053 1.053 0 0 1 .287-.79c.198-.211.478-.332.77-.332h17.65c.586 0 1.06.474 1.06 1.06v51.716c1.057.265 4.939.857 8.242-3.57l1.295-15.748c.463-5.624.529-11.334.197-16.97l-.906-15.367a1.057 1.057 0 0 1 1.056-1.12h17.65c.586 0 1.06.473 1.06 1.058v55.07h2.295V71zm-20.223-2.118h15.81V14.87H75.434l.841 14.246c.338 5.736.271 11.545-.199 17.268l-1.218 14.807c.148.183.235.416.235.664v7.027zm-10.242 0h7.25l.29-3.52c-2.858 2.448-5.835 2.571-7.54 2.373v1.147zm-18.424 0h15.881V14.87H46.84l.84 14.246c.338 5.736.272 11.545-.199 17.268L46.255 61.28c.11.167.17.366.17.576v7.026zm-10.242 0h7.32l.295-3.586c-2.883 2.511-5.898 2.636-7.615 2.439v1.147zm-18.795 0h16.677V14.87H18.598l.84 14.246a122.86 122.86 0 0 1-.2 17.268l-1.85 22.498zm-10.165 0h7.979l.077-3.494c-3.01 2.9-6.252 3.051-8.056 2.843v.65zm88.09-58.778H19.064C9.18 10.104 3.081 8.838.937 6.338.08 5.338.163 4.461.19 4.296c.079-.517.524-.899 1.046-.899h19.152V1.06C20.387.474 20.86 0 21.446 0h6.09c.585 0 1.058.474 1.058 1.059v2.338h4.501c.11 0 .219.017.323.051l2.05.656h42.02v-.177c0-.283.112-.554.314-.753.201-.2.476-.298.756-.306l.74.007V1.06C79.298.474 79.77 0 80.357 0h6.486c.586 0 1.06.474 1.06 1.059v1.907l7.424.079c.58.006 1.048.478 1.048 1.059v4.941a1.06 1.06 0 0 1-1.06 1.06zM3.21 5.516c1.512 1.027 5.484 2.47 15.854 2.47h75.193V5.151l-14.651-.154v.165c0 .584-.474 1.059-1.06 1.059H35.302c-.11 0-.218-.017-.323-.051l-2.049-.656H3.21v.002zm19.295-2.119h3.971V2.118h-3.971v1.28zm58.91-.5l4.368.046v-.826h-4.368v.78z"/>
    </mask>
    <g mask="url(#a)">
        <path fill="#FF782C" d="M-14.827-6.354h122.85v16.945h-122.85z"/>
    </g>
</svg>
